<svg width="436" height="210" viewBox="0 0 436 210" fill="none" xmlns="http://www.w3.org/2000/svg">
<path d="M101.974 71.4512C106.791 71.4512 110.576 72.1393 113.328 73.5156C116.081 74.7936 118.145 76.5632 119.521 78.8242C120.996 81.0853 121.93 83.7396 122.323 86.7871C122.716 89.7363 122.913 92.8822 122.913 96.2246V183.521C122.913 186.962 122.716 190.157 122.323 193.106C121.93 196.056 121.045 198.661 119.669 200.922C118.293 203.085 116.228 204.805 113.476 206.083C110.723 207.361 106.987 208 102.269 208C97.6481 208 93.9616 207.41 91.209 206.23C88.4564 204.952 86.3428 203.281 84.8682 201.217C83.3936 199.152 82.4105 196.695 81.9189 193.844C81.5257 190.993 81.3291 187.945 81.3291 184.701V158.453H30.8975C24.8024 158.453 19.7887 157.962 15.8564 156.979C11.9242 155.995 8.77832 154.717 6.41895 153.145C4.15788 151.473 2.53581 149.556 1.55273 147.394C0.667969 145.231 0.225586 143.019 0.225586 140.758C0.225586 139.578 0.323893 138.398 0.520508 137.219C0.81543 136.039 1.11035 134.859 1.40527 133.68L31.1924 30.1621C32.1755 26.5247 33.1094 22.9857 33.9941 19.5449C34.9772 16.1042 36.2552 13.0566 37.8281 10.4023C39.4993 7.74805 41.7604 5.63444 44.6113 4.06152C47.4622 2.3903 51.3454 1.55469 56.2607 1.55469C59.7998 1.55469 62.6999 2.04622 64.9609 3.0293C67.3203 4.01237 69.1882 5.33952 70.5645 7.01074C71.9408 8.58366 72.8747 10.4515 73.3662 12.6143C73.9561 14.6787 74.251 16.8906 74.251 19.25C74.251 21.6094 74.0544 24.0179 73.6611 26.4756C73.2679 28.835 72.7764 31.0469 72.1865 33.1113C71.695 35.1758 71.1543 37.0436 70.5645 38.7148C70.0729 40.2878 69.7288 41.4674 69.5322 42.2539C69.5322 42.2539 69.2373 43.3353 68.6475 45.498C68.0576 47.5625 67.2712 50.3151 66.2881 53.7559C65.305 57.0983 64.2236 60.9814 63.0439 65.4053C61.8643 69.7308 60.6354 74.1546 59.3574 78.6768C56.3099 89.2939 52.9183 101.337 49.1826 114.805L50.3623 115.984H81.3291V95.9297C81.3291 92.5872 81.5257 89.4414 81.9189 86.4922C82.3122 83.543 83.1969 80.987 84.5732 78.8242C85.9495 76.5632 88.014 74.7936 90.7666 73.5156C93.5192 72.1393 97.2549 71.4512 101.974 71.4512ZM152.11 60.5391C152.11 51.0033 153.438 42.8929 156.092 36.208C158.844 29.4248 162.334 23.8213 166.562 19.3975C170.789 14.9736 175.458 11.4837 180.57 8.92773C185.682 6.37174 190.647 4.45475 195.464 3.17676C200.379 1.89876 204.754 1.1123 208.588 0.817383C212.52 0.522461 215.42 0.375 217.288 0.375H222.302C224.17 0.375 227.07 0.522461 231.002 0.817383C234.934 1.1123 239.26 1.89876 243.979 3.17676C248.796 4.45475 253.711 6.37174 258.725 8.92773C263.837 11.4837 268.457 14.9736 272.586 19.3975C276.813 23.8213 280.254 29.4248 282.908 36.208C285.562 42.8929 286.89 51.0033 286.89 60.5391V147.541C286.89 157.372 285.562 165.728 282.908 172.609C280.254 179.491 276.813 185.242 272.586 189.862C268.457 194.384 263.837 197.924 258.725 200.479C253.711 203.035 248.796 205.002 243.979 206.378C239.26 207.656 234.934 208.442 231.002 208.737C227.07 209.032 224.17 209.18 222.302 209.18H217.288C215.42 209.18 212.52 209.032 208.588 208.737C204.754 208.442 200.379 207.656 195.464 206.378C190.647 205.002 185.682 203.035 180.57 200.479C175.458 197.924 170.789 194.384 166.562 189.862C162.334 185.242 158.844 179.491 156.092 172.609C153.438 165.728 152.11 157.372 152.11 147.541V60.5391ZM200.478 155.209C200.772 158.65 201.706 161.697 203.279 164.352C204.557 166.613 206.474 168.726 209.03 170.692C211.685 172.56 215.322 173.494 219.942 173.494C224.465 173.494 228.004 172.56 230.56 170.692C233.116 168.726 235.033 166.613 236.311 164.352C237.785 161.697 238.719 158.65 239.112 155.209V55.5254C238.719 52.0846 237.785 49.0371 236.311 46.3828C235.033 44.1217 233.116 42.0573 230.56 40.1895C228.004 38.2233 224.465 37.2402 219.942 37.2402C215.322 37.2402 211.685 38.2233 209.03 40.1895C206.474 42.0573 204.557 44.1217 203.279 46.3828C201.706 49.0371 200.772 52.0846 200.478 55.5254V155.209ZM414.591 71.4512C419.408 71.4512 423.193 72.1393 425.945 73.5156C428.698 74.7936 430.762 76.5632 432.139 78.8242C433.613 81.0853 434.547 83.7396 434.94 86.7871C435.334 89.7363 435.53 92.8822 435.53 96.2246V183.521C435.53 186.962 435.334 190.157 434.94 193.106C434.547 196.056 433.662 198.661 432.286 200.922C430.91 203.085 428.845 204.805 426.093 206.083C423.34 207.361 419.604 208 414.886 208C410.265 208 406.579 207.41 403.826 206.23C401.074 204.952 398.96 203.281 397.485 201.217C396.011 199.152 395.028 196.695 394.536 193.844C394.143 190.993 393.946 187.945 393.946 184.701V158.453H343.515C337.42 158.453 332.406 157.962 328.474 156.979C324.541 155.995 321.396 154.717 319.036 153.145C316.775 151.473 315.153 149.556 314.17 147.394C313.285 145.231 312.843 143.019 312.843 140.758C312.843 139.578 312.941 138.398 313.138 137.219C313.433 136.039 313.728 134.859 314.022 133.68L343.81 30.1621C344.793 26.5247 345.727 22.9857 346.611 19.5449C347.594 16.1042 348.872 13.0566 350.445 10.4023C352.117 7.74805 354.378 5.63444 357.229 4.06152C360.079 2.3903 363.963 1.55469 368.878 1.55469C372.417 1.55469 375.317 2.04622 377.578 3.0293C379.938 4.01237 381.805 5.33952 383.182 7.01074C384.558 8.58366 385.492 10.4515 385.983 12.6143C386.573 14.6787 386.868 16.8906 386.868 19.25C386.868 21.6094 386.672 24.0179 386.278 26.4756C385.885 28.835 385.394 31.0469 384.804 33.1113C384.312 35.1758 383.771 37.0436 383.182 38.7148C382.69 40.2878 382.346 41.4674 382.149 42.2539C382.149 42.2539 381.854 43.3353 381.265 45.498C380.675 47.5625 379.888 50.3151 378.905 53.7559C377.922 57.0983 376.841 60.9814 375.661 65.4053C374.481 69.7308 373.253 74.1546 371.975 78.6768C368.927 89.2939 365.535 101.337 361.8 114.805L362.979 115.984H393.946V95.9297C393.946 92.5872 394.143 89.4414 394.536 86.4922C394.929 83.543 395.814 80.987 397.19 78.8242C398.567 76.5632 400.631 74.7936 403.384 73.5156C406.136 72.1393 409.872 71.4512 414.591 71.4512Z" fill="url(#paint0_linear_837_16895)"/>
<defs>
<linearGradient id="paint0_linear_837_16895" x1="220" y1="-9.07447" x2="220" y2="229.989" gradientUnits="userSpaceOnUse">
<stop stop-color="#0660FC" stop-opacity="0.1"/>
<stop offset="1" stop-color="#0660FC" stop-opacity="0"/>
</linearGradient>
</defs>
</svg>
