<svg width="456" height="210" viewBox="0 0 456 210" fill="none" xmlns="http://www.w3.org/2000/svg">
<path d="M46.4111 77.0547C50.4417 75.5801 54.8164 74.5479 59.5352 73.958C64.3522 73.2699 68.6286 72.9258 72.3643 72.9258C75.9033 72.9258 79.8356 73.319 84.1611 74.1055C88.4867 74.8919 92.8613 76.2682 97.2852 78.2344C101.709 80.1022 106.035 82.609 110.262 85.7549C114.489 88.9007 118.225 92.833 121.469 97.5518C124.713 102.172 127.318 107.677 129.284 114.067C131.25 120.457 132.233 127.781 132.233 136.039C132.233 145.477 131.201 153.882 129.137 161.255C127.171 168.53 124.467 174.87 121.026 180.277C117.684 185.684 113.702 190.256 109.082 193.991C104.56 197.629 99.6937 200.578 94.4834 202.839C89.3714 205.1 84.0628 206.722 78.5576 207.705C73.0524 208.688 67.6455 209.18 62.3369 209.18C56.5368 209.18 50.3926 208.442 43.9043 206.968C37.5143 205.395 31.4193 203.085 25.6191 200.037C19.9173 196.891 14.8545 193.008 10.4307 188.388C6.10514 183.669 3.15592 178.115 1.58301 171.725C0.993164 169.365 0.698242 167.006 0.698242 164.646C0.698242 162.189 1.04232 159.879 1.73047 157.716C2.41862 155.455 3.45085 153.489 4.82715 151.817C6.30176 150.048 8.12044 148.672 10.2832 147.688C12.446 146.607 15.0511 146.066 18.0986 146.066C22.1292 146.066 25.8649 147.197 29.3057 149.458C32.8447 151.719 35.7939 155.209 38.1533 159.928C38.7432 161.009 39.6279 162.238 40.8076 163.614C42.0856 164.991 43.7077 166.269 45.6738 167.448C47.7383 168.628 50.196 169.66 53.0469 170.545C55.8978 171.331 59.1911 171.725 62.9268 171.725C68.6286 171.725 73.2982 170.84 76.9355 169.07C80.6712 167.202 83.6204 164.794 85.7832 161.845C87.946 158.896 89.4206 155.553 90.207 151.817C91.0918 148.082 91.5342 144.297 91.5342 140.463C91.5342 135.646 90.6986 131.517 89.0273 128.076C87.3561 124.537 85.0951 121.637 82.2441 119.376C79.4915 117.017 76.3457 115.296 72.8066 114.215C69.2676 113.035 65.6794 112.445 62.042 112.445C58.8962 112.445 55.7503 112.888 52.6045 113.772C49.557 114.559 46.4603 115.444 43.3145 116.427C40.2669 117.41 37.1702 118.344 34.0244 119.229C30.8786 120.015 27.6344 120.408 24.292 120.408C22.0309 120.408 19.7699 120.162 17.5088 119.671C15.2477 119.179 13.2324 118.295 11.4629 117.017C9.69336 115.64 8.21875 113.871 7.03906 111.708C5.95768 109.545 5.41699 106.743 5.41699 103.303L13.9697 22.1992C14.1663 20.0365 14.5596 17.7754 15.1494 15.416C15.8376 12.9583 16.8206 10.6973 18.0986 8.63281C19.4749 6.56836 21.2445 4.89714 23.4072 3.61914C25.6683 2.24284 28.5192 1.55469 31.96 1.55469H90.9443C94.5817 1.55469 98.2682 1.7513 102.004 2.14453C105.838 2.53776 109.229 3.42253 112.179 4.79883C115.226 6.17513 117.684 8.23958 119.552 10.9922C121.518 13.6465 122.501 17.2839 122.501 21.9043C122.501 26.623 121.518 30.3587 119.552 33.1113C117.684 35.8639 115.226 37.9284 112.179 39.3047C109.229 40.681 105.838 41.5658 102.004 41.959C98.2682 42.3522 94.5817 42.5488 90.9443 42.5488H55.5537C54.7673 42.5488 53.9808 42.598 53.1943 42.6963C52.5062 42.6963 51.8672 42.8929 51.2773 43.2861C50.7858 43.6794 50.3434 44.3184 49.9502 45.2031C49.6553 45.9896 49.4587 47.1693 49.3604 48.7422L46.4111 77.0547ZM155.827 60.5391C155.827 51.0033 157.154 42.8929 159.809 36.208C162.561 29.4248 166.051 23.8213 170.278 19.3975C174.506 14.9736 179.175 11.4837 184.287 8.92773C189.399 6.37174 194.364 4.45475 199.181 3.17676C204.096 1.89876 208.471 1.1123 212.305 0.817383C216.237 0.522461 219.137 0.375 221.005 0.375H226.019C227.886 0.375 230.786 0.522461 234.719 0.817383C238.651 1.1123 242.977 1.89876 247.695 3.17676C252.512 4.45475 257.428 6.37174 262.441 8.92773C267.553 11.4837 272.174 14.9736 276.303 19.3975C280.53 23.8213 283.971 29.4248 286.625 36.208C289.279 42.8929 290.606 51.0033 290.606 60.5391V147.541C290.606 157.372 289.279 165.728 286.625 172.609C283.971 179.491 280.53 185.242 276.303 189.862C272.174 194.384 267.553 197.924 262.441 200.479C257.428 203.035 252.512 205.002 247.695 206.378C242.977 207.656 238.651 208.442 234.719 208.737C230.786 209.032 227.886 209.18 226.019 209.18H221.005C219.137 209.18 216.237 209.032 212.305 208.737C208.471 208.442 204.096 207.656 199.181 206.378C194.364 205.002 189.399 203.035 184.287 200.479C179.175 197.924 174.506 194.384 170.278 189.862C166.051 185.242 162.561 179.491 159.809 172.609C157.154 165.728 155.827 157.372 155.827 147.541V60.5391ZM204.194 155.209C204.489 158.65 205.423 161.697 206.996 164.352C208.274 166.613 210.191 168.726 212.747 170.692C215.401 172.56 219.039 173.494 223.659 173.494C228.181 173.494 231.72 172.56 234.276 170.692C236.832 168.726 238.749 166.613 240.027 164.352C241.502 161.697 242.436 158.65 242.829 155.209V55.5254C242.436 52.0846 241.502 49.0371 240.027 46.3828C238.749 44.1217 236.832 42.0573 234.276 40.1895C231.72 38.2233 228.181 37.2402 223.659 37.2402C219.039 37.2402 215.401 38.2233 212.747 40.1895C210.191 42.0573 208.274 44.1217 206.996 46.3828C205.423 49.0371 204.489 52.0846 204.194 55.5254V155.209ZM320.688 60.5391C320.688 51.0033 322.016 42.8929 324.67 36.208C327.423 29.4248 330.912 23.8213 335.14 19.3975C339.367 14.9736 344.036 11.4837 349.148 8.92773C354.26 6.37174 359.225 4.45475 364.042 3.17676C368.957 1.89876 373.332 1.1123 377.166 0.817383C381.098 0.522461 383.998 0.375 385.866 0.375H390.88C392.748 0.375 395.648 0.522461 399.58 0.817383C403.512 1.1123 407.838 1.89876 412.557 3.17676C417.374 4.45475 422.289 6.37174 427.303 8.92773C432.415 11.4837 437.035 14.9736 441.164 19.3975C445.391 23.8213 448.832 29.4248 451.486 36.208C454.141 42.8929 455.468 51.0033 455.468 60.5391V147.541C455.468 157.372 454.141 165.728 451.486 172.609C448.832 179.491 445.391 185.242 441.164 189.862C437.035 194.384 432.415 197.924 427.303 200.479C422.289 203.035 417.374 205.002 412.557 206.378C407.838 207.656 403.512 208.442 399.58 208.737C395.648 209.032 392.748 209.18 390.88 209.18H385.866C383.998 209.18 381.098 209.032 377.166 208.737C373.332 208.442 368.957 207.656 364.042 206.378C359.225 205.002 354.26 203.035 349.148 200.479C344.036 197.924 339.367 194.384 335.14 189.862C330.912 185.242 327.423 179.491 324.67 172.609C322.016 165.728 320.688 157.372 320.688 147.541V60.5391ZM369.056 155.209C369.351 158.65 370.285 161.697 371.857 164.352C373.135 166.613 375.052 168.726 377.608 170.692C380.263 172.56 383.9 173.494 388.521 173.494C393.043 173.494 396.582 172.56 399.138 170.692C401.694 168.726 403.611 166.613 404.889 164.352C406.363 161.697 407.297 158.65 407.69 155.209V55.5254C407.297 52.0846 406.363 49.0371 404.889 46.3828C403.611 44.1217 401.694 42.0573 399.138 40.1895C396.582 38.2233 393.043 37.2402 388.521 37.2402C383.9 37.2402 380.263 38.2233 377.608 40.1895C375.052 42.0573 373.135 44.1217 371.857 46.3828C370.285 49.0371 369.351 52.0846 369.056 55.5254V155.209Z" fill="url(#paint0_linear_837_16989)"/>
<defs>
<linearGradient id="paint0_linear_837_16989" x1="230.523" y1="-14.5" x2="230.523" y2="197.5" gradientUnits="userSpaceOnUse">
<stop stop-color="#0660FC" stop-opacity="0.1"/>
<stop offset="1" stop-color="#0660FC" stop-opacity="0"/>
</linearGradient>
</defs>
</svg>
