<svg width="780" height="550" viewBox="0 0 614 521" fill="none" xmlns="http://www.w3.org/2000/svg">
<path d="M311.717 470.549C273.651 432.483 245.053 392.684 188.238 381.125C160.795 375.538 135.228 382.299 108.055 380.525C74.6504 378.336 43.1864 361.299 23.1601 334.502C-13.4111 285.549 -4.65257 213.975 42.562 175.177C89.9924 136.208 137.733 154.823 191.18 161.651C215.934 164.822 260.596 154.71 254.793 96.4041C253.249 80.9792 256.598 65.2216 263.294 51.1982C291.942 -8.82429 376.639 -17.3654 416.737 35.274C434.791 59.0071 434.303 89.939 447.201 116.332C462.581 147.797 486.604 172.752 517.502 188.655C578.286 219.905 616.128 285.123 613.059 353.368C606.286 503.672 417.84 576.672 311.717 470.549Z" fill="url(#paint0_linear_743_25272)"/>
<defs>
<linearGradient id="paint0_linear_743_25272" x1="628.884" y1="314.304" x2="52.0007" y2="157.899" gradientUnits="userSpaceOnUse">
<stop stop-color="#0660FC"/>
<stop offset="1" stop-color="#01CCFF"/>
</linearGradient>
</defs>
</svg>
