<svg viewBox="0 0 558 492" fill="none" xmlns="http://www.w3.org/2000/svg">
<path d="M293.379 430.168C324.089 390.738 345.878 350.797 396.897 333.64C421.539 325.35 445.868 328.65 470.699 323.904C501.224 318.062 528.26 298.762 543.641 271.781C571.727 222.492 555.46 157.555 507.518 127.218C459.358 96.7491 417.507 119.367 369.05 131.779C346.607 137.536 304.302 133.335 302.971 78.9536C302.626 64.566 297.736 50.4322 289.961 38.2796C256.693 -13.7371 177.685 -11.9055 146.772 41.1831C132.858 65.1158 136.85 93.5571 127.99 119.35C117.424 150.1 98.1501 175.842 71.5063 194.032C19.0855 229.784 -8.30825 294.202 2.33566 356.724C25.7902 494.421 207.764 540.092 293.379 430.168Z" fill="url(#paint0_linear_743_25191)"/>
<defs>
<linearGradient id="paint0_linear_743_25191" x1="-16.7177" y1="322.548" x2="496.843" y2="112.381" gradientUnits="userSpaceOnUse">
<stop stop-color="#0660FC"/>
<stop offset="1" stop-color="#01CCFF"/>
</linearGradient>
</defs>
</svg>
