<svg width="28" height="24" viewBox="0 0 28 24" fill="none" xmlns="http://www.w3.org/2000/svg">
<rect width="24" height="24" rx="12" fill="url(#paint0_linear_135_25712)"/>
<path opacity="0.1" d="M17 21.1668C22.0626 21.1668 26.1666 17.0628 26.1666 12.0002C26.1666 6.93755 22.0626 2.8335 17 2.8335C11.9374 2.8335 7.8333 6.93755 7.8333 12.0002C7.8333 17.0628 11.9374 21.1668 17 21.1668Z" fill="#0660FC"/>
<path d="M17 13.7782C18.9238 13.7782 20.4833 12.2186 20.4833 10.2949C20.4833 8.37107 18.9238 6.81152 17 6.81152C15.0762 6.81152 13.5166 8.37107 13.5166 10.2949C13.5166 12.2186 15.0762 13.7782 17 13.7782Z" fill="#0660FC"/>
<path d="M17 21.1666C19.1869 21.1691 21.3017 20.385 22.9583 18.9575C22.5288 17.7193 21.7242 16.6457 20.6564 15.8859C19.5886 15.1261 18.3106 14.7178 17 14.7178C15.6894 14.7178 14.4114 15.1261 13.3436 15.8859C12.2758 16.6457 11.4712 17.7193 11.0417 18.9575C12.6983 20.385 14.8131 21.1691 17 21.1666Z" fill="#0660FC"/>
<defs>
<linearGradient id="paint0_linear_135_25712" x1="15.3455" y1="12" x2="-3.65454" y2="10" gradientUnits="userSpaceOnUse">
<stop stop-color="#0660FC" stop-opacity="0"/>
<stop offset="1" stop-color="#0660FC" stop-opacity="0.08"/>
</linearGradient>
</defs>
</svg>
