<svg width="18" height="18" viewBox="0 0 18 18" fill="none" xmlns="http://www.w3.org/2000/svg">
<path opacity="0.2" d="M9 16.5C13.1421 16.5 16.5 13.1421 16.5 9C16.5 4.85786 13.1421 1.5 9 1.5C4.85786 1.5 1.5 4.85786 1.5 9C1.5 13.1421 4.85786 16.5 9 16.5Z" fill="white"/>
<path d="M12 8.4375H9.5625V6C9.5625 5.6925 9.3075 5.4375 9 5.4375C8.6925 5.4375 8.4375 5.6925 8.4375 6V8.4375H6C5.6925 8.4375 5.4375 8.6925 5.4375 9C5.4375 9.3075 5.6925 9.5625 6 9.5625H8.4375V12C8.4375 12.3075 8.6925 12.5625 9 12.5625C9.3075 12.5625 9.5625 12.3075 9.5625 12V9.5625H12C12.3075 9.5625 12.5625 9.3075 12.5625 9C12.5625 8.6925 12.3075 8.4375 12 8.4375Z" fill="white"/>
</svg>
