<svg width="50" height="50" viewBox="0 0 50 50" fill="none" xmlns="http://www.w3.org/2000/svg">
<g opacity="0.3">
<path d="M25 24.8332C30.7069 24.8332 35.3333 20.2068 35.3333 14.4998C35.3333 8.79289 30.7069 4.1665 25 4.1665C19.293 4.1665 14.6666 8.79289 14.6666 14.4998C14.6666 20.2068 19.293 24.8332 25 24.8332Z" fill="#A1A5B7"/>
</g>
<path d="M41.0417 45.833C41.3822 45.8523 41.723 45.7981 42.0407 45.6739C42.3584 45.5497 42.6456 45.3586 42.8829 45.1134C43.1201 44.8683 43.3017 44.575 43.4154 44.2534C43.5291 43.9318 43.5721 43.5894 43.5417 43.2497C42.2083 35.4163 34.4167 29.3955 25 29.3955C15.5833 29.3955 7.79168 35.4163 6.45835 43.2497C6.42788 43.5894 6.47095 43.9318 6.58464 44.2534C6.69832 44.575 6.87996 44.8683 7.11717 45.1134C7.35439 45.3586 7.64163 45.5497 7.95934 45.6739C8.27705 45.7981 8.61778 45.8523 8.95835 45.833H41.0417Z" fill="#A1A5B7"/>
</svg>
