      <svg width="91" height="30" viewBox="0 0 91 30" fill="none" xmlns="http://www.w3.org/2000/svg">
<rect width="91" height="30" rx="7" fill="#EEF4FF"/>
<rect x="0.375" y="0.375" width="90.25" height="29.25" rx="6.625" stroke="#0660FC" stroke-opacity="0.2" stroke-width="0.75"/>
<path opacity="0.2" d="M18.7933 8.33331H13.2067C10.78 8.33331 9.33333 9.77998 9.33333 12.2066V17.7866C9.33333 20.22 10.78 21.6666 13.2067 21.6666H18.7867C21.2133 21.6666 22.66 20.22 22.66 17.7933V12.2066C22.6667 9.77998 21.22 8.33331 18.7933 8.33331Z" fill="#0660FC"/>
<path d="M20 14.5H16.5V11C16.5 10.7267 16.2733 10.5 16 10.5C15.7267 10.5 15.5 10.7267 15.5 11V14.5H12C11.7267 14.5 11.5 14.7267 11.5 15C11.5 15.2733 11.7267 15.5 12 15.5H15.5V19C15.5 19.2733 15.7267 19.5 16 19.5C16.2733 19.5 16.5 19.2733 16.5 19V15.5H20C20.2733 15.5 20.5 15.2733 20.5 15C20.5 14.7267 20.2733 14.5 20 14.5Z" fill="#0660FC"/>
<path d="M28.312 19L31.408 10.6H32.8L35.872 19H34.528L33.808 16.948H30.376L29.656 19H28.312ZM30.736 15.94H33.448L32.092 12.112L30.736 15.94ZM39.4027 19.144C38.8267 19.144 38.3187 19.008 37.8787 18.736C37.4387 18.464 37.0947 18.092 36.8467 17.62C36.5987 17.148 36.4747 16.612 36.4747 16.012C36.4747 15.412 36.5987 14.88 36.8467 14.416C37.0947 13.944 37.4387 13.576 37.8787 13.312C38.3267 13.04 38.8387 12.904 39.4147 12.904C39.8867 12.904 40.2987 12.996 40.6507 13.18C41.0107 13.364 41.2907 13.624 41.4907 13.96V10.36H42.7627V19H41.6227L41.4907 18.076C41.2987 18.356 41.0347 18.604 40.6987 18.82C40.3627 19.036 39.9307 19.144 39.4027 19.144ZM39.6307 18.04C40.1747 18.04 40.6187 17.852 40.9627 17.476C41.3147 17.1 41.4907 16.616 41.4907 16.024C41.4907 15.424 41.3147 14.94 40.9627 14.572C40.6187 14.196 40.1747 14.008 39.6307 14.008C39.0867 14.008 38.6387 14.196 38.2867 14.572C37.9347 14.94 37.7587 15.424 37.7587 16.024C37.7587 16.416 37.8387 16.764 37.9987 17.068C38.1587 17.372 38.3787 17.612 38.6587 17.788C38.9467 17.956 39.2707 18.04 39.6307 18.04ZM47.0785 19.144C46.5025 19.144 45.9945 19.008 45.5545 18.736C45.1145 18.464 44.7705 18.092 44.5225 17.62C44.2745 17.148 44.1505 16.612 44.1505 16.012C44.1505 15.412 44.2745 14.88 44.5225 14.416C44.7705 13.944 45.1145 13.576 45.5545 13.312C46.0025 13.04 46.5145 12.904 47.0905 12.904C47.5625 12.904 47.9745 12.996 48.3265 13.18C48.6865 13.364 48.9665 13.624 49.1665 13.96V10.36H50.4385V19H49.2985L49.1665 18.076C48.9745 18.356 48.7105 18.604 48.3745 18.82C48.0385 19.036 47.6065 19.144 47.0785 19.144ZM47.3065 18.04C47.8505 18.04 48.2945 17.852 48.6385 17.476C48.9905 17.1 49.1665 16.616 49.1665 16.024C49.1665 15.424 48.9905 14.94 48.6385 14.572C48.2945 14.196 47.8505 14.008 47.3065 14.008C46.7625 14.008 46.3145 14.196 45.9625 14.572C45.6105 14.94 45.4345 15.424 45.4345 16.024C45.4345 16.416 45.5145 16.764 45.6745 17.068C45.8345 17.372 46.0545 17.612 46.3345 17.788C46.6225 17.956 46.9465 18.04 47.3065 18.04ZM55.1137 19V10.6H60.3817V11.632H56.3857V14.284H59.6977V15.304H56.3857V19H55.1137ZM62.3013 11.92C62.0613 11.92 61.8613 11.848 61.7013 11.704C61.5493 11.552 61.4733 11.364 61.4733 11.14C61.4733 10.916 61.5493 10.732 61.7013 10.588C61.8613 10.436 62.0613 10.36 62.3013 10.36C62.5413 10.36 62.7373 10.436 62.8893 10.588C63.0493 10.732 63.1293 10.916 63.1293 11.14C63.1293 11.364 63.0493 11.552 62.8893 11.704C62.7373 11.848 62.5413 11.92 62.3013 11.92ZM61.6653 19V13.048H62.9373V19H61.6653ZM64.6165 19V10.36H65.8885V19H64.6165ZM69.9953 19C69.4113 19 68.9473 18.86 68.6033 18.58C68.2593 18.292 68.0873 17.784 68.0873 17.056V14.116H67.0673V13.048H68.0873L68.2433 11.536H69.3593V13.048H71.0393V14.116H69.3593V17.056C69.3593 17.384 69.4273 17.612 69.5633 17.74C69.7073 17.86 69.9513 17.92 70.2953 17.92H70.9793V19H69.9953ZM74.9825 19.144C74.3985 19.144 73.8785 19.016 73.4225 18.76C72.9745 18.496 72.6225 18.132 72.3665 17.668C72.1105 17.204 71.9825 16.664 71.9825 16.048C71.9825 15.424 72.1065 14.876 72.3545 14.404C72.6105 13.932 72.9625 13.564 73.4105 13.3C73.8665 13.036 74.3945 12.904 74.9945 12.904C75.5785 12.904 76.0865 13.036 76.5185 13.3C76.9505 13.556 77.2865 13.9 77.5265 14.332C77.7665 14.764 77.8865 15.24 77.8865 15.76C77.8865 15.84 77.8825 15.928 77.8745 16.024C77.8745 16.112 77.8705 16.212 77.8625 16.324H73.2305C73.2705 16.9 73.4585 17.34 73.7945 17.644C74.1385 17.94 74.5345 18.088 74.9825 18.088C75.3425 18.088 75.6425 18.008 75.8825 17.848C76.1305 17.68 76.3145 17.456 76.4345 17.176H77.7065C77.5465 17.736 77.2265 18.204 76.7465 18.58C76.2745 18.956 75.6865 19.144 74.9825 19.144ZM74.9825 13.948C74.5585 13.948 74.1825 14.076 73.8545 14.332C73.5265 14.58 73.3265 14.956 73.2545 15.46H76.6145C76.5905 14.996 76.4265 14.628 76.1225 14.356C75.8185 14.084 75.4385 13.948 74.9825 13.948ZM79.2063 19V13.048H80.3463L80.4543 14.176C80.6623 13.784 80.9503 13.476 81.3183 13.252C81.6943 13.02 82.1463 12.904 82.6743 12.904V14.236H82.3263C81.9743 14.236 81.6583 14.296 81.3783 14.416C81.1063 14.528 80.8863 14.724 80.7183 15.004C80.5583 15.276 80.4783 15.656 80.4783 16.144V19H79.2063Z" fill="#0660FC"/>
</svg>
