<svg width="20" height="20" viewBox="0 0 20 20" fill="none" xmlns="http://www.w3.org/2000/svg">
<path opacity="0.3" d="M13.3916 1.6665H6.63329C3.89028 1.6665 1.66663 3.89016 1.66663 6.63317V13.3665C1.66663 16.1095 3.89028 18.3332 6.63329 18.3332H13.3916C16.1346 18.3332 18.3583 16.1095 18.3583 13.3665V6.63317C18.3583 3.89016 16.1346 1.6665 13.3916 1.6665Z" fill="#A1A5B7"/>
<path d="M10.3167 16.1165C10.1509 16.1165 9.99192 16.0507 9.87471 15.9335C9.7575 15.8163 9.69165 15.6573 9.69165 15.4915V12.0332C9.69165 11.8674 9.7575 11.7085 9.87471 11.5913C9.99192 11.4741 10.1509 11.4082 10.3167 11.4082C10.4824 11.4082 10.6414 11.4741 10.7586 11.5913C10.8758 11.7085 10.9417 11.8674 10.9417 12.0332V15.4915C10.9395 15.6566 10.873 15.8143 10.7562 15.9311C10.6395 16.0478 10.4817 16.1144 10.3167 16.1165Z" fill="#A1A5B7"/>
<path d="M6.29993 16.1163C6.13484 16.1141 5.97712 16.0476 5.86037 15.9308C5.74363 15.8141 5.67709 15.6564 5.67493 15.4913V13.0996C5.67493 12.9338 5.74077 12.7749 5.85798 12.6577C5.9752 12.5405 6.13417 12.4746 6.29993 12.4746C6.46569 12.4746 6.62466 12.5405 6.74187 12.6577C6.85908 12.7749 6.92493 12.9338 6.92493 13.0996V15.4913C6.92493 15.657 6.85908 15.816 6.74187 15.9332C6.62466 16.0504 6.46569 16.1163 6.29993 16.1163Z" fill="#A1A5B7"/>
<path d="M14.275 16.1164C14.1099 16.1143 13.9522 16.0477 13.8355 15.931C13.7187 15.8142 13.6522 15.6565 13.65 15.4914V9.80811C13.65 9.64235 13.7159 9.48337 13.8331 9.36616C13.9503 9.24895 14.1093 9.18311 14.275 9.18311C14.4408 9.18311 14.5998 9.24895 14.717 9.36616C14.8342 9.48337 14.9 9.64235 14.9 9.80811V15.4914C14.9 15.6572 14.8342 15.8162 14.717 15.9334C14.5998 16.0506 14.4408 16.1164 14.275 16.1164Z" fill="#A1A5B7"/>
<path d="M14.2749 7.30807C14.1914 7.30809 14.1088 7.29139 14.0318 7.25895C13.9549 7.2265 13.8852 7.17897 13.827 7.11915C13.7687 7.05934 13.723 6.98846 13.6926 6.9107C13.6622 6.83293 13.6477 6.74987 13.6499 6.6664V5.33307H12.3333C12.1675 5.33307 12.0085 5.26722 11.8913 5.15001C11.7741 5.0328 11.7083 4.87383 11.7083 4.70806C11.7083 4.5423 11.7741 4.38333 11.8913 4.26612C12.0085 4.14891 12.1675 4.08306 12.3333 4.08306H14.2749C14.3573 4.08194 14.4391 4.09734 14.5154 4.12836C14.5918 4.15937 14.6611 4.20536 14.7194 4.26363C14.7776 4.32189 14.8236 4.39123 14.8546 4.46757C14.8856 4.5439 14.901 4.62568 14.8999 4.70806V6.6664C14.9033 6.75017 14.8896 6.83375 14.8596 6.91204C14.8296 6.99033 14.784 7.06168 14.7255 7.12174C14.667 7.18179 14.5969 7.22929 14.5194 7.26133C14.4419 7.29336 14.3587 7.30927 14.2749 7.30807Z" fill="#A1A5B7"/>
<path d="M6.50824 10.0663C6.34533 10.0664 6.18883 10.0028 6.07209 9.88917C5.95535 9.77554 5.88758 9.62082 5.88324 9.45796C5.87874 9.37601 5.89086 9.294 5.91889 9.21686C5.94692 9.13972 5.99026 9.06904 6.04632 9.0091C6.10237 8.94915 6.16998 8.90116 6.24507 8.86803C6.32016 8.83489 6.40117 8.8173 6.48324 8.8163C6.65824 8.8163 10.6999 8.63296 13.7666 4.3413C13.8658 4.21477 14.01 4.13137 14.1692 4.10844C14.3284 4.08551 14.4903 4.12482 14.6212 4.21819C14.7521 4.31156 14.842 4.4518 14.8722 4.60976C14.9024 4.76772 14.8705 4.93123 14.7832 5.0663C11.3332 9.88296 6.71657 10.0663 6.51657 10.0663H6.50824Z" fill="#A1A5B7"/>
</svg>
