<svg width="18" height="18" viewBox="0 0 18 18" fill="none" xmlns="http://www.w3.org/2000/svg">
<path d="M13.4999 7.18543C13.5986 7.18485 13.6964 7.20377 13.7878 7.2411C13.8792 7.27842 13.9623 7.33341 14.0324 7.40292C14.1721 7.54345 14.2505 7.73354 14.2505 7.93167C14.2505 8.12981 14.1721 8.3199 14.0324 8.46042L9.53239 12.9604C9.46293 13.0313 9.3801 13.0877 9.28869 13.1263C9.19729 13.1649 9.09912 13.185 8.99989 13.1854C8.90066 13.185 8.8025 13.1649 8.7111 13.1263C8.61969 13.0877 8.53686 13.0313 8.46739 12.9604L3.9674 8.46042C3.82771 8.3199 3.7493 8.12981 3.7493 7.93167C3.7493 7.73353 3.82771 7.54345 3.9674 7.40292C4.03712 7.33263 4.12007 7.27683 4.21146 7.23876C4.30286 7.20068 4.40089 7.18108 4.4999 7.18108C4.5989 7.18108 4.69693 7.20068 4.78833 7.23876C4.87972 7.27683 4.96267 7.33263 5.03239 7.40292L8.99989 11.3404L12.9374 7.40292C13.011 7.32972 13.099 7.27258 13.1958 7.23515C13.2926 7.19771 13.3962 7.18078 13.4999 7.18543Z" fill="#5E6278"/>
</svg>
