<svg width="19" height="18" viewBox="0 0 19 18" fill="none" xmlns="http://www.w3.org/2000/svg">
<path opacity="0.2" d="M6.3575 1.5H12.635C15.3725 1.5 17 3.1275 17 5.8575V12.135C17 14.865 15.3725 16.4925 12.6425 16.4925H6.3575C3.6275 16.5 2 14.8725 2 12.1425V5.8575C2 3.1275 3.6275 1.5 6.3575 1.5Z" fill="white"/>
<path d="M4.6025 8.60249L7.82 5.38499C8.0375 5.16749 8.3975 5.16749 8.615 5.38499C8.8325 5.60249 8.8325 5.96249 8.615 6.17999L6.3575 8.43749H14C14.3075 8.43749 14.5625 8.69249 14.5625 8.99999C14.5625 9.30749 14.3075 9.56249 14 9.56249H6.3575L8.615 11.82C8.8325 12.0375 8.8325 12.3975 8.615 12.615C8.5025 12.7275 8.36 12.78 8.2175 12.78C8.075 12.78 7.9325 12.7275 7.82 12.615L4.6025 9.39749C4.4975 9.29249 4.4375 9.14999 4.4375 8.99999C4.4375 8.84999 4.4975 8.70749 4.6025 8.60249Z" fill="white"/>
</svg>
