<svg width="34" height="34" viewBox="0 0 34 34" fill="none" xmlns="http://www.w3.org/2000/svg">
<rect width="34" height="34" rx="7" fill="white"/>
<rect x="0.375" y="0.375" width="33.25" height="33.25" rx="6.625" stroke="#BFD4E4" stroke-opacity="0.4" stroke-width="0.75"/>
<path opacity="0.2" d="M13.8575 9.5H20.135C22.8725 9.5 24.5 11.1275 24.5 13.8575V20.135C24.5 22.865 22.8725 24.4925 20.1425 24.4925H13.8575C11.1275 24.5 9.5 22.8725 9.5 20.1425V13.8575C9.5 11.1275 11.1275 9.5 13.8575 9.5Z" fill="#7E8299"/>
<path d="M15.6794 12.6875C15.3644 12.6875 15.1169 12.9425 15.1169 13.25V19.3925L13.8644 18.14C13.6469 17.9225 13.2869 17.9225 13.0694 18.14C12.8519 18.3575 12.8519 18.7175 13.0694 18.935L15.2819 21.1475C15.3344 21.2 15.3944 21.2375 15.4619 21.2675C15.5294 21.2975 15.6044 21.3125 15.6794 21.3125C15.7544 21.3125 15.8219 21.2975 15.8969 21.2675C16.0319 21.2075 16.1444 21.1025 16.2044 20.96C16.2344 20.8925 16.2494 20.8175 16.2494 20.7425V13.25C16.2419 12.9425 15.9869 12.6875 15.6794 12.6875Z" fill="#7E8299"/>
<path d="M20.9303 15.065L18.7178 12.8525C18.6653 12.8 18.6053 12.7625 18.5378 12.7325C18.4028 12.6725 18.2453 12.6725 18.1103 12.7325C17.9753 12.7925 17.8628 12.8975 17.8028 13.04C17.7728 13.1075 17.7578 13.175 17.7578 13.25V20.75C17.7578 21.0575 18.0128 21.3125 18.3203 21.3125C18.6278 21.3125 18.8828 21.0575 18.8828 20.75V14.6075L20.1353 15.86C20.2478 15.9725 20.3903 16.025 20.5328 16.025C20.6753 16.025 20.8178 15.9725 20.9303 15.86C21.1478 15.6425 21.1478 15.2825 20.9303 15.065Z" fill="#7E8299"/>
</svg>
