<svg width="495" height="421" viewBox="0 0 495 421" fill="none" xmlns="http://www.w3.org/2000/svg">
<path d="M251.277 379.538C220.559 348.82 197.481 316.704 151.634 307.377C129.489 302.868 108.857 308.324 86.9298 306.893C59.9738 305.126 34.5837 291.378 18.4233 269.754C-11.0882 230.251 -4.02042 172.493 34.0798 141.185C72.3541 109.739 110.878 124.76 154.008 130.27C173.984 132.829 210.024 124.669 205.341 77.6186C204.096 65.1714 206.798 52.4556 212.201 41.1393C235.319 -7.29637 303.666 -14.1887 336.024 28.2891C350.592 47.4408 350.198 72.4015 360.607 93.6996C373.018 119.091 392.404 139.228 417.336 152.061C466.387 177.279 496.924 229.907 494.447 284.978C488.982 406.267 336.913 465.174 251.277 379.538Z" fill="url(#paint0_linear_743_25983)"/>
<defs>
<linearGradient id="paint0_linear_743_25983" x1="507.217" y1="253.455" x2="41.6964" y2="127.242" gradientUnits="userSpaceOnUse">
<stop stop-color="#0660FC"/>
<stop offset="1" stop-color="#01CCFF"/>
</linearGradient>
</defs>
</svg>
