<svg width="20" height="20" viewBox="0 0 20 20" fill="none" xmlns="http://www.w3.org/2000/svg">
<g opacity="0.3">
<path d="M7.15768 4.76741L5.91215 10.21C5.41728 12.3725 6.76912 14.5267 8.93156 15.0215L12.2053 15.7707C14.3677 16.2656 16.5219 14.9137 17.0167 12.7513L18.2623 7.30866C18.7571 5.14622 17.4053 2.99204 15.2429 2.49717L11.9692 1.748C9.80672 1.25313 7.65255 2.60496 7.15768 4.76741Z" fill="#A1A5B7"/>
</g>
<path d="M12.2 15.767L8.93338 15.0003C7.89394 14.762 6.99157 14.1209 6.42441 13.2178C5.85725 12.3147 5.67165 11.2235 5.90838 10.1837L7.15838 4.74199C7.23847 4.45418 7.3532 4.17715 7.50005 3.91699L4.55005 4.75033C4.04813 4.89507 3.57967 5.13733 3.17144 5.46325C2.76321 5.78917 2.42323 6.19235 2.17092 6.64975C1.91862 7.10715 1.75894 7.60979 1.70102 8.12894C1.6431 8.64809 1.68808 9.17357 1.83338 9.67533L3.27505 14.6753C3.56082 15.6879 4.23562 16.5463 5.15212 17.0631C6.06861 17.5799 7.15235 17.7131 8.16671 17.4337L11.6084 16.442C12.0363 16.306 12.4389 16.1004 12.8 15.8337C12.5986 15.8278 12.3979 15.8055 12.2 15.767Z" fill="#A1A5B7"/>
<path d="M14.5001 8.67535C14.4476 8.68311 14.3942 8.68311 14.3417 8.67535L10.4251 7.67535C10.2637 7.63446 10.1252 7.53116 10.0401 7.38816C9.95488 7.24517 9.93001 7.07419 9.97089 6.91285C10.0118 6.75151 10.1151 6.61302 10.2581 6.52785C10.4011 6.44268 10.5721 6.4178 10.7334 6.45869L14.6584 7.46702C14.8016 7.50861 14.9252 7.60004 15.0069 7.7248C15.0887 7.84957 15.1231 7.99943 15.1039 8.14734C15.0848 8.29524 15.0134 8.43144 14.9027 8.53133C14.792 8.63121 14.6491 8.68821 14.5001 8.69202V8.67535Z" fill="#A1A5B7"/>
<path d="M12.075 11.5171H11.9167L9.59999 10.9171C9.43865 10.8762 9.30016 10.7729 9.21498 10.6299C9.12981 10.4869 9.10493 10.3159 9.14582 10.1546C9.18671 9.99321 9.29001 9.85472 9.43301 9.76955C9.576 9.68438 9.74698 9.6595 9.90832 9.70039L12.2333 10.3087C12.3933 10.35 12.5305 10.4529 12.6149 10.595C12.6992 10.7371 12.7238 10.9068 12.6833 11.0671C12.6427 11.1968 12.5619 11.3104 12.4525 11.3913C12.3432 11.4721 12.211 11.5162 12.075 11.5171Z" fill="#A1A5B7"/>
</svg>
