<svg width="20" height="20" viewBox="0 0 20 20" fill="none" xmlns="http://www.w3.org/2000/svg">
<path d="M6.80831 7.89987H4.99998C4.9105 7.91463 4.81889 7.90974 4.73149 7.88555C4.6441 7.86135 4.56302 7.81843 4.49387 7.75975C4.42473 7.70108 4.36918 7.62807 4.33108 7.54577C4.29299 7.46348 4.27325 7.37389 4.27325 7.2832C4.27325 7.19252 4.29299 7.10292 4.33108 7.02063C4.36918 6.93834 4.42473 6.86533 4.49387 6.80665C4.56302 6.74798 4.6441 6.70506 4.73149 6.68086C4.81889 6.65667 4.9105 6.65178 4.99998 6.66654H6.80831C6.97407 6.66654 7.13304 6.73238 7.25025 6.8496C7.36746 6.96681 7.43331 7.12578 7.43331 7.29154C7.43331 7.4573 7.36746 7.61627 7.25025 7.73348C7.13304 7.85069 6.97407 7.91654 6.80831 7.91654V7.89987Z" fill="#A1A5B7"/>
<path d="M10.2166 7.8999H9.08331C8.91755 7.8999 8.75858 7.83405 8.64137 7.71684C8.52416 7.59963 8.45831 7.44066 8.45831 7.2749C8.45831 7.10914 8.52416 6.95017 8.64137 6.83296C8.75858 6.71575 8.91755 6.6499 9.08331 6.6499H10.2166C10.3824 6.6499 10.5414 6.71575 10.6586 6.83296C10.7758 6.95017 10.8416 7.10914 10.8416 7.2749C10.8416 7.44066 10.7758 7.59963 10.6586 7.71684C10.5414 7.83405 10.3824 7.8999 10.2166 7.8999Z" fill="#A1A5B7"/>
<path d="M6.80833 10.6249H5C4.83424 10.6249 4.67527 10.559 4.55806 10.4418C4.44085 10.3246 4.375 10.1656 4.375 9.99988C4.375 9.83412 4.44085 9.67515 4.55806 9.55794C4.67527 9.44073 4.83424 9.37488 5 9.37488H6.80833C6.97409 9.37488 7.13306 9.44073 7.25027 9.55794C7.36749 9.67515 7.43333 9.83412 7.43333 9.99988C7.43333 10.1656 7.36749 10.3246 7.25027 10.4418C7.13306 10.559 6.97409 10.6249 6.80833 10.6249Z" fill="#A1A5B7"/>
<path d="M10.2166 13.3333H8.33331C8.16755 13.3333 8.00858 13.2674 7.89137 13.1502C7.77416 13.033 7.70831 12.874 7.70831 12.7083C7.70831 12.5425 7.77416 12.3835 7.89137 12.2663C8.00858 12.1491 8.16755 12.0833 8.33331 12.0833H10.1833C10.3491 12.0833 10.508 12.1491 10.6253 12.2663C10.7425 12.3835 10.8083 12.5425 10.8083 12.7083C10.8083 12.874 10.7425 13.033 10.6253 13.1502C10.508 13.2674 10.3491 13.3333 10.1833 13.3333H10.2166Z" fill="#A1A5B7"/>
<path d="M10.2166 10.6249H9.08331C8.91755 10.6249 8.75858 10.559 8.64137 10.4418C8.52416 10.3246 8.45831 10.1656 8.45831 9.99988C8.45831 9.83412 8.52416 9.67515 8.64137 9.55794C8.75858 9.44073 8.91755 9.37488 9.08331 9.37488H10.2166C10.3824 9.37488 10.5414 9.44073 10.6586 9.55794C10.7758 9.67515 10.8416 9.83412 10.8416 9.99988C10.8416 10.1656 10.7758 10.3246 10.6586 10.4418C10.5414 10.559 10.3824 10.6249 10.2166 10.6249Z" fill="#A1A5B7"/>
<path opacity="0.3" d="M12.825 15.7833V2.86665C12.8286 2.73043 12.7941 2.5959 12.7255 2.47817C12.6569 2.36043 12.5568 2.26415 12.4365 2.20011C12.3162 2.13607 12.1805 2.10682 12.0445 2.11563C11.9085 2.12444 11.7777 2.17096 11.6667 2.24998L10.6583 2.89998C10.535 2.98239 10.39 3.02637 10.2417 3.02637C10.0933 3.02637 9.94833 2.98239 9.825 2.89998L8.15833 1.78332C8.03541 1.69984 7.89025 1.65521 7.74167 1.65521C7.59308 1.65521 7.44792 1.69984 7.325 1.78332L5.7 3.03332C5.57708 3.11679 5.43192 3.16142 5.28333 3.16142C5.13475 3.16142 4.98959 3.11679 4.86667 3.03332L3.79167 2.31665C3.68047 2.2389 3.55008 2.19314 3.41468 2.18436C3.27928 2.17558 3.14407 2.2041 3.02376 2.26684C2.90345 2.32957 2.80265 2.4241 2.73234 2.54015C2.66203 2.65619 2.62491 2.7893 2.625 2.92498V4.59165V15.7833C2.625 16.4596 2.89366 17.1082 3.37188 17.5864C3.8501 18.0647 4.4987 18.3333 5.175 18.3333H15.375C14.6987 18.3333 14.0501 18.0647 13.5719 17.5864C13.0937 17.1082 12.825 16.4596 12.825 15.7833Z" fill="#A1A5B7"/>
<path d="M17.9167 13.3333C17.9224 13.1074 17.8821 12.8827 17.7983 12.6729C17.7145 12.463 17.5888 12.2724 17.4291 12.1126C17.2693 11.9528 17.0787 11.8272 16.8688 11.7434C16.659 11.6595 16.4343 11.6193 16.2083 11.625H12.8167V13.8833V15.7C12.8062 16.3011 13.0037 16.8874 13.3757 17.3596C13.7477 17.8319 14.2715 18.1611 14.8583 18.2917C15.2284 18.3672 15.6107 18.3593 15.9773 18.2686C16.344 18.1778 16.6858 18.0065 16.9779 17.767C17.2701 17.5276 17.5051 17.2261 17.6661 16.8844C17.827 16.5426 17.9098 16.1694 17.9083 15.7917V13.875L17.9167 13.3333Z" fill="#A1A5B7"/>
</svg>
