<svg width="20" height="20" viewBox="0 0 20 20" fill="none" xmlns="http://www.w3.org/2000/svg">
<path d="M18.3332 10.7166C18.3332 12.6249 17.3499 14.3166 15.8332 15.3833L14.7166 17.8416C14.4582 18.3999 13.7082 18.5083 13.3166 18.0333L12.0832 16.5499C10.5332 16.5499 9.10824 16.0249 8.0249 15.1499L8.5249 14.5583C12.3749 14.2666 15.4166 11.2166 15.4166 7.49993C15.4166 6.8666 15.3249 6.2416 15.1582 5.6416C17.0499 6.6416 18.3332 8.5416 18.3332 10.7166Z" fill="#A1A5B7"/>
<path opacity="0.3" d="M13.5833 5.05817C12.6083 3.05817 10.4333 1.6665 7.91663 1.6665C4.46663 1.6665 1.66663 4.27484 1.66663 7.49984C1.66663 9.40817 2.64996 11.0998 4.16663 12.1665L5.28329 14.6248C5.54163 15.1832 6.29163 15.2832 6.68329 14.8165L7.14163 14.2665L7.91663 13.3332C11.3666 13.3332 14.1666 10.7248 14.1666 7.49984C14.1666 6.62484 13.9583 5.79984 13.5833 5.05817ZM9.99996 8.12484H5.83329C5.49163 8.12484 5.20829 7.8415 5.20829 7.49984C5.20829 7.15817 5.49163 6.87484 5.83329 6.87484H9.99996C10.3416 6.87484 10.625 7.15817 10.625 7.49984C10.625 7.8415 10.3416 8.12484 9.99996 8.12484Z" fill="#A1A5B7"/>
</svg>
