<svg width="24" height="24" viewBox="0 0 24 24" fill="none" xmlns="http://www.w3.org/2000/svg">
<path opacity="0.2" d="M16.19 2H7.81C4.60123 2 2 4.60123 2 7.81V16.19C2 19.3988 4.60123 22 7.81 22H16.19C19.3988 22 22 19.3988 22 16.19V7.81C22 4.60123 19.3988 2 16.19 2Z" fill="white"/>
<path d="M13.41 11.9997L16.24 9.1697C16.3447 9.08005 16.4297 8.96974 16.4898 8.84567C16.5498 8.72161 16.5835 8.58647 16.5888 8.44875C16.5941 8.31103 16.5709 8.1737 16.5207 8.04538C16.4704 7.91705 16.3941 7.8005 16.2967 7.70305C16.1992 7.60559 16.0827 7.52934 15.9544 7.47906C15.826 7.42879 15.6887 7.40558 15.551 7.4109C15.4133 7.41622 15.2781 7.44995 15.1541 7.50997C15.03 7.57 14.9197 7.65502 14.83 7.7597L12 10.5897L9.17003 7.7597C8.97873 7.59587 8.73265 7.51027 8.48098 7.51999C8.2293 7.52971 7.99056 7.63404 7.81247 7.81214C7.63437 7.99023 7.53004 8.22897 7.52032 8.48065C7.5106 8.73232 7.5962 8.9784 7.76003 9.1697L10.59 11.9997L7.76003 14.8297C7.57378 15.0171 7.46924 15.2705 7.46924 15.5347C7.46924 15.7989 7.57378 16.0523 7.76003 16.2397C7.94739 16.426 8.20085 16.5305 8.46503 16.5305C8.72922 16.5305 8.98267 16.426 9.17003 16.2397L12 13.4097L14.83 16.2397C15.0174 16.426 15.2708 16.5305 15.535 16.5305C15.7992 16.5305 16.0527 16.426 16.24 16.2397C16.4263 16.0523 16.5308 15.7989 16.5308 15.5347C16.5308 15.2705 16.4263 15.0171 16.24 14.8297L13.41 11.9997Z" fill="white"/>
</svg>
