<svg width="18" height="18" viewBox="0 0 18 18" fill="none" xmlns="http://www.w3.org/2000/svg">
<path d="M6.26663 0.666504H2.14163C1.32701 0.666504 0.666626 1.32688 0.666626 2.1415V6.2665C0.666626 7.08112 1.32701 7.7415 2.14163 7.7415H6.26663C7.08125 7.7415 7.74163 7.08112 7.74163 6.2665V2.1415C7.74163 1.32688 7.08125 0.666504 6.26663 0.666504Z" fill="#A1A5B7"/>
<g opacity="0.3">
<path d="M15.8583 0.666504H11.7333C10.9187 0.666504 10.2583 1.32688 10.2583 2.1415V6.2665C10.2583 7.08112 10.9187 7.7415 11.7333 7.7415H15.8583C16.6729 7.7415 17.3333 7.08112 17.3333 6.2665V2.1415C17.3333 1.32688 16.6729 0.666504 15.8583 0.666504Z" fill="#A1A5B7"/>
</g>
<path d="M15.85 10.25H11.725C10.9104 10.25 10.25 10.9104 10.25 11.725V15.85C10.25 16.6646 10.9104 17.325 11.725 17.325H15.85C16.6646 17.325 17.325 16.6646 17.325 15.85V11.725C17.325 10.9104 16.6646 10.25 15.85 10.25Z" fill="#A1A5B7"/>
<g opacity="0.3">
<path d="M6.26663 10.25H2.14163C1.32701 10.25 0.666626 10.9104 0.666626 11.725V15.85C0.666626 16.6646 1.32701 17.325 2.14163 17.325H6.26663C7.08125 17.325 7.74163 16.6646 7.74163 15.85V11.725C7.74163 10.9104 7.08125 10.25 6.26663 10.25Z" fill="#A1A5B7"/>
</g>
</svg>
