<svg width="333" height="124" viewBox="0 0 333 124" fill="none" xmlns="http://www.w3.org/2000/svg">
<rect y="0.244629" width="332.35" height="123.093" rx="14.7711" fill="white"/>
<rect x="0.461598" y="0.706227" width="331.427" height="122.17" rx="14.3095" stroke="#BFD4E4" stroke-opacity="0.4" stroke-width="0.923195"/>
<rect x="19.8851" y="17.4775" width="29.5423" height="29.5423" rx="14.7711" fill="url(#paint0_linear_574_3526)"/>
<path d="M62.7853 37.2488V26.909H64.3511L69.5357 34.6934V26.909H71.1015V37.2488H69.5357L64.3511 29.4644V37.2488H62.7853ZM76.4202 37.426C75.7014 37.426 75.0613 37.2685 74.5 36.9534C73.9485 36.6284 73.5152 36.1803 73.2001 35.6092C72.885 35.038 72.7274 34.3733 72.7274 33.6151C72.7274 32.847 72.8801 32.1724 73.1853 31.5914C73.5005 31.0104 73.9338 30.5575 74.4852 30.2325C75.0465 29.9075 75.6964 29.745 76.435 29.745C77.1539 29.745 77.7792 29.9075 78.3109 30.2325C78.8427 30.5476 79.2563 30.9711 79.5517 31.5028C79.8471 32.0346 79.9948 32.6205 79.9948 33.2606C79.9948 33.359 79.9899 33.4674 79.9801 33.5855C79.9801 33.6939 79.9751 33.817 79.9653 33.9548H74.2636C74.3129 34.6638 74.5443 35.2054 74.9579 35.5796C75.3813 35.944 75.8688 36.1262 76.4202 36.1262C76.8634 36.1262 77.2326 36.0277 77.5281 35.8308C77.8333 35.624 78.0598 35.3482 78.2075 35.0036H79.7733C79.5763 35.6929 79.1824 36.269 78.5916 36.7318C78.0106 37.1946 77.2868 37.426 76.4202 37.426ZM76.4202 31.0301C75.8983 31.0301 75.4355 31.1877 75.0317 31.5028C74.628 31.8081 74.3818 32.2709 74.2932 32.8913H78.4291C78.3996 32.3201 78.1977 31.8672 77.8235 31.5324C77.4493 31.1975 76.9815 31.0301 76.4202 31.0301ZM82.6456 37.2488L80.489 29.9223H82.0547L83.4727 35.4467L85.068 29.9223H86.811L88.4063 35.4467L89.8243 29.9223H91.3901L89.2335 37.2488H87.6234L85.9395 31.488L84.2556 37.2488H82.6456ZM99.2228 37.2488L95.3971 26.909H97.0662L100.168 35.624L103.285 26.909H104.939L101.114 37.2488H99.2228ZM106.942 28.5338C106.647 28.5338 106.4 28.4452 106.204 28.2679C106.016 28.0808 105.923 27.8494 105.923 27.5737C105.923 27.298 106.016 27.0715 106.204 26.8942C106.4 26.7071 106.647 26.6136 106.942 26.6136C107.238 26.6136 107.479 26.7071 107.666 26.8942C107.863 27.0715 107.961 27.298 107.961 27.5737C107.961 27.8494 107.863 28.0808 107.666 28.2679C107.479 28.4452 107.238 28.5338 106.942 28.5338ZM106.159 37.2488V29.9223H107.725V37.2488H106.159ZM112.569 37.426C111.643 37.426 110.88 37.1995 110.279 36.7466C109.679 36.2936 109.334 35.6929 109.245 34.9445H110.826C110.905 35.2793 111.092 35.5698 111.387 35.816C111.683 36.0523 112.072 36.1705 112.554 36.1705C113.027 36.1705 113.371 36.072 113.588 35.8751C113.805 35.6781 113.913 35.4516 113.913 35.1956C113.913 34.8214 113.76 34.5703 113.455 34.4423C113.16 34.3044 112.746 34.1813 112.214 34.073C111.801 33.9844 111.387 33.8662 110.974 33.7185C110.57 33.5708 110.23 33.364 109.954 33.0981C109.688 32.8224 109.556 32.4531 109.556 31.9903C109.556 31.3502 109.802 30.8184 110.294 30.395C110.786 29.9617 111.476 29.745 112.362 29.745C113.179 29.745 113.839 29.942 114.341 30.3359C114.853 30.7298 115.154 31.2862 115.242 32.005H113.736C113.687 31.6899 113.539 31.4437 113.293 31.2665C113.056 31.0892 112.736 31.0006 112.333 31.0006C111.939 31.0006 111.633 31.0843 111.417 31.2517C111.2 31.4093 111.092 31.6161 111.092 31.8721C111.092 32.1281 111.239 32.33 111.535 32.4777C111.84 32.6254 112.239 32.7584 112.731 32.8765C113.224 32.9848 113.677 33.1129 114.09 33.2606C114.514 33.3984 114.853 33.6052 115.109 33.881C115.366 34.1567 115.494 34.5604 115.494 35.0922C115.503 35.7618 115.242 36.3182 114.711 36.7613C114.189 37.2045 113.475 37.426 112.569 37.426ZM117.941 28.5338C117.646 28.5338 117.4 28.4452 117.203 28.2679C117.016 28.0808 116.922 27.8494 116.922 27.5737C116.922 27.298 117.016 27.0715 117.203 26.8942C117.4 26.7071 117.646 26.6136 117.941 26.6136C118.237 26.6136 118.478 26.7071 118.665 26.8942C118.862 27.0715 118.961 27.298 118.961 27.5737C118.961 27.8494 118.862 28.0808 118.665 28.2679C118.478 28.4452 118.237 28.5338 117.941 28.5338ZM117.159 37.2488V29.9223H118.724V37.2488H117.159ZM123.716 37.2488C122.997 37.2488 122.426 37.0764 122.002 36.7318C121.579 36.3773 121.367 35.752 121.367 34.8559V31.2369H120.112V29.9223H121.367L121.559 28.0611H122.933V29.9223H125.001V31.2369H122.933V34.8559C122.933 35.2596 123.017 35.5403 123.184 35.6978C123.361 35.8455 123.662 35.9194 124.085 35.9194H124.927V37.2488H123.716ZM129.707 37.426C129.008 37.426 128.378 37.2685 127.816 36.9534C127.265 36.6284 126.827 36.1803 126.502 35.6092C126.177 35.0282 126.014 34.3536 126.014 33.5855C126.014 32.8174 126.177 32.1478 126.502 31.5767C126.837 30.9957 127.285 30.5476 127.846 30.2325C128.407 29.9075 129.033 29.745 129.722 29.745C130.421 29.745 131.046 29.9075 131.598 30.2325C132.159 30.5476 132.602 30.9957 132.927 31.5767C133.262 32.1478 133.429 32.8174 133.429 33.5855C133.429 34.3536 133.262 35.0282 132.927 35.6092C132.602 36.1803 132.159 36.6284 131.598 36.9534C131.036 37.2685 130.406 37.426 129.707 37.426ZM129.707 36.0819C130.081 36.0819 130.426 35.9883 130.741 35.8012C131.066 35.6141 131.327 35.3384 131.524 34.974C131.721 34.5998 131.819 34.137 131.819 33.5855C131.819 33.0341 131.721 32.5762 131.524 32.2118C131.337 31.8376 131.081 31.557 130.756 31.3699C130.441 31.1828 130.096 31.0892 129.722 31.0892C129.348 31.0892 128.998 31.1828 128.673 31.3699C128.358 31.557 128.102 31.8376 127.905 32.2118C127.708 32.5762 127.61 33.0341 127.61 33.5855C127.61 34.137 127.708 34.5998 127.905 34.974C128.102 35.3384 128.358 35.6141 128.673 35.8012C128.988 35.9883 129.333 36.0819 129.707 36.0819ZM134.975 37.2488V29.9223H136.378L136.511 31.3108C136.767 30.8283 137.122 30.4491 137.575 30.1734C138.037 29.8878 138.594 29.745 139.244 29.745V31.3846H138.815C138.382 31.3846 137.993 31.4585 137.649 31.6062C137.314 31.7441 137.043 31.9853 136.836 32.33C136.639 32.6648 136.541 33.1326 136.541 33.7333V37.2488H134.975ZM143.363 37.426C142.438 37.426 141.674 37.1995 141.074 36.7466C140.473 36.2936 140.128 35.6929 140.04 34.9445H141.62C141.699 35.2793 141.886 35.5698 142.182 35.816C142.477 36.0523 142.866 36.1705 143.348 36.1705C143.821 36.1705 144.166 36.072 144.382 35.8751C144.599 35.6781 144.707 35.4516 144.707 35.1956C144.707 34.8214 144.555 34.5703 144.249 34.4423C143.954 34.3044 143.54 34.1813 143.009 34.073C142.595 33.9844 142.182 33.8662 141.768 33.7185C141.364 33.5708 141.024 33.364 140.749 33.0981C140.483 32.8224 140.35 32.4531 140.35 31.9903C140.35 31.3502 140.596 30.8184 141.088 30.395C141.581 29.9617 142.27 29.745 143.156 29.745C143.974 29.745 144.634 29.942 145.136 30.3359C145.648 30.7298 145.948 31.2862 146.037 32.005H144.53C144.481 31.6899 144.333 31.4437 144.087 31.2665C143.851 31.0892 143.531 31.0006 143.127 31.0006C142.733 31.0006 142.428 31.0843 142.211 31.2517C141.994 31.4093 141.886 31.6161 141.886 31.8721C141.886 32.1281 142.034 32.33 142.329 32.4777C142.634 32.6254 143.033 32.7584 143.526 32.8765C144.018 32.9848 144.471 33.1129 144.885 33.2606C145.308 33.3984 145.648 33.6052 145.904 33.881C146.16 34.1567 146.288 34.5604 146.288 35.0922C146.298 35.7618 146.037 36.3182 145.505 36.7613C144.983 37.2045 144.269 37.426 143.363 37.426Z" fill="#3F4254"/>
<path d="M37.9647 31.4949C41.0494 31.4949 43.55 28.9942 43.55 25.9096C43.55 22.8249 41.0494 20.3242 37.9647 20.3242C34.88 20.3242 32.3793 22.8249 32.3793 25.9096C32.3793 28.9942 34.88 31.4949 37.9647 31.4949Z" fill="#0660FC"/>
<path d="M44.6674 32.6685C43.7724 32.6685 42.8975 32.9347 42.1541 33.4332C41.4107 33.9317 40.8323 34.6399 40.4924 35.4679C40.1526 36.2959 40.0665 37.2063 40.2453 38.0833C40.4241 38.9604 40.8596 39.7644 41.4964 40.3933C42.1333 41.0222 42.9428 41.4476 43.822 41.6153C44.7012 41.783 45.6104 41.6856 46.4341 41.3353C47.2577 40.985 47.9587 40.3977 48.4477 39.6481C48.9368 38.8985 49.192 38.0204 49.1808 37.1254C49.166 35.9382 48.6839 34.8047 47.8391 33.9704C46.9943 33.1361 45.8547 32.6684 44.6674 32.6685ZM47.0595 36.55L45.1526 38.9872C45.0733 39.0846 44.9736 39.1633 44.8605 39.2179C44.7474 39.2725 44.6237 39.3016 44.4982 39.3032C44.3695 39.3036 44.2424 39.2743 44.127 39.2175C44.0115 39.1608 43.9107 39.0781 43.8324 38.9759L42.4671 37.1819C42.3444 37.0101 42.2913 36.7982 42.3185 36.5888C42.3457 36.3795 42.4512 36.1882 42.6138 36.0535C42.7856 35.9308 42.9975 35.8777 43.2068 35.9049C43.4162 35.9321 43.6075 36.0376 43.7422 36.2002L44.453 37.1029L45.6942 35.5232C45.7616 35.4365 45.8455 35.3639 45.9409 35.3097C46.0364 35.2554 46.1416 35.2204 46.2506 35.2068C46.3595 35.1932 46.4701 35.2012 46.576 35.2303C46.6819 35.2594 46.781 35.3091 46.8677 35.3765C46.9544 35.4439 47.0269 35.5278 47.0812 35.6232C47.1355 35.7187 47.1704 35.8239 47.1841 35.9329C47.1977 36.0418 47.1897 36.1524 47.1606 36.2583C47.1315 36.3642 47.0818 36.4633 47.0144 36.55H47.0595Z" fill="#0660FC"/>
<g opacity="0.3">
<path d="M47.973 41.4358C47.7215 40.0287 47.1025 38.713 46.179 37.622L45.1522 38.9309C45.0729 39.0283 44.9732 39.107 44.8601 39.1616C44.747 39.2162 44.6233 39.2453 44.4977 39.2468C44.3691 39.2473 44.242 39.218 44.1265 39.1612C44.0111 39.1045 43.9103 39.0218 43.832 38.9196L42.4667 37.182C42.3773 37.0665 42.3207 36.929 42.3028 36.7841C42.2849 36.6391 42.3065 36.492 42.3651 36.3583C42.3091 36.2278 42.2882 36.0849 42.3046 35.9438C42.3209 35.8027 42.374 35.6684 42.4585 35.5542C42.543 35.4401 42.6559 35.35 42.786 35.2931C42.9162 35.2362 43.0589 35.2144 43.2001 35.2299C41.5825 34.3922 39.7862 33.9586 37.9646 33.9662C32.8983 33.9549 28.6783 37.182 27.9561 41.4358C27.9394 41.6194 27.9627 41.8043 28.0243 41.978C28.086 42.1517 28.1846 42.3099 28.3133 42.4418C28.442 42.5738 28.5977 42.6762 28.7698 42.7421C28.9419 42.8081 29.1263 42.8359 29.3101 42.8237H46.6303C46.8133 42.8342 46.9964 42.8051 47.1671 42.7384C47.3378 42.6717 47.4921 42.569 47.6196 42.4373C47.747 42.3056 47.8445 42.148 47.9055 41.9751C47.9665 41.8023 47.9896 41.6184 47.973 41.4358Z" fill="#0660FC"/>
</g>
<path d="M21.0151 75.3291V73.2685C21.9604 72.4857 22.8762 71.7102 23.7625 70.9421C24.6635 70.174 25.4612 69.4133 26.1554 68.6599C26.8644 67.9066 27.4257 67.1754 27.8393 66.4664C28.2677 65.7426 28.4819 65.041 28.4819 64.3615C28.4819 63.7264 28.3046 63.1651 27.9501 62.6776C27.6104 62.1902 27.0417 61.9465 26.244 61.9465C25.4316 61.9465 24.8186 62.2123 24.405 62.7441C23.9914 63.2759 23.7846 63.9184 23.7846 64.6717H21.0372C21.0668 63.5344 21.3179 62.589 21.7905 61.8357C22.2632 61.0676 22.891 60.4989 23.6739 60.1296C24.4567 59.7456 25.3356 59.5535 26.3105 59.5535C27.891 59.5535 29.117 59.9893 29.9885 60.8608C30.8748 61.7175 31.3179 62.8327 31.3179 64.2064C31.3179 65.0632 31.1185 65.8977 30.7197 66.7101C30.3356 67.5226 29.826 68.3054 29.1909 69.0588C28.5557 69.8121 27.8689 70.5211 27.1303 71.1858C26.3918 71.8357 25.6754 72.4413 24.9811 73.0026H31.6946V75.3291H21.0151ZM32.8531 77.8993L34.1161 72.3823H36.8635L34.7143 77.8993H32.8531ZM44.739 75.595C43.6016 75.595 42.6193 75.3956 41.7921 74.9968C40.9797 74.5979 40.3372 74.0514 39.8645 73.3572C39.4066 72.6481 39.1407 71.8505 39.0669 70.9642H41.8365C41.9694 71.5994 42.2944 72.1312 42.8114 72.5595C43.3283 72.9731 43.9709 73.1799 44.739 73.1799C45.5662 73.1799 46.2383 72.8771 46.7552 72.2715C47.287 71.6659 47.5529 70.9125 47.5529 70.0115C47.5529 69.0809 47.287 68.3424 46.7552 67.7958C46.2383 67.2493 45.5809 66.976 44.7833 66.976C44.1186 66.976 43.5425 67.1385 43.0551 67.4635C42.5676 67.7884 42.2205 68.1946 42.0137 68.6821H39.2884L40.6178 59.8194H49.2146V62.301H42.7449L42.0359 65.8904C42.3608 65.5358 42.804 65.2478 43.3653 65.0262C43.9266 64.7899 44.5543 64.6717 45.2486 64.6717C46.3564 64.6717 47.2796 64.9228 48.0182 65.4251C48.7567 65.9125 49.318 66.5624 49.7021 67.3749C50.0861 68.1725 50.2782 69.044 50.2782 69.9893C50.2782 71.0676 50.0418 72.0278 49.5691 72.8697C49.1112 73.7117 48.4613 74.3764 47.6194 74.8638C46.7922 75.3513 45.8321 75.595 44.739 75.595ZM59.2764 75.595C57.8436 75.595 56.6176 75.2626 55.5984 74.5979C54.5792 73.9185 53.7889 72.9805 53.2276 71.784C52.6811 70.5728 52.4078 69.1695 52.4078 67.5743C52.4078 65.9938 52.6811 64.5979 53.2276 63.3866C53.7889 62.1754 54.5792 61.2374 55.5984 60.5727C56.6176 59.8933 57.8436 59.5535 59.2764 59.5535C60.7092 59.5535 61.9352 59.8933 62.9544 60.5727C63.9736 61.2374 64.7565 62.1754 65.303 63.3866C65.8643 64.5979 66.1449 65.9938 66.1449 67.5743C66.1449 69.1695 65.8643 70.5728 65.303 71.784C64.7565 72.9805 63.9736 73.9185 62.9544 74.5979C61.9352 75.2626 60.7092 75.595 59.2764 75.595ZM59.2764 73.047C60.4433 73.047 61.396 72.5595 62.1346 71.5846C62.8731 70.6097 63.2424 69.2729 63.2424 67.5743C63.2424 65.8756 62.8731 64.5388 62.1346 63.5639C61.396 62.589 60.4433 62.1016 59.2764 62.1016C58.0947 62.1016 57.1346 62.589 56.396 63.5639C55.6722 64.5388 55.3103 65.8756 55.3103 67.5743C55.3103 69.2729 55.6722 70.6097 56.396 71.5846C57.1346 72.5595 58.0947 73.047 59.2764 73.047ZM75.0068 75.595C73.574 75.595 72.348 75.2626 71.3287 74.5979C70.3095 73.9185 69.5193 72.9805 68.958 71.784C68.4114 70.5728 68.1382 69.1695 68.1382 67.5743C68.1382 65.9938 68.4114 64.5979 68.958 63.3866C69.5193 62.1754 70.3095 61.2374 71.3287 60.5727C72.348 59.8933 73.574 59.5535 75.0068 59.5535C76.4396 59.5535 77.6656 59.8933 78.6848 60.5727C79.704 61.2374 80.4868 62.1754 81.0334 63.3866C81.5947 64.5979 81.8753 65.9938 81.8753 67.5743C81.8753 69.1695 81.5947 70.5728 81.0334 71.784C80.4868 72.9805 79.704 73.9185 78.6848 74.5979C77.6656 75.2626 76.4396 75.595 75.0068 75.595ZM75.0068 73.047C76.1737 73.047 77.1264 72.5595 77.865 71.5846C78.6035 70.6097 78.9728 69.2729 78.9728 67.5743C78.9728 65.8756 78.6035 64.5388 77.865 63.5639C77.1264 62.589 76.1737 62.1016 75.0068 62.1016C73.8251 62.1016 72.8649 62.589 72.1264 63.5639C71.4026 64.5388 71.0407 65.8756 71.0407 67.5743C71.0407 69.2729 71.4026 70.6097 72.1264 71.5846C72.8649 72.5595 73.8251 73.047 75.0068 73.047Z" fill="#3F4254"/>
<rect x="20.0627" y="88.0082" width="34.7376" height="17.65" rx="8.825" fill="#4FB59E" fill-opacity="0.06"/>
<rect x="20.0627" y="88.0082" width="34.7376" height="17.65" rx="8.825" stroke="#4FB59E" stroke-width="0.735554"/>
<path d="M28.8528 95.0806V100.196H28.0122V95.0806L25.7576 97.3352L25.1632 96.7407L28.4325 93.4714L31.7018 96.7407L31.1074 97.3352L28.8528 95.0806Z" fill="#4FB59E"/>
<path d="M34.9178 100.333V94.2202L33.7779 94.4724V93.8873L35.2003 93.2719H35.7753V100.333H34.9178ZM40.0197 100.454C39.3943 100.454 38.8529 100.303 38.3956 100C37.945 99.691 37.5987 99.264 37.3566 98.7192C37.1145 98.1678 36.9934 97.5289 36.9934 96.8026C36.9934 96.0763 37.1145 95.4408 37.3566 94.896C37.5987 94.3446 37.945 93.9175 38.3956 93.6149C38.8529 93.3056 39.3943 93.1509 40.0197 93.1509C40.6451 93.1509 41.1831 93.3056 41.6337 93.6149C42.0843 93.9175 42.4306 94.3446 42.6727 94.896C42.9148 95.4408 43.0359 96.0763 43.0359 96.8026C43.0359 97.5289 42.9148 98.1678 42.6727 98.7192C42.4306 99.264 42.0843 99.691 41.6337 100C41.1831 100.303 40.6451 100.454 40.0197 100.454ZM40.0197 99.7078C40.4299 99.7078 40.7964 99.5935 41.1192 99.3648C41.4488 99.1295 41.7043 98.7966 41.8859 98.3662C42.0742 97.929 42.1683 97.4078 42.1683 96.8026C42.1683 96.1973 42.0742 95.6795 41.8859 95.2491C41.7043 94.8187 41.4488 94.4892 41.1192 94.2605C40.7964 94.0251 40.4299 93.9075 40.0197 93.9075C39.6027 93.9075 39.2329 94.0251 38.9101 94.2605C38.5872 94.4892 38.3317 94.8187 38.1434 95.2491C37.9551 95.6795 37.8609 96.1973 37.8609 96.8026C37.8609 97.4078 37.9551 97.929 38.1434 98.3662C38.3317 98.7966 38.5872 99.1295 38.9101 99.3648C39.2329 99.5935 39.6027 99.7078 40.0197 99.7078ZM45.5311 96.5504C45.2285 96.5504 44.9528 96.4832 44.704 96.3487C44.4619 96.2074 44.2702 96.0124 44.129 95.7636C43.9877 95.508 43.9171 95.2054 43.9171 94.8557C43.9171 94.506 43.9877 94.2067 44.129 93.9579C44.2769 93.7023 44.4719 93.5073 44.714 93.3728C44.9629 93.2316 45.2386 93.161 45.5412 93.161C45.8439 93.161 46.1162 93.2316 46.3583 93.3728C46.6004 93.5073 46.7921 93.7023 46.9333 93.9579C47.0745 94.2067 47.1452 94.506 47.1452 94.8557C47.1452 95.2054 47.0712 95.508 46.9232 95.7636C46.782 96.0124 46.5903 96.2074 46.3482 96.3487C46.1061 96.4832 45.8338 96.5504 45.5311 96.5504ZM44.9057 100.333L49.0114 93.2719H49.8587L45.7531 100.333H44.9057ZM45.5311 95.8947C45.7665 95.8947 45.9716 95.8073 46.1465 95.6324C46.3281 95.4576 46.4189 95.1987 46.4189 94.8557C46.4189 94.506 46.3314 94.2437 46.1566 94.0689C45.9817 93.8873 45.7766 93.7965 45.5412 93.7965C45.3059 93.7965 45.094 93.8873 44.9057 94.0689C44.7241 94.2437 44.6333 94.506 44.6333 94.8557C44.6333 95.1987 44.7241 95.4576 44.9057 95.6324C45.0873 95.8073 45.2958 95.8947 45.5311 95.8947ZM49.3039 100.454C49.0013 100.454 48.7255 100.387 48.4767 100.253C48.2346 100.111 48.043 99.9163 47.9017 99.6675C47.7605 99.4119 47.6899 99.1093 47.6899 98.7596C47.6899 98.4099 47.7605 98.1106 47.9017 97.8618C48.0497 97.6062 48.2447 97.4112 48.4868 97.2767C48.7289 97.1355 49.0013 97.0649 49.3039 97.0649C49.6065 97.0649 49.8789 97.1355 50.121 97.2767C50.3631 97.4112 50.5548 97.6062 50.696 97.8618C50.8372 98.1106 50.9078 98.4099 50.9078 98.7596C50.9078 99.1093 50.8372 99.4119 50.696 99.6675C50.5548 99.9163 50.3631 100.111 50.121 100.253C49.8789 100.387 49.6065 100.454 49.3039 100.454ZM49.2938 99.7986C49.5359 99.7986 49.7444 99.7112 49.9192 99.5363C50.1008 99.3615 50.1916 99.1026 50.1916 98.7596C50.1916 98.4099 50.1042 98.1476 49.9293 97.9728C49.7545 97.7979 49.546 97.7105 49.3039 97.7105C49.0685 97.7105 48.86 97.7979 48.6785 97.9728C48.4969 98.1476 48.4061 98.4099 48.4061 98.7596C48.4061 99.1026 48.4935 99.3615 48.6684 99.5363C48.85 99.7112 49.0584 99.7986 49.2938 99.7986Z" fill="#4FB59E"/>
<path d="M62.7013 101.333L60.3872 95.2279H61.4704L63.3045 100.336L65.1508 95.2279H66.2094L63.8953 101.333H62.7013ZM69.2513 101.481C68.5209 101.481 67.9137 101.296 67.4295 100.927C66.9453 100.558 66.6622 100.057 66.5802 99.4253H67.6388C67.7044 99.7454 67.8726 100.024 68.1434 100.262C68.4225 100.492 68.7958 100.607 69.2636 100.607C69.6985 100.607 70.0186 100.517 70.2237 100.336C70.4289 100.147 70.5314 99.9259 70.5314 99.6715C70.5314 99.3022 70.396 99.056 70.1252 98.9329C69.8626 98.8099 69.4893 98.6991 69.0051 98.6006C68.6768 98.5349 68.3486 98.4406 68.0203 98.3175C67.6921 98.1944 67.4172 98.0221 67.1956 97.8005C66.9741 97.5707 66.8633 97.2712 66.8633 96.9019C66.8633 96.3685 67.0602 95.9336 67.4541 95.5971C67.8562 95.2525 68.3978 95.0801 69.0789 95.0801C69.7272 95.0801 70.2565 95.2443 70.6668 95.5725C71.0854 95.8926 71.3274 96.3521 71.3931 96.9512H70.3714C70.3304 96.6393 70.195 96.3972 69.9652 96.2249C69.7436 96.0444 69.4441 95.9541 69.0666 95.9541C68.6974 95.9541 68.4101 96.0321 68.205 96.188C68.008 96.3439 67.9096 96.549 67.9096 96.8034C67.9096 97.0496 68.0368 97.2425 68.2912 97.382C68.5538 97.5215 68.9066 97.6405 69.3498 97.7389C69.7272 97.821 70.0842 97.9236 70.4207 98.0467C70.7653 98.1616 71.0443 98.338 71.2577 98.576C71.4793 98.8057 71.59 99.1422 71.59 99.5853C71.5982 100.135 71.389 100.591 70.9623 100.952C70.5437 101.305 69.9734 101.481 69.2513 101.481ZM76.0786 101.333V92.4706H77.1126V101.333H76.0786ZM80.7152 101.481C80.2065 101.481 79.7838 101.395 79.4474 101.222C79.1109 101.05 78.8606 100.82 78.6965 100.533C78.5324 100.246 78.4503 99.9341 78.4503 99.5976C78.4503 98.974 78.6883 98.4939 79.1643 98.1575C79.6402 97.821 80.2885 97.6528 81.1091 97.6528H82.7586V97.5789C82.7586 97.0455 82.6191 96.6434 82.3401 96.3726C82.0611 96.0936 81.6877 95.9541 81.2199 95.9541C80.8178 95.9541 80.4691 96.0567 80.1736 96.2618C79.8864 96.4588 79.7059 96.7501 79.632 97.1358H78.5734C78.6145 96.6927 78.7622 96.3193 79.0166 96.0156C79.2792 95.712 79.6033 95.4822 79.989 95.3263C80.3747 95.1622 80.785 95.0801 81.2199 95.0801C82.0734 95.0801 82.7135 95.3099 83.1402 95.7695C83.5751 96.2208 83.7926 96.824 83.7926 97.5789V101.333H82.8694L82.8078 100.238C82.6355 100.582 82.3811 100.878 82.0446 101.124C81.7164 101.362 81.2733 101.481 80.7152 101.481ZM80.8753 100.607C81.2692 100.607 81.6056 100.504 81.8846 100.299C82.1718 100.094 82.3893 99.8274 82.537 99.4992C82.6847 99.1709 82.7586 98.8263 82.7586 98.4652V98.4529H81.1953C80.5881 98.4529 80.1572 98.5596 79.9028 98.7729C79.6566 98.9781 79.5336 99.2366 79.5336 99.5484C79.5336 99.8684 79.6484 100.127 79.8782 100.324C80.1162 100.513 80.4485 100.607 80.8753 100.607ZM87.5594 101.481C86.829 101.481 86.2218 101.296 85.7376 100.927C85.2535 100.558 84.9703 100.057 84.8883 99.4253H85.9469C86.0125 99.7454 86.1808 100.024 86.4516 100.262C86.7306 100.492 87.104 100.607 87.5717 100.607C88.0066 100.607 88.3267 100.517 88.5318 100.336C88.737 100.147 88.8396 99.9259 88.8396 99.6715C88.8396 99.3022 88.7042 99.056 88.4334 98.9329C88.1708 98.8099 87.7974 98.6991 87.3132 98.6006C86.985 98.5349 86.6567 98.4406 86.3285 98.3175C86.0002 98.1944 85.7253 98.0221 85.5037 97.8005C85.2822 97.5707 85.1714 97.2712 85.1714 96.9019C85.1714 96.3685 85.3683 95.9336 85.7622 95.5971C86.1643 95.2525 86.706 95.0801 87.3871 95.0801C88.0354 95.0801 88.5647 95.2443 88.975 95.5725C89.3935 95.8926 89.6356 96.3521 89.7012 96.9512H88.6795C88.6385 96.6393 88.5031 96.3972 88.2733 96.2249C88.0518 96.0444 87.7522 95.9541 87.3748 95.9541C87.0055 95.9541 86.7183 96.0321 86.5131 96.188C86.3162 96.3439 86.2177 96.549 86.2177 96.8034C86.2177 97.0496 86.3449 97.2425 86.5993 97.382C86.8619 97.5215 87.2147 97.6405 87.6579 97.7389C88.0354 97.821 88.3923 97.9236 88.7288 98.0467C89.0734 98.1616 89.3524 98.338 89.5658 98.576C89.7874 98.8057 89.8982 99.1422 89.8982 99.5853C89.9064 100.135 89.6971 100.591 89.2704 100.952C88.8519 101.305 88.2815 101.481 87.5594 101.481ZM93.3883 101.333C92.8303 101.333 92.3913 101.198 92.0712 100.927C91.7512 100.656 91.5912 100.168 91.5912 99.4622V96.1018H90.5326V95.2279H91.5912L91.7266 93.7631H92.6251V95.2279H94.4223V96.1018H92.6251V99.4622C92.6251 99.8479 92.7031 100.111 92.859 100.25C93.0149 100.381 93.2898 100.447 93.6837 100.447H94.3238V101.333H93.3883ZM98.7474 101.333V95.2279H99.6829L99.7567 96.1141C99.9537 95.7859 100.216 95.5315 100.545 95.3509C100.873 95.1704 101.242 95.0801 101.652 95.0801C102.137 95.0801 102.551 95.1786 102.896 95.3756C103.248 95.5725 103.519 95.872 103.708 96.2741C103.921 95.9049 104.213 95.6135 104.582 95.4002C104.959 95.1868 105.366 95.0801 105.801 95.0801C106.531 95.0801 107.114 95.3017 107.548 95.7448C107.983 96.1798 108.201 96.8527 108.201 97.7636V101.333H107.179V97.8743C107.179 97.2425 107.052 96.7665 106.798 96.4465C106.543 96.1264 106.178 95.9664 105.702 95.9664C105.21 95.9664 104.799 96.1593 104.471 96.5449C104.151 96.9224 103.991 97.464 103.991 98.1698V101.333H102.957V97.8743C102.957 97.2425 102.83 96.7665 102.576 96.4465C102.321 96.1264 101.956 95.9664 101.48 95.9664C100.996 95.9664 100.59 96.1593 100.261 96.5449C99.9414 96.9224 99.7813 97.464 99.7813 98.1698V101.333H98.7474ZM112.417 101.481C111.843 101.481 111.326 101.35 110.866 101.087C110.407 100.824 110.042 100.455 109.771 99.9792C109.508 99.4951 109.377 98.9288 109.377 98.2806C109.377 97.6323 109.512 97.0701 109.783 96.5942C110.054 96.11 110.419 95.7366 110.879 95.474C111.346 95.2114 111.867 95.0801 112.442 95.0801C113.016 95.0801 113.533 95.2114 113.993 95.474C114.452 95.7366 114.813 96.11 115.076 96.5942C115.347 97.0701 115.482 97.6323 115.482 98.2806C115.482 98.9288 115.347 99.4951 115.076 99.9792C114.805 100.455 114.436 100.824 113.968 101.087C113.509 101.35 112.992 101.481 112.417 101.481ZM112.417 100.595C112.77 100.595 113.098 100.509 113.402 100.336C113.706 100.164 113.952 99.9054 114.14 99.5607C114.329 99.2161 114.424 98.7893 114.424 98.2806C114.424 97.7718 114.329 97.345 114.14 97.0004C113.96 96.6557 113.718 96.3972 113.414 96.2249C113.111 96.0526 112.786 95.9664 112.442 95.9664C112.089 95.9664 111.761 96.0526 111.457 96.2249C111.153 96.3972 110.907 96.6557 110.719 97.0004C110.53 97.345 110.435 97.7718 110.435 98.2806C110.435 98.7893 110.53 99.2161 110.719 99.5607C110.907 99.9054 111.149 100.164 111.445 100.336C111.748 100.509 112.073 100.595 112.417 100.595ZM116.797 101.333V95.2279H117.732L117.794 96.3234C117.991 95.9377 118.274 95.6341 118.643 95.4125C119.012 95.1909 119.431 95.0801 119.899 95.0801C120.621 95.0801 121.195 95.3017 121.622 95.7448C122.057 96.1798 122.274 96.8527 122.274 97.7636V101.333H121.24V97.8743C121.24 96.6024 120.715 95.9664 119.665 95.9664C119.14 95.9664 118.701 96.1593 118.348 96.5449C118.003 96.9224 117.831 97.464 117.831 98.1698V101.333H116.797ZM126.13 101.333C125.572 101.333 125.133 101.198 124.813 100.927C124.493 100.656 124.333 100.168 124.333 99.4622V96.1018H123.275V95.2279H124.333L124.469 93.7631H125.367V95.2279H127.164V96.1018H125.367V99.4622C125.367 99.8479 125.445 100.111 125.601 100.25C125.757 100.381 126.032 100.447 126.426 100.447H127.066V101.333H126.13ZM128.355 101.333V92.4706H129.389V96.2741C129.594 95.8967 129.885 95.6053 130.263 95.4002C130.64 95.1868 131.051 95.0801 131.494 95.0801C132.2 95.0801 132.766 95.3017 133.193 95.7448C133.619 96.1798 133.833 96.8527 133.833 97.7636V101.333H132.811V97.8743C132.811 96.6024 132.298 95.9664 131.272 95.9664C130.739 95.9664 130.292 96.1593 129.931 96.5449C129.57 96.9224 129.389 97.464 129.389 98.1698V101.333H128.355Z" fill="#A1A5B7"/>
<mask id="mask0_574_3526" style="mask-type:alpha" maskUnits="userSpaceOnUse" x="190" y="29" width="124" height="67">
<rect x="191.295" y="30.2882" width="122.09" height="64.2365" fill="#C9C9C9" stroke="#F1416C" stroke-width="1.00261"/>
</mask>
<g mask="url(#mask0_574_3526)">
<path d="M184.338 57.9939C186.64 59.5877 192.307 62.0581 196.558 59.1893C201.871 55.6032 205.325 48.7726 206.919 50.1388C208.513 51.5049 210.904 55.774 216.217 50.1388C221.53 44.5035 223.124 38.5267 228.437 39.8929C233.75 41.259 237.735 69.9474 247.565 63.9707C257.394 57.9939 260.582 48.9434 263.504 50.1388C266.427 51.3341 269.88 41.259 273.865 41.0882C277.85 40.9174 283.429 51.6756 284.757 52.0172C286.086 52.3587 289.008 48.2603 292.461 50.1388C295.915 52.0172 303.619 63.2876 309.198 61.2384C314.777 59.1893 322.747 50.651 326.466 51.3341C330.185 52.0172 334.702 50.3095 336.03 48.0896C337.358 45.8696 341.077 38.5267 348.516 42.4543" stroke="#4FB59E" stroke-width="1.50392" stroke-linecap="round" stroke-linejoin="round"/>
<path d="M196.494 60.18C192.24 63.0489 186.57 60.5785 184.266 58.9846L170.443 104.92L352.529 110.043C353.681 89.1531 354.496 46.5871 348.541 43.4451C341.099 39.5175 337.377 46.8603 336.048 49.0803C334.719 51.3002 330.2 53.0079 326.479 52.3248C322.757 51.6418 314.783 60.18 309.2 62.2292C303.618 64.2783 295.909 53.0079 292.454 51.1295C288.998 49.2511 286.074 53.3494 284.745 53.0079C283.416 52.6663 277.834 41.9082 273.847 42.0789C269.859 42.2497 266.404 52.3248 263.48 51.1295C260.556 49.9341 257.366 58.9847 247.531 64.9614C237.695 70.9382 233.708 42.2497 228.392 40.8836C223.075 39.5175 221.48 45.4942 216.164 51.1295C210.848 56.7647 208.455 52.4956 206.86 51.1295C205.266 49.7634 201.81 56.5939 196.494 60.18Z" fill="url(#paint1_linear_574_3526)" stroke="#4FB59E" stroke-width="1.23093" stroke-linecap="round" stroke-linejoin="round"/>
</g>
<circle cx="273.266" cy="40.8651" r="4.30825" fill="#4FB59E" stroke="white" stroke-width="1.23093"/>
<defs>
<linearGradient id="paint0_linear_574_3526" x1="38.7742" y1="32.2486" x2="15.3866" y2="29.7868" gradientUnits="userSpaceOnUse">
<stop stop-color="#0660FC" stop-opacity="0"/>
<stop offset="1" stop-color="#0660FC" stop-opacity="0.08"/>
</linearGradient>
<linearGradient id="paint1_linear_574_3526" x1="262.187" y1="7.01467" x2="257.263" y2="126.415" gradientUnits="userSpaceOnUse">
<stop stop-color="#4FB59E" stop-opacity="0.2"/>
<stop offset="0.72165" stop-color="#4FB59E" stop-opacity="0"/>
</linearGradient>
</defs>
</svg>
