<svg width="28" height="24" viewBox="0 0 28 24" fill="none" xmlns="http://www.w3.org/2000/svg">
<rect width="26" height="24" rx="12" fill="url(#paint0_linear_135_25720)"/>
<path opacity="0.2" d="M20.6855 2.80849L13.224 2.84886C10.2067 2.86518 7.77395 5.3244 7.79027 8.34167L7.83034 15.7482C7.84667 18.7655 10.3059 21.1982 13.3232 21.1819L20.7847 21.1416C23.802 21.1252 26.2347 18.666 26.2184 15.6487L26.1783 8.24218C26.162 5.22491 23.7028 2.79216 20.6855 2.80849Z" fill="#F1416C"/>
<path d="M17 15.4007C18.9238 15.4007 20.4833 13.8412 20.4833 11.9174C20.4833 9.99362 18.9238 8.43408 17 8.43408C15.0762 8.43408 13.5167 9.99362 13.5167 11.9174C13.5167 13.8412 15.0762 15.4007 17 15.4007Z" fill="#F1416C"/>
<path d="M22.9583 20.6805C22.5245 19.4466 21.7183 18.3778 20.651 17.6217C19.5837 16.8656 18.308 16.4595 17 16.4595C15.692 16.4595 14.4163 16.8656 13.349 17.6217C12.2817 18.3778 11.4755 19.4466 11.0417 20.6805C11.7606 21.0088 12.543 21.1747 13.3333 21.1664H20.7858C21.5353 21.1522 22.2742 20.9869 22.9583 20.6805Z" fill="#F1416C"/>
<defs>
<linearGradient id="paint0_linear_135_25720" x1="16.6242" y1="12" x2="-3.92" y2="9.65725" gradientUnits="userSpaceOnUse">
<stop stop-color="#0660FC" stop-opacity="0"/>
<stop offset="0.0001" stop-color="#F1416C" stop-opacity="0"/>
<stop offset="1" stop-color="#F1416C" stop-opacity="0.08"/>
</linearGradient>
</defs>
</svg>
