<svg width="102" height="102" viewBox="0 0 102 102" fill="none" xmlns="http://www.w3.org/2000/svg">
<circle opacity="0.3" cx="51" cy="51" r="51" fill="#FFF5F8"/>
<circle cx="51" cy="51" r="41" fill="#FFF5F8"/>
<path d="M71.4077 35.7675C67.7852 35.4075 64.1627 35.1375 60.5177 34.935V34.9125L60.0227 31.9875C59.6852 29.9175 59.1902 26.8125 53.9252 26.8125H48.0302C42.7877 26.8125 42.2927 29.7825 41.9327 31.965L41.4602 34.845C39.3677 34.98 37.2752 35.115 35.1827 35.3175L30.5927 35.7675C29.6477 35.8575 28.9727 36.69 29.0627 37.6125C29.1527 38.535 29.9627 39.21 30.9077 39.12L35.4977 38.67C47.2877 37.5 59.1677 37.95 71.0927 39.1425C71.1602 39.1425 71.2052 39.1425 71.2727 39.1425C72.1277 39.1425 72.8702 38.49 72.9602 37.6125C73.0277 36.69 72.3527 35.8575 71.4077 35.7675Z" fill="#F1416C"/>
<path opacity="0.2" d="M67.2684 42.315C66.7284 41.7525 65.9859 41.4375 65.2209 41.4375H36.7809C36.0159 41.4375 35.2509 41.7525 34.7334 42.315C34.2159 42.8775 33.9234 43.6425 33.9684 44.43L35.3634 67.515C35.6109 70.935 35.9259 75.21 43.7784 75.21H58.2234C66.0759 75.21 66.3909 70.9575 66.6384 67.515L68.0334 44.4525C68.0784 43.6425 67.7859 42.8775 67.2684 42.315Z" fill="#F1416C"/>
<path fill-rule="evenodd" clip-rule="evenodd" d="M45.5547 62.25C45.5547 61.318 46.3102 60.5625 47.2422 60.5625H54.7347C55.6667 60.5625 56.4222 61.318 56.4222 62.25C56.4222 63.182 55.6667 63.9375 54.7347 63.9375H47.2422C46.3102 63.9375 45.5547 63.182 45.5547 62.25Z" fill="#F1416C"/>
<path fill-rule="evenodd" clip-rule="evenodd" d="M43.6875 53.25C43.6875 52.318 44.443 51.5625 45.375 51.5625H56.625C57.557 51.5625 58.3125 52.318 58.3125 53.25C58.3125 54.182 57.557 54.9375 56.625 54.9375H45.375C44.443 54.9375 43.6875 54.182 43.6875 53.25Z" fill="#F1416C"/>
</svg>
