<svg width="58" height="60" viewBox="0 0 58 60" fill="none" xmlns="http://www.w3.org/2000/svg">
<g id="files-folders">
<g id="tab-tablet">
<path id="Vector" opacity="0.2" d="M40.5027 2.83691H17.496C8.20106 2.83691 0.666016 10.372 0.666016 19.6669V42.4186C0.666016 51.7135 8.20106 59.2486 17.496 59.2486H40.5027C49.7976 59.2486 57.3327 51.7135 57.3327 42.4186V19.6669C57.3327 10.372 49.7976 2.83691 40.5027 2.83691Z" fill="#FFC727"/>
<path id="Vector_2" d="M43.675 21.0262L42.0033 19.6662C41.5103 19.2917 40.9083 19.0889 40.2891 19.0889C39.67 19.0889 39.0679 19.2917 38.575 19.6662L36.9316 21.0262C36.5166 21.3225 36.0293 21.5013 35.5211 21.5436C35.0129 21.586 34.5027 21.4905 34.0443 21.2671C33.5859 21.0437 33.1963 20.7007 32.9166 20.2744C32.6369 19.848 32.4774 19.354 32.455 18.8446V2.86458C32.455 2.11314 32.7535 1.39247 33.2848 0.861114C33.8162 0.329761 34.5369 0.03125 35.2883 0.03125H45.46C46.2114 0.03125 46.9321 0.329761 47.4634 0.861114C47.9948 1.39247 48.2933 2.11314 48.2933 2.86458V18.8446C48.2898 19.3783 48.1356 19.9002 47.8484 20.3502C47.5613 20.8001 47.1529 21.1598 46.6702 21.3878C46.1876 21.6158 45.6504 21.7028 45.1205 21.6389C44.5906 21.5749 44.0895 21.3625 43.675 21.0262ZM34.2683 30.9996C34.2721 30.7144 34.2191 30.4314 34.1126 30.1668C34.0061 29.9023 33.848 29.6616 33.6477 29.4586C33.4474 29.2556 33.2087 29.0945 32.9456 28.9845C32.6825 28.8745 32.4002 28.8179 32.115 28.8179H17.665C17.3798 28.8179 17.0974 28.8745 16.8343 28.9845C16.5712 29.0945 16.3326 29.2556 16.1322 29.4586C15.9319 29.6616 15.7739 29.9023 15.6673 30.1668C15.5608 30.4314 15.5079 30.7144 15.5116 30.9996C15.5079 31.2861 15.5606 31.5705 15.6668 31.8367C15.773 32.1028 15.9306 32.3454 16.1305 32.5506C16.3305 32.7558 16.5689 32.9197 16.8322 33.0327C17.0955 33.1458 17.3785 33.2059 17.665 33.2096H32.115C32.4015 33.2059 32.6845 33.1458 32.9477 33.0327C33.211 32.9197 33.4494 32.7558 33.6494 32.5506C33.8494 32.3454 34.0069 32.1028 34.1131 31.8367C34.2193 31.5705 34.2721 31.2861 34.2683 30.9996ZM40.8416 42.1346C40.8417 41.5533 40.6127 40.9955 40.2044 40.5818C39.796 40.1682 39.2412 39.932 38.66 39.9246H15.7666C15.1805 39.9246 14.6184 40.1574 14.2039 40.5719C13.7895 40.9863 13.5566 41.5485 13.5566 42.1346C13.5566 42.7207 13.7895 43.2828 14.2039 43.6973C14.6184 44.1117 15.1805 44.3446 15.7666 44.3446H38.66C39.2363 44.3372 39.787 44.105 40.1945 43.6975C40.6021 43.2899 40.8343 42.7392 40.8416 42.1629V42.1346Z" fill="#FFC727"/>
</g>
</g>
</svg>
