<svg width="20" height="20" viewBox="0 0 20 20" fill="none" xmlns="http://www.w3.org/2000/svg">
<path opacity="0.3" d="M12.875 4.99998C12.836 4.12461 12.4539 3.2998 11.8114 2.70404C11.1688 2.10828 10.3175 1.78949 9.4417 1.81665H5.83337C4.95189 1.7805 4.09204 2.09526 3.44223 2.69196C2.79242 3.28866 2.40566 4.11862 2.3667 4.99998V15C2.40351 15.8828 2.78934 16.7149 3.43939 17.3134C4.08944 17.9119 4.95051 18.2278 5.83337 18.1916H9.47503C10.3465 18.2099 11.1905 17.886 11.8261 17.2893C12.4616 16.6927 12.8382 15.8709 12.875 15V4.99998Z" fill="#F1416C"/>
<path d="M7.24176 9.37503H15.5001L14.1668 8.00836C14.0497 7.89117 13.984 7.73232 13.984 7.5667C13.984 7.40107 14.0497 7.24222 14.1668 7.12503C14.2242 7.06606 14.2929 7.0192 14.3688 6.9872C14.4446 6.95521 14.5261 6.93872 14.6084 6.93872C14.6908 6.93872 14.7722 6.95521 14.8481 6.9872C14.924 7.0192 14.9926 7.06606 15.0501 7.12503L17.4918 9.55836C17.6088 9.67555 17.6745 9.8344 17.6745 10C17.6745 10.1657 17.6088 10.3245 17.4918 10.4417L15.0001 12.875C14.9427 12.9338 14.8739 12.9804 14.798 13.0119C14.7221 13.0434 14.6406 13.0592 14.5584 13.0584C14.4763 13.0588 14.3949 13.0427 14.3191 13.0113C14.2433 12.9798 14.1745 12.9335 14.1168 12.875C13.9997 12.7578 13.934 12.599 13.934 12.4334C13.934 12.2677 13.9997 12.1089 14.1168 11.9917L15.4918 10.625H7.24176C7.076 10.625 6.91703 10.5592 6.79982 10.442C6.68261 10.3248 6.61676 10.1658 6.61676 10C6.61676 9.83427 6.68261 9.6753 6.79982 9.55809C6.91703 9.44088 7.076 9.37503 7.24176 9.37503Z" fill="#F1416C"/>
</svg>
