<svg width="24" height="24" viewBox="0 0 24 24" fill="none" xmlns="http://www.w3.org/2000/svg">
<path d="M24 12C24 5.3726 18.6533 2.67029e-05 12.0578 2.67029e-05C5.46229 2.67029e-05 0.115591 5.3726 0.115591 12C0.115591 17.9896 4.48268 22.954 10.1918 23.8542V15.4688H7.15962V12H10.1918V9.35628C10.1918 6.34878 11.9747 4.68753 14.7026 4.68753C16.0091 4.68753 17.3758 4.9219 17.3758 4.9219V7.87503H15.8699C14.3864 7.87503 13.9238 8.80003 13.9238 9.74902V12H17.2358L16.7064 15.4688H13.9238V23.8542C19.6329 22.954 24 17.9896 24 12Z" fill="#1877F2"/>
</svg>
