<svg width="10" height="10" viewBox="0 0 10 10" fill="none" xmlns="http://www.w3.org/2000/svg">
<path opacity="0.3" d="M10.0001 5H7.63511C7.30876 4.99169 6.98734 4.91837 6.68966 4.78433C6.39198 4.6503 6.12403 4.45824 5.90147 4.21939C5.67892 3.98054 5.50624 3.69971 5.39354 3.39331C5.28084 3.08692 5.23038 2.76113 5.24511 2.435V0H2.79011C2.04216 0.010543 1.32879 0.316786 0.80598 0.85178C0.283167 1.38677 -0.00656929 2.107 0.000113075 2.855V7.145C-0.00656929 7.893 0.283167 8.61323 0.80598 9.14822C1.32879 9.68321 2.04216 9.98946 2.79011 10H7.20011C7.9494 9.99077 8.66455 9.68526 9.18923 9.15027C9.71392 8.61528 10.0055 7.89432 10.0001 7.145V5Z" fill="#A1A5B7"/>
<path d="M10.0003 4.215H7.63528C7.408 4.20813 7.18443 4.15547 6.97798 4.06016C6.77153 3.96486 6.58643 3.82887 6.43378 3.66034C6.28112 3.49181 6.16404 3.29421 6.08956 3.07937C6.01507 2.86452 5.98471 2.63686 6.00028 2.41V0L10.0003 4.215ZM3.66528 4.405L3.60028 4.365H3.56028C3.51791 4.34558 3.4719 4.33535 3.42528 4.335H3.38528C3.35044 4.33027 3.31512 4.33027 3.28028 4.335L3.23028 4.365H3.18028L1.65028 5.635C1.61114 5.66614 1.57853 5.70469 1.55432 5.74846C1.53011 5.79222 1.51478 5.84034 1.5092 5.89004C1.50363 5.93975 1.50792 5.99006 1.52184 6.0381C1.53575 6.08615 1.55901 6.13097 1.59028 6.17C1.62391 6.21517 1.66767 6.25181 1.71804 6.277C1.7684 6.30218 1.82397 6.3152 1.88028 6.315C1.96603 6.31437 2.04897 6.28437 2.11528 6.23L3.03528 5.5V8.095C3.03528 8.19446 3.07479 8.28984 3.14512 8.36016C3.21544 8.43049 3.31083 8.47 3.41028 8.47C3.50974 8.47 3.60512 8.43049 3.67545 8.36016C3.74577 8.28984 3.78528 8.19446 3.78528 8.095V5.525L4.58528 6.22C4.62236 6.25291 4.66568 6.27804 4.71265 6.29388C4.75963 6.30973 4.80932 6.31597 4.85875 6.31224C4.90819 6.30851 4.95638 6.29488 5.00044 6.27216C5.04451 6.24945 5.08357 6.2181 5.11528 6.18C5.17983 6.10233 5.21173 6.00264 5.20427 5.90193C5.19681 5.80121 5.15057 5.70731 5.07528 5.64L3.66528 4.405Z" fill="#A1A5B7"/>
</svg>
