<svg width="18" height="18" viewBox="0 0 18 18" fill="none" xmlns="http://www.w3.org/2000/svg">
<path d="M4.32747 7.5L8.17497 1.5H4.22247C3.78546 1.49998 3.36613 1.67255 3.05571 1.98016C2.7453 2.28776 2.56892 2.70551 2.56497 3.1425V5.01C2.56241 5.44476 2.73232 5.86281 3.03747 6.1725L4.32747 7.5Z" fill="#0660FC"/>
<path opacity="0.2" d="M13.7775 1.5H9.51745L5.13745 8.3025L5.88745 9.0525C6.42002 9.59204 6.71904 10.3194 6.71995 11.0775V15C6.70757 15.2856 6.77704 15.5687 6.92019 15.8162C7.06334 16.0636 7.2742 16.2649 7.52795 16.3966C7.78169 16.5282 8.06776 16.5845 8.35247 16.559C8.63717 16.5335 8.90865 16.4271 9.13495 16.2525L10.1625 15.5025C10.35 15.3704 10.5031 15.1951 10.6088 14.9915C10.7145 14.7879 10.7698 14.5619 10.77 14.3325V11.175C10.7641 10.7669 10.8445 10.3621 11.0061 9.98724C11.1677 9.6124 11.4067 9.27596 11.7075 9L14.88 6.1725C15.0566 6.01712 15.1976 5.82546 15.2934 5.6106C15.3892 5.39573 15.4375 5.16273 15.4349 4.9275V3.1425C15.431 2.70551 15.2546 2.28776 14.9442 1.98016C14.6338 1.67255 14.2145 1.49998 13.7775 1.5Z" fill="#0660FC"/>
</svg>
