<svg width="24" height="25" viewBox="0 0 24 25" fill="none" xmlns="http://www.w3.org/2000/svg">
<path opacity="0.2" d="M16.19 2.5H7.81C4.60123 2.5 2 5.10123 2 8.31V16.69C2 19.8988 4.60123 22.5 7.81 22.5H16.19C19.3988 22.5 22 19.8988 22 16.69V8.31C22 5.10123 19.3988 2.5 16.19 2.5Z" fill="#7E8299"/>
<path d="M13.41 12.4997L16.24 9.6697C16.3447 9.58005 16.4297 9.46974 16.4898 9.34567C16.5498 9.22161 16.5835 9.08647 16.5888 8.94875C16.5941 8.81103 16.5709 8.6737 16.5207 8.54538C16.4704 8.41705 16.3941 8.3005 16.2967 8.20305C16.1992 8.10559 16.0827 8.02934 15.9544 7.97906C15.826 7.92879 15.6887 7.90558 15.551 7.9109C15.4133 7.91622 15.2781 7.94995 15.1541 8.00997C15.03 8.07 14.9197 8.15502 14.83 8.2597L12 11.0897L9.17003 8.2597C8.97873 8.09587 8.73265 8.01027 8.48098 8.01999C8.2293 8.02971 7.99056 8.13404 7.81247 8.31214C7.63437 8.49023 7.53004 8.72897 7.52032 8.98065C7.5106 9.23232 7.5962 9.4784 7.76003 9.6697L10.59 12.4997L7.76003 15.3297C7.57378 15.5171 7.46924 15.7705 7.46924 16.0347C7.46924 16.2989 7.57378 16.5523 7.76003 16.7397C7.94739 16.926 8.20085 17.0305 8.46503 17.0305C8.72922 17.0305 8.98267 16.926 9.17003 16.7397L12 13.9097L14.83 16.7397C15.0174 16.926 15.2708 17.0305 15.535 17.0305C15.7992 17.0305 16.0527 16.926 16.24 16.7397C16.4263 16.5523 16.5308 16.2989 16.5308 16.0347C16.5308 15.7705 16.4263 15.5171 16.24 15.3297L13.41 12.4997Z" fill="#7E8299"/>
</svg>
