<svg width="30" height="30" viewBox="0 0 30 30" fill="none" xmlns="http://www.w3.org/2000/svg">
<rect width="30" height="30" rx="7" fill="white"/>
<rect x="0.375" y="0.375" width="29.25" height="29.25" rx="6.625" stroke="#BFD4E4" stroke-opacity="0.4" stroke-width="0.75"/>
<path d="M12.945 7.5H9.18C8.45927 7.5 7.875 8.08427 7.875 8.805V11.445C7.875 12.1657 8.45927 12.75 9.18 12.75H12.945C13.6657 12.75 14.25 12.1657 14.25 11.445V8.805C14.25 8.08427 13.6657 7.5 12.945 7.5Z" fill="#A1A5B7"/>
<g opacity="0.3">
<path d="M12.945 14.25H9.18C8.45927 14.25 7.875 14.8343 7.875 15.555V21.195C7.875 21.9157 8.45927 22.5 9.18 22.5H12.945C13.6657 22.5 14.25 21.9157 14.25 21.195V15.555C14.25 14.8343 13.6657 14.25 12.945 14.25Z" fill="#A1A5B7"/>
</g>
<g opacity="0.3">
<path d="M20.8125 7.5H17.0625C16.3376 7.5 15.75 8.08763 15.75 8.8125V14.4375C15.75 15.1624 16.3376 15.75 17.0625 15.75H20.8125C21.5374 15.75 22.125 15.1624 22.125 14.4375V8.8125C22.125 8.08763 21.5374 7.5 20.8125 7.5Z" fill="#A1A5B7"/>
</g>
<path d="M20.82 17.25H17.055C16.3343 17.25 15.75 17.8343 15.75 18.555V21.195C15.75 21.9157 16.3343 22.5 17.055 22.5H20.82C21.5407 22.5 22.125 21.9157 22.125 21.195V18.555C22.125 17.8343 21.5407 17.25 20.82 17.25Z" fill="#A1A5B7"/>
</svg>
