<svg width="18" height="12" viewBox="0 0 18 12" fill="none" xmlns="http://www.w3.org/2000/svg">
<path d="M16.6519 0H1.34807C0.603527 0 0 0.61412 0 1.37173V4.00003H18V1.37173C18 0.61412 17.3965 0 16.6519 0Z" fill="#FF4B55"/>
<path d="M0 10.6283C0 11.3859 0.603527 12 1.34807 12H16.6519C17.3964 12 18 11.3859 18 10.6283V8H0V10.6283Z" fill="#3F4254"/>
<path d="M0 4H18V7.99981H0V4Z" fill="#F5F5F5"/>
<path d="M9.99114 5.37536C9.99114 5.21878 9.84036 5.10817 9.69439 5.15771L9.42003 5.25076L9.35341 4.84141C9.33446 4.72348 9.27485 4.61628 9.18526 4.53904C9.09566 4.4618 8.98195 4.41957 8.86452 4.41992H8.60792L8.33954 4.75605H8.69493L8.59547 5.25587L8.30603 5.15771C8.16003 5.10817 8.00928 5.21878 8.00928 5.37536V7.0737L8.40876 6.6672L8.22053 7.24176H8.00931V7.57788H9.99118V7.24176H9.77996L9.59173 6.6672L9.99121 7.0737V5.37536H9.99114ZM8.8351 7.24172H8.56882L8.75192 6.74415L8.8351 6.85222V7.24172ZM9.16536 7.24172V6.85222L9.24853 6.74415L9.43163 7.24172H9.16536ZM9.00023 6.63254C9.00023 6.63254 8.48927 6.28067 8.50994 5.62423C8.50994 5.62423 8.8248 5.57172 9.00023 5.28811C9.17569 5.57168 9.49055 5.62423 9.49055 5.62423C9.51119 6.28071 9.00023 6.63254 9.00023 6.63254Z" fill="#F0C727"/>
</svg>
