<svg width="228" height="161" viewBox="0 0 228 161" fill="none" xmlns="http://www.w3.org/2000/svg">
<ellipse cx="25.5059" cy="38.8714" rx="1.31503" ry="1.31502" transform="rotate(-8.81525 25.5059 38.8714)" fill="#DCE2EE"/>
<ellipse cx="27.9242" cy="54.4656" rx="1.31503" ry="1.31502" transform="rotate(-8.81525 27.9242 54.4656)" fill="#DCE2EE"/>
<ellipse cx="30.3427" cy="70.0599" rx="1.31503" ry="1.31502" transform="rotate(-8.81525 30.3427 70.0599)" fill="#DCE2EE"/>
<ellipse cx="32.7606" cy="85.6526" rx="1.31503" ry="1.31502" transform="rotate(-8.81525 32.7606 85.6526)" fill="#DCE2EE"/>
<ellipse cx="35.179" cy="101.247" rx="1.31503" ry="1.31502" transform="rotate(-8.81525 35.179 101.247)" fill="#DCE2EE"/>
<ellipse cx="37.5976" cy="116.842" rx="1.31503" ry="1.31502" transform="rotate(-8.81525 37.5976 116.842)" fill="#DCE2EE"/>
<ellipse cx="40.0155" cy="132.436" rx="1.31503" ry="1.31502" transform="rotate(-8.81525 40.0155 132.436)" fill="#DCE2EE"/>
<ellipse cx="41.0999" cy="36.4534" rx="1.31503" ry="1.31502" transform="rotate(-8.81525 41.0999 36.4534)" fill="#DCE2EE"/>
<ellipse cx="43.5184" cy="52.0477" rx="1.31503" ry="1.31502" transform="rotate(-8.81525 43.5184 52.0477)" fill="#DCE2EE"/>
<ellipse cx="45.9364" cy="67.6414" rx="1.31503" ry="1.31502" transform="rotate(-8.81525 45.9364 67.6414)" fill="#DCE2EE"/>
<ellipse cx="48.3547" cy="83.2347" rx="1.31503" ry="1.31502" transform="rotate(-8.81525 48.3547 83.2347)" fill="#DCE2EE"/>
<ellipse cx="50.7726" cy="98.8284" rx="1.31503" ry="1.31502" transform="rotate(-8.81525 50.7726 98.8284)" fill="#DCE2EE"/>
<ellipse cx="53.1915" cy="114.422" rx="1.31503" ry="1.31502" transform="rotate(-8.81525 53.1915 114.422)" fill="#DCE2EE"/>
<ellipse cx="55.6098" cy="130.017" rx="1.31503" ry="1.31502" transform="rotate(-8.81525 55.6098 130.017)" fill="#DCE2EE"/>
<ellipse cx="56.6935" cy="34.035" rx="1.31503" ry="1.31502" transform="rotate(-8.81525 56.6935 34.035)" fill="#DCE2EE"/>
<ellipse cx="59.1121" cy="49.6297" rx="1.31503" ry="1.31502" transform="rotate(-8.81525 59.1121 49.6297)" fill="#DCE2EE"/>
<ellipse cx="61.53" cy="65.2234" rx="1.31503" ry="1.31502" transform="rotate(-8.81525 61.53 65.2234)" fill="#DCE2EE"/>
<ellipse cx="63.9488" cy="80.8167" rx="1.31503" ry="1.31502" transform="rotate(-8.81525 63.9488 80.8167)" fill="#DCE2EE"/>
<ellipse cx="66.367" cy="96.4105" rx="1.31503" ry="1.31502" transform="rotate(-8.81525 66.367 96.4105)" fill="#DCE2EE"/>
<ellipse cx="68.7857" cy="112.004" rx="1.31503" ry="1.31502" transform="rotate(-8.81525 68.7857 112.004)" fill="#DCE2EE"/>
<ellipse cx="71.2036" cy="127.599" rx="1.31503" ry="1.31502" transform="rotate(-8.81525 71.2036 127.599)" fill="#DCE2EE"/>
<ellipse cx="72.2881" cy="31.6165" rx="1.31503" ry="1.31502" transform="rotate(-8.81525 72.2881 31.6165)" fill="#DCE2EE"/>
<ellipse cx="74.706" cy="47.2108" rx="1.31503" ry="1.31502" transform="rotate(-8.81525 74.706 47.2108)" fill="#DCE2EE"/>
<ellipse cx="77.1243" cy="62.8045" rx="1.31503" ry="1.31502" transform="rotate(-8.81525 77.1243 62.8045)" fill="#DCE2EE"/>
<ellipse cx="79.5428" cy="78.3987" rx="1.31503" ry="1.31502" transform="rotate(-8.81525 79.5428 78.3987)" fill="#DCE2EE"/>
<ellipse cx="81.9607" cy="93.9925" rx="1.31503" ry="1.31502" transform="rotate(-8.81525 81.9607 93.9925)" fill="#DCE2EE"/>
<ellipse cx="84.3793" cy="109.586" rx="1.31503" ry="1.31502" transform="rotate(-8.81525 84.3793 109.586)" fill="#DCE2EE"/>
<ellipse cx="86.7977" cy="125.181" rx="1.31503" ry="1.31502" transform="rotate(-8.81525 86.7977 125.181)" fill="#DCE2EE"/>
<ellipse cx="87.8818" cy="29.1986" rx="1.31503" ry="1.31502" transform="rotate(-8.81525 87.8818 29.1986)" fill="#DCE2EE"/>
<ellipse cx="90.2996" cy="44.7923" rx="1.31503" ry="1.31502" transform="rotate(-8.81525 90.2996 44.7923)" fill="#DCE2EE"/>
<ellipse cx="92.7179" cy="60.3865" rx="1.31503" ry="1.31502" transform="rotate(-8.81525 92.7179 60.3865)" fill="#DCE2EE"/>
<ellipse cx="95.1365" cy="75.9808" rx="1.31503" ry="1.31502" transform="rotate(-8.81525 95.1365 75.9808)" fill="#DCE2EE"/>
<ellipse cx="97.5549" cy="91.5745" rx="1.31503" ry="1.31502" transform="rotate(-8.81525 97.5549 91.5745)" fill="#DCE2EE"/>
<ellipse cx="99.9734" cy="107.167" rx="1.31503" ry="1.31502" transform="rotate(-8.81525 99.9734 107.167)" fill="#DCE2EE"/>
<ellipse cx="102.391" cy="122.761" rx="1.31503" ry="1.31502" transform="rotate(-8.81525 102.391 122.761)" fill="#DCE2EE"/>
<ellipse cx="103.475" cy="26.7806" rx="1.31503" ry="1.31502" transform="rotate(-8.81525 103.475 26.7806)" fill="#DCE2EE"/>
<ellipse cx="105.894" cy="42.3743" rx="1.31503" ry="1.31502" transform="rotate(-8.81525 105.894 42.3743)" fill="#DCE2EE"/>
<ellipse cx="108.312" cy="57.9681" rx="1.31503" ry="1.31502" transform="rotate(-8.81525 108.312 57.9681)" fill="#DCE2EE"/>
<ellipse cx="110.73" cy="73.5628" rx="1.31503" ry="1.31502" transform="rotate(-8.81525 110.73 73.5628)" fill="#DCE2EE"/>
<ellipse cx="113.149" cy="89.1566" rx="1.31503" ry="1.31502" transform="rotate(-8.81525 113.149 89.1566)" fill="#DCE2EE"/>
<ellipse cx="115.567" cy="104.749" rx="1.31503" ry="1.31502" transform="rotate(-8.81525 115.567 104.749)" fill="#DCE2EE"/>
<ellipse cx="117.985" cy="120.343" rx="1.31503" ry="1.31502" transform="rotate(-8.81525 117.985 120.343)" fill="#DCE2EE"/>
<ellipse cx="119.069" cy="24.3621" rx="1.31503" ry="1.31502" transform="rotate(-8.81525 119.069 24.3621)" fill="#DCE2EE"/>
<ellipse cx="121.487" cy="39.9564" rx="1.31503" ry="1.31502" transform="rotate(-8.81525 121.487 39.9564)" fill="#DCE2EE"/>
<ellipse cx="123.906" cy="55.5496" rx="1.31503" ry="1.31502" transform="rotate(-8.81525 123.906 55.5496)" fill="#DCE2EE"/>
<ellipse cx="126.324" cy="71.1439" rx="1.31503" ry="1.31502" transform="rotate(-8.81525 126.324 71.1439)" fill="#DCE2EE"/>
<ellipse cx="128.743" cy="86.7386" rx="1.31503" ry="1.31502" transform="rotate(-8.81525 128.743 86.7386)" fill="#DCE2EE"/>
<ellipse cx="131.161" cy="102.331" rx="1.31503" ry="1.31502" transform="rotate(-8.81525 131.161 102.331)" fill="#DCE2EE"/>
<ellipse cx="133.58" cy="117.925" rx="1.31503" ry="1.31502" transform="rotate(-8.81525 133.58 117.925)" fill="#DCE2EE"/>
<ellipse cx="134.663" cy="21.9432" rx="1.31503" ry="1.31502" transform="rotate(-8.81525 134.663 21.9432)" fill="#DCE2EE"/>
<ellipse cx="137.081" cy="37.5369" rx="1.31503" ry="1.31502" transform="rotate(-8.81525 137.081 37.5369)" fill="#DCE2EE"/>
<ellipse cx="139.5" cy="53.1312" rx="1.31503" ry="1.31502" transform="rotate(-8.81525 139.5 53.1312)" fill="#DCE2EE"/>
<ellipse cx="141.919" cy="68.7264" rx="1.31503" ry="1.31502" transform="rotate(-8.81525 141.919 68.7264)" fill="#DCE2EE"/>
<ellipse cx="144.337" cy="84.3196" rx="1.31503" ry="1.31502" transform="rotate(-8.81525 144.337 84.3196)" fill="#DCE2EE"/>
<ellipse cx="146.755" cy="99.9134" rx="1.31503" ry="1.31502" transform="rotate(-8.81525 146.755 99.9134)" fill="#DCE2EE"/>
<ellipse cx="149.173" cy="115.507" rx="1.31503" ry="1.31502" transform="rotate(-8.81525 149.173 115.507)" fill="#DCE2EE"/>
<ellipse cx="150.257" cy="19.5252" rx="1.31503" ry="1.31502" transform="rotate(-8.81525 150.257 19.5252)" fill="#DCE2EE"/>
<ellipse cx="152.676" cy="35.119" rx="1.31503" ry="1.31502" transform="rotate(-8.81525 152.676 35.119)" fill="#DCE2EE"/>
<ellipse cx="155.094" cy="50.7132" rx="1.31503" ry="1.31502" transform="rotate(-8.81525 155.094 50.7132)" fill="#DCE2EE"/>
<ellipse cx="157.512" cy="66.3065" rx="1.31503" ry="1.31502" transform="rotate(-8.81525 157.512 66.3065)" fill="#DCE2EE"/>
<ellipse cx="159.93" cy="81.9007" rx="1.31503" ry="1.31502" transform="rotate(-8.81525 159.93 81.9007)" fill="#DCE2EE"/>
<ellipse cx="162.349" cy="97.4954" rx="1.31503" ry="1.31502" transform="rotate(-8.81525 162.349 97.4954)" fill="#DCE2EE"/>
<ellipse cx="164.767" cy="113.088" rx="1.31503" ry="1.31502" transform="rotate(-8.81525 164.767 113.088)" fill="#DCE2EE"/>
<ellipse cx="165.851" cy="17.1068" rx="1.31503" ry="1.31502" transform="rotate(-8.81525 165.851 17.1068)" fill="#DCE2EE"/>
<ellipse cx="168.27" cy="32.7015" rx="1.31503" ry="1.31502" transform="rotate(-8.81525 168.27 32.7015)" fill="#DCE2EE"/>
<ellipse cx="170.688" cy="48.2947" rx="1.31503" ry="1.31502" transform="rotate(-8.81525 170.688 48.2947)" fill="#DCE2EE"/>
<ellipse cx="173.106" cy="63.888" rx="1.31503" ry="1.31502" transform="rotate(-8.81525 173.106 63.888)" fill="#DCE2EE"/>
<ellipse cx="175.524" cy="79.4827" rx="1.31503" ry="1.31502" transform="rotate(-8.81525 175.524 79.4827)" fill="#DCE2EE"/>
<ellipse cx="177.943" cy="95.0765" rx="1.31503" ry="1.31502" transform="rotate(-8.81525 177.943 95.0765)" fill="#DCE2EE"/>
<ellipse cx="180.361" cy="110.67" rx="1.31503" ry="1.31502" transform="rotate(-8.81525 180.361 110.67)" fill="#DCE2EE"/>
<ellipse cx="115.124" cy="82.3114" rx="43.2895" ry="43.2895" fill="#01CCFF"/>
<ellipse cx="108.104" cy="3.6686" rx="3.6686" ry="3.6686" fill="#F1416C"/>
<ellipse cx="16.4024" cy="119.646" rx="4.40233" ry="4.40232" fill="#48B29A"/>
<ellipse cx="170.52" cy="25.4479" rx="3.6686" ry="3.6686" fill="#7239EA"/>
<g filter="url(#filter0_d_226_13657)">
<rect x="15.705" y="58.6421" width="31.4997" height="31.4997" rx="7.3372" transform="rotate(-12.1401 15.705 58.6421)" fill="white"/>
</g>
<rect x="20.8257" y="61.9497" width="22.8788" height="22.8787" rx="7.3372" transform="rotate(-12.1401 20.8257 61.9497)" fill="white"/>
<path fill-rule="evenodd" clip-rule="evenodd" d="M40.4018 66.6453L41.9898 72.8345C42.2454 73.8306 41.6435 74.8479 40.6474 75.1034L31.0546 77.5647C30.0585 77.8203 29.0412 77.2184 28.7857 76.2223L27.1977 70.0331C26.9407 69.0317 27.5426 68.0144 28.5387 67.7588L29.2897 67.5661C28.7313 64.8368 29.945 62.2433 32.0915 61.6925C34.2434 61.1404 36.5505 62.8306 37.3752 65.4916L38.1315 65.2976C39.1275 65.042 40.1449 65.6439 40.4018 66.6453ZM31.0367 67.1179L35.6334 65.9385C35.0789 64.2641 33.7209 63.1309 32.5384 63.4342C31.3613 63.7363 30.7166 65.3834 31.0367 67.1179Z" fill="url(#paint0_linear_226_13657)"/>
<path d="M36.0414 70.296C35.8009 69.3585 34.8437 68.7923 33.9063 69.0328C32.9689 69.2733 32.4026 70.2304 32.6431 71.1679C32.8044 71.7964 33.286 72.2575 33.8725 72.4193L34.3536 74.2942C34.4165 74.5392 34.6655 74.691 34.9105 74.6282L35.7201 74.4204C35.9651 74.3576 36.1156 74.1032 36.0527 73.8582L35.5717 71.9833C36.0025 71.5606 36.2026 70.9245 36.0414 70.296Z" fill="white"/>
<g filter="url(#filter1_d_226_13657)">
<rect x="181.84" y="104.44" width="31.2229" height="31.2228" rx="7.3372" transform="rotate(9.91601 181.84 104.44)" fill="white"/>
</g>
<rect x="185.313" y="109.386" width="22.6777" height="22.6776" rx="7.3372" transform="rotate(9.91601 185.313 109.386)" fill="white"/>
<path fill-rule="evenodd" clip-rule="evenodd" d="M201.49 121.977L200.47 128.285C200.306 129.3 199.348 129.992 198.333 129.828L188.556 128.248C187.541 128.084 186.849 127.125 187.013 126.11L188.033 119.802C188.198 118.782 189.156 118.09 190.171 118.254L190.937 118.378C191.516 115.653 193.666 113.761 195.854 114.115C198.047 114.469 199.485 116.941 199.177 119.71L199.948 119.834C200.963 119.998 201.655 120.957 201.49 121.977ZM192.717 118.665L197.402 119.423C197.563 117.666 196.772 116.084 195.567 115.89C194.367 115.696 193.118 116.948 192.717 118.665Z" fill="url(#paint1_linear_226_13657)"/>
<path d="M196.033 123.58C196.188 122.624 195.537 121.722 194.581 121.568C193.626 121.414 192.724 122.064 192.57 123.02C192.466 123.66 192.723 124.276 193.196 124.658L192.887 126.569C192.847 126.819 193.015 127.058 193.264 127.098L194.089 127.231C194.339 127.272 194.579 127.099 194.619 126.849L194.928 124.938C195.492 124.723 195.93 124.22 196.033 123.58Z" fill="white"/>
<g filter="url(#filter2_d_226_13657)">
<path d="M78.4527 99.6787L85.8687 109.902L93.7879 99.996L78.4527 99.6787Z" fill="white"/>
</g>
<g filter="url(#filter3_d_226_13657)">
<rect x="55.4498" y="44.728" width="154.63" height="56.2292" rx="10.2235" fill="white"/>
</g>
<path d="M86.5097 87.2826L84.2034 88.8876L82.3889 85.8626L80.5844 88.8876L78.2548 87.2826L80.5844 84.6869L77.1747 83.8713L78.0919 81.3516L81.3155 82.7452L81.0131 79.2314H83.798L83.449 82.7452L86.8487 81.3516L87.6828 83.8713L84.2034 84.6869L86.5097 87.2826Z" fill="#7E8299"/>
<path d="M101.206 87.2826L98.8375 88.8876L96.974 85.8626L95.1207 88.8876L92.7281 87.2826L95.1207 84.6869L91.6189 83.8713L92.5609 81.3516L95.8716 82.7452L95.561 79.2314H98.4212L98.0628 82.7452L101.554 81.3516L102.411 83.8713L98.8375 84.6869L101.206 87.2826Z" fill="#7E8299"/>
<path d="M115.359 87.2826L113.053 88.8876L111.239 85.8626L109.434 88.8876L107.104 87.2826L109.434 84.6869L106.024 83.8713L106.942 81.3516L110.165 82.7452L109.863 79.2314H112.648L112.299 82.7452L115.698 81.3516L116.532 83.8713L113.053 84.6869L115.359 87.2826Z" fill="#7E8299"/>
<path d="M129.765 87.2826L127.459 88.8876L125.644 85.8626L123.84 88.8876L121.51 87.2826L123.84 84.6869L120.43 83.8713L121.347 81.3516L124.571 82.7452L124.268 79.2314H127.053L126.704 82.7452L130.101 81.3516L130.938 83.8713L127.459 84.6869L129.765 87.2826Z" fill="#7E8299"/>
<path d="M144.17 87.2826L141.864 88.8876L140.05 85.8626L138.245 88.8876L135.915 87.2826L138.245 84.6869L134.835 83.8713L135.753 81.3516L138.976 82.7452L138.674 79.2314H141.459L141.11 82.7452L144.506 81.3516L145.344 83.8713L141.864 84.6869L144.17 87.2826Z" fill="#7E8299"/>
<path d="M158.576 87.2826L156.27 88.8876L154.455 85.8626L152.651 88.8876L150.321 87.2826L152.651 84.6869L149.241 83.8713L150.158 81.3516L153.382 82.7452L153.079 79.2314H155.864L155.515 82.7452L158.912 81.3516L159.749 83.8713L156.27 84.6869L158.576 87.2826Z" fill="#7E8299"/>
<path d="M172.981 87.2826L170.675 88.8876L168.86 85.8626L167.056 88.8876L164.726 87.2826L167.056 84.6869L163.646 83.8713L164.564 81.3516L167.787 82.7452L167.485 79.2314H170.27L169.921 82.7452L173.317 81.3516L174.154 83.8713L170.675 84.6869L172.981 87.2826Z" fill="#7E8299"/>
<path d="M187.387 87.2826L185.08 88.8876L183.266 85.8626L181.461 88.8876L179.132 87.2826L181.461 84.6869L178.052 83.8713L178.969 81.3516L182.193 82.7452L181.89 79.2314H184.675L184.326 82.7452L187.722 81.3516L188.56 83.8713L185.08 84.6869L187.387 87.2826Z" fill="#7E8299"/>
<path d="M69.3154 66.8262C68.4123 66.8262 67.6371 66.6345 66.9896 66.2511C66.3421 65.8592 65.8437 65.3182 65.4944 64.6282C65.1451 63.9295 64.9704 63.1244 64.9704 62.2129C64.9704 61.3013 65.1451 60.4962 65.4944 59.7976C65.8437 59.099 66.3421 58.5537 66.9896 58.1618C67.6371 57.7699 68.4123 57.5739 69.3154 57.5739C70.3889 57.5739 71.2664 57.8423 71.948 58.379C72.638 58.9073 73.0683 59.6527 73.2387 60.6154H71.4368C71.326 60.1298 71.0875 59.7507 70.7211 59.4781C70.3633 59.1969 69.8862 59.0564 69.2899 59.0564C68.4635 59.0564 67.816 59.3375 67.3474 59.8998C66.8788 60.4621 66.6445 61.2331 66.6445 62.2129C66.6445 63.1926 66.8788 63.9636 67.3474 64.5259C67.816 65.0797 68.4635 65.3566 69.2899 65.3566C69.8862 65.3566 70.3633 65.2288 70.7211 64.9732C71.0875 64.7091 71.326 64.347 71.4368 63.887H73.2387C73.0683 64.8071 72.638 65.527 71.948 66.0467C71.2664 66.5664 70.3889 66.8262 69.3154 66.8262ZM74.6483 66.6729V57.4717H76.2841V61.3055C76.497 60.9562 76.7824 60.6836 77.1403 60.4876C77.5066 60.2832 77.9241 60.1809 78.3926 60.1809C79.1764 60.1809 79.7813 60.428 80.2073 60.9221C80.6418 61.4163 80.8591 62.1404 80.8591 63.0946V66.6729H79.2361V63.248C79.2361 62.7027 79.1253 62.2853 78.9038 61.9956C78.6908 61.7059 78.3501 61.5611 77.8815 61.5611C77.4214 61.5611 77.038 61.723 76.7313 62.0467C76.4331 62.3705 76.2841 62.822 76.2841 63.4013V66.6729H74.6483ZM84.6085 66.8262C84.0633 66.8262 83.616 66.741 83.2667 66.5706C82.9174 66.3917 82.6575 66.1574 82.4871 65.8678C82.3167 65.5781 82.2315 65.2586 82.2315 64.9093C82.2315 64.3214 82.4616 63.8444 82.9216 63.478C83.3817 63.1117 84.0718 62.9285 84.9919 62.9285H86.6021V62.7751C86.6021 62.3406 86.4786 62.0212 86.2315 61.8167C85.9844 61.6122 85.6777 61.51 85.3114 61.51C84.9791 61.51 84.6894 61.5909 84.4424 61.7528C84.1953 61.9062 84.042 62.1362 83.9823 62.4429H82.3849C82.4275 61.9828 82.5808 61.5824 82.845 61.2416C83.1176 60.9008 83.4669 60.641 83.8929 60.4621C84.3188 60.2747 84.7959 60.1809 85.3242 60.1809C86.2272 60.1809 86.9386 60.4067 87.4583 60.8582C87.978 61.3098 88.2378 61.9487 88.2378 62.7751V66.6729H86.8449L86.6915 65.6505C86.5041 65.9913 86.24 66.2724 85.8992 66.4939C85.567 66.7154 85.1367 66.8262 84.6085 66.8262ZM84.9791 65.5483C85.4477 65.5483 85.8098 65.3949 86.0654 65.0882C86.3295 64.7815 86.4956 64.4024 86.5638 63.9508H85.1708C84.7363 63.9508 84.4253 64.0318 84.2379 64.1937C84.0505 64.347 83.9568 64.5387 83.9568 64.7687C83.9568 65.0158 84.0505 65.2075 84.2379 65.3438C84.4253 65.4801 84.6724 65.5483 84.9791 65.5483ZM89.7988 66.6729V60.3343H91.2429L91.3707 61.4078C91.5666 61.0329 91.8478 60.7347 92.2141 60.5132C92.589 60.2917 93.0277 60.1809 93.5304 60.1809C94.3142 60.1809 94.9233 60.428 95.3578 60.9221C95.7923 61.4163 96.0096 62.1404 96.0096 63.0946V66.6729H94.3738V63.248C94.3738 62.7027 94.2631 62.2853 94.0416 61.9956C93.8201 61.7059 93.475 61.5611 93.0064 61.5611C92.5464 61.5611 92.1673 61.723 91.8691 62.0467C91.5794 62.3705 91.4346 62.822 91.4346 63.4013V66.6729H89.7988ZM100.257 64.7815C99.9507 64.7815 99.6653 64.7474 99.4012 64.6793L98.9284 65.1521C99.0732 65.2288 99.2692 65.2927 99.5162 65.3438C99.7633 65.3949 100.164 65.446 100.717 65.4972C101.561 65.5738 102.174 65.774 102.558 66.0978C102.941 66.4215 103.133 66.8688 103.133 67.4396C103.133 67.8145 103.031 68.168 102.826 68.5003C102.622 68.8411 102.306 69.1137 101.88 69.3182C101.454 69.5312 100.909 69.6377 100.245 69.6377C99.3416 69.6377 98.6132 69.4673 98.0594 69.1265C97.5056 68.7942 97.2287 68.2916 97.2287 67.6185C97.2287 67.0477 97.5056 66.5536 98.0594 66.1361C97.889 66.0594 97.7399 65.9785 97.6121 65.8933C97.4928 65.8081 97.3863 65.7187 97.2926 65.6249V65.331L98.4044 64.1553C97.9103 63.7208 97.6632 63.1628 97.6632 62.4812C97.6632 62.0552 97.7655 61.6676 97.9699 61.3183C98.1829 60.969 98.4811 60.6921 98.8645 60.4876C99.2479 60.2832 99.7122 60.1809 100.257 60.1809C100.615 60.1809 100.948 60.2321 101.254 60.3343H103.657V61.3311L102.57 61.4078C102.741 61.7315 102.826 62.0893 102.826 62.4812C102.826 62.9072 102.724 63.2948 102.519 63.6441C102.315 63.9934 102.017 64.2703 101.625 64.4748C101.241 64.6793 100.786 64.7815 100.257 64.7815ZM100.257 63.5291C100.59 63.5291 100.862 63.4397 101.075 63.2608C101.297 63.0819 101.408 62.8263 101.408 62.494C101.408 62.1617 101.297 61.9062 101.075 61.7272C100.862 61.5483 100.59 61.4589 100.257 61.4589C99.9081 61.4589 99.627 61.5483 99.414 61.7272C99.201 61.9062 99.0945 62.1617 99.0945 62.494C99.0945 62.8263 99.201 63.0819 99.414 63.2608C99.627 63.4397 99.9081 63.5291 100.257 63.5291ZM98.7239 67.4524C98.7239 67.7676 98.8687 68.0019 99.1584 68.1553C99.4566 68.3171 99.8187 68.3981 100.245 68.3981C100.654 68.3981 100.986 68.3129 101.241 68.1425C101.497 67.9806 101.625 67.7591 101.625 67.478C101.625 67.2479 101.54 67.0562 101.369 66.9029C101.207 66.7495 100.879 66.6558 100.385 66.6217C100.036 66.5962 99.7122 66.5578 99.414 66.5067C99.1669 66.643 98.988 66.7921 98.8773 66.954C98.775 67.1159 98.7239 67.282 98.7239 67.4524ZM107.68 66.8262C107.041 66.8262 106.474 66.6899 105.98 66.4173C105.486 66.1446 105.098 65.7613 104.817 65.2671C104.536 64.773 104.395 64.2022 104.395 63.5547C104.395 62.8987 104.532 62.3151 104.804 61.8039C105.086 61.2927 105.469 60.8966 105.955 60.6154C106.449 60.3258 107.028 60.1809 107.693 60.1809C108.314 60.1809 108.864 60.3172 109.341 60.5899C109.818 60.8625 110.189 61.2374 110.453 61.7145C110.725 62.183 110.862 62.707 110.862 63.2863C110.862 63.38 110.858 63.478 110.849 63.5802C110.849 63.6825 110.845 63.789 110.836 63.8997H106.018C106.053 64.3939 106.223 64.7815 106.53 65.0627C106.845 65.3438 107.224 65.4844 107.667 65.4844C107.999 65.4844 108.276 65.412 108.498 65.2671C108.728 65.1138 108.898 64.9178 109.009 64.6793H110.67C110.551 65.0797 110.351 65.446 110.069 65.7783C109.797 66.102 109.456 66.3576 109.047 66.5451C108.647 66.7325 108.191 66.8262 107.68 66.8262ZM107.693 61.51C107.292 61.51 106.939 61.625 106.632 61.855C106.325 62.0765 106.129 62.4173 106.044 62.8774H109.2C109.175 62.4599 109.022 62.1277 108.74 61.8806C108.459 61.6335 108.11 61.51 107.693 61.51ZM116.075 69.4843L117.545 66.2511H117.161L114.695 60.3343H116.471L118.247 64.7943L120.1 60.3343H121.838L117.813 69.4843H116.075ZM125.4 66.8262C124.787 66.8262 124.233 66.6856 123.739 66.4045C123.253 66.1233 122.866 65.7357 122.576 65.2416C122.295 64.7389 122.154 64.1596 122.154 63.5036C122.154 62.8476 122.299 62.2725 122.589 61.7784C122.878 61.2757 123.266 60.8838 123.752 60.6027C124.246 60.3215 124.8 60.1809 125.413 60.1809C126.018 60.1809 126.563 60.3215 127.049 60.6027C127.543 60.8838 127.931 61.2757 128.212 61.7784C128.501 62.2725 128.646 62.8476 128.646 63.5036C128.646 64.1596 128.501 64.7389 128.212 65.2416C127.931 65.7357 127.543 66.1233 127.049 66.4045C126.555 66.6856 126.005 66.8262 125.4 66.8262ZM125.4 65.4077C125.826 65.4077 126.197 65.2501 126.512 64.9349C126.827 64.6111 126.985 64.134 126.985 63.5036C126.985 62.8731 126.827 62.4003 126.512 62.0851C126.197 61.7613 125.83 61.5994 125.413 61.5994C124.979 61.5994 124.604 61.7613 124.288 62.0851C123.982 62.4003 123.828 62.8731 123.828 63.5036C123.828 64.134 123.982 64.6111 124.288 64.9349C124.604 65.2501 124.974 65.4077 125.4 65.4077ZM132.486 66.8262C131.693 66.8262 131.08 66.5791 130.645 66.085C130.219 65.5909 130.006 64.8667 130.006 63.9125V60.3343H131.629V63.7592C131.629 64.3044 131.74 64.7219 131.962 65.0115C132.183 65.3012 132.533 65.446 133.01 65.446C133.461 65.446 133.832 65.2842 134.121 64.9604C134.42 64.6367 134.569 64.1851 134.569 63.6058V60.3343H136.204V66.6729H134.76L134.633 65.5994C134.437 65.9742 134.151 66.2724 133.776 66.4939C133.41 66.7154 132.98 66.8262 132.486 66.8262ZM137.884 66.6729V60.3343H139.341L139.494 61.5228C139.724 61.1138 140.035 60.7901 140.427 60.5515C140.827 60.3045 141.296 60.1809 141.832 60.1809V61.9062H141.372C141.015 61.9062 140.695 61.9615 140.414 62.0723C140.133 62.183 139.911 62.3747 139.749 62.6474C139.596 62.92 139.519 63.2991 139.519 63.7847V66.6729H137.884ZM145.996 69.4843V60.3343H147.452L147.631 61.2416C147.836 60.9605 148.104 60.7134 148.436 60.5004C148.777 60.2874 149.216 60.1809 149.753 60.1809C150.349 60.1809 150.882 60.3258 151.35 60.6154C151.819 60.9051 152.189 61.3013 152.462 61.8039C152.735 62.3066 152.871 62.8774 152.871 63.5163C152.871 64.1553 152.735 64.7261 152.462 65.2288C152.189 65.7229 151.819 66.1148 151.35 66.4045C150.882 66.6856 150.349 66.8262 149.753 66.8262C149.276 66.8262 148.858 66.7367 148.5 66.5578C148.142 66.3789 147.853 66.1276 147.631 65.8039V69.4843H145.996ZM149.408 65.3949C149.927 65.3949 150.358 65.2203 150.698 64.871C151.039 64.5217 151.21 64.0701 151.21 63.5163C151.21 62.9626 151.039 62.5068 150.698 62.149C150.358 61.7911 149.927 61.6122 149.408 61.6122C148.879 61.6122 148.445 61.7911 148.104 62.149C147.772 62.4983 147.606 62.9498 147.606 63.5036C147.606 64.0573 147.772 64.5131 148.104 64.871C148.445 65.2203 148.879 65.3949 149.408 65.3949ZM156.517 66.8262C155.972 66.8262 155.525 66.741 155.176 66.5706C154.826 66.3917 154.566 66.1574 154.396 65.8678C154.226 65.5781 154.14 65.2586 154.14 64.9093C154.14 64.3214 154.37 63.8444 154.83 63.478C155.291 63.1117 155.981 62.9285 156.901 62.9285H158.511V62.7751C158.511 62.3406 158.387 62.0212 158.14 61.8167C157.893 61.6122 157.587 61.51 157.22 61.51C156.888 61.51 156.598 61.5909 156.351 61.7528C156.104 61.9062 155.951 62.1362 155.891 62.4429H154.294C154.336 61.9828 154.49 61.5824 154.754 61.2416C155.026 60.9008 155.376 60.641 155.802 60.4621C156.228 60.2747 156.705 60.1809 157.233 60.1809C158.136 60.1809 158.847 60.4067 159.367 60.8582C159.887 61.3098 160.147 61.9487 160.147 62.7751V66.6729H158.754L158.6 65.6505C158.413 65.9913 158.149 66.2724 157.808 66.4939C157.476 66.7154 157.046 66.8262 156.517 66.8262ZM156.888 65.5483C157.357 65.5483 157.719 65.3949 157.974 65.0882C158.238 64.7815 158.404 64.4024 158.473 63.9508H157.08C156.645 63.9508 156.334 64.0318 156.147 64.1937C155.959 64.347 155.866 64.5387 155.866 64.7687C155.866 65.0158 155.959 65.2075 156.147 65.3438C156.334 65.4801 156.581 65.5483 156.888 65.5483ZM164.327 66.8262C163.765 66.8262 163.271 66.7367 162.845 66.5578C162.419 66.3704 162.078 66.1148 161.823 65.7911C161.567 65.4673 161.414 65.0925 161.363 64.6665H163.011C163.062 64.9136 163.199 65.1265 163.42 65.3055C163.65 65.4759 163.944 65.561 164.302 65.561C164.66 65.561 164.92 65.4886 165.081 65.3438C165.252 65.199 165.337 65.0328 165.337 64.8454C165.337 64.5728 165.218 64.3896 164.979 64.2959C164.741 64.1937 164.408 64.0957 163.982 64.002C163.71 63.9423 163.433 63.8699 163.152 63.7847C162.871 63.6995 162.611 63.593 162.372 63.4652C162.142 63.3289 161.955 63.1585 161.81 62.9541C161.665 62.7411 161.593 62.4812 161.593 62.1745C161.593 61.6122 161.814 61.1394 162.257 60.756C162.709 60.3726 163.339 60.1809 164.149 60.1809C164.898 60.1809 165.495 60.3556 165.938 60.7049C166.389 61.0542 166.658 61.5355 166.743 62.149H165.196C165.103 61.6804 164.749 61.4461 164.136 61.4461C163.829 61.4461 163.591 61.5057 163.42 61.625C163.258 61.7443 163.177 61.8934 163.177 62.0723C163.177 62.2597 163.301 62.4088 163.548 62.5196C163.795 62.6303 164.123 62.7325 164.532 62.8263C164.975 62.9285 165.38 63.0435 165.746 63.1713C166.121 63.2906 166.419 63.4738 166.641 63.7208C166.862 63.9594 166.973 64.3044 166.973 64.7559C166.981 65.1478 166.879 65.5014 166.666 65.8166C166.453 66.1319 166.146 66.3789 165.746 66.5578C165.346 66.7367 164.873 66.8262 164.327 66.8262ZM171.042 66.8262C170.479 66.8262 169.985 66.7367 169.559 66.5578C169.133 66.3704 168.792 66.1148 168.537 65.7911C168.281 65.4673 168.128 65.0925 168.077 64.6665H169.725C169.776 64.9136 169.913 65.1265 170.134 65.3055C170.364 65.4759 170.658 65.561 171.016 65.561C171.374 65.561 171.634 65.4886 171.796 65.3438C171.966 65.199 172.051 65.0328 172.051 64.8454C172.051 64.5728 171.932 64.3896 171.693 64.2959C171.455 64.1937 171.123 64.0957 170.697 64.002C170.424 63.9423 170.147 63.8699 169.866 63.7847C169.585 63.6995 169.325 63.593 169.086 63.4652C168.856 63.3289 168.669 63.1585 168.524 62.9541C168.379 62.7411 168.307 62.4812 168.307 62.1745C168.307 61.6122 168.528 61.1394 168.971 60.756C169.423 60.3726 170.053 60.1809 170.863 60.1809C171.612 60.1809 172.209 60.3556 172.652 60.7049C173.103 61.0542 173.372 61.5355 173.457 62.149H171.911C171.817 61.6804 171.463 61.4461 170.85 61.4461C170.543 61.4461 170.305 61.5057 170.134 61.625C169.972 61.7443 169.891 61.8934 169.891 62.0723C169.891 62.2597 170.015 62.4088 170.262 62.5196C170.509 62.6303 170.837 62.7325 171.246 62.8263C171.689 62.9285 172.094 63.0435 172.46 63.1713C172.835 63.2906 173.133 63.4738 173.355 63.7208C173.576 63.9594 173.687 64.3044 173.687 64.7559C173.695 65.1478 173.593 65.5014 173.38 65.8166C173.167 66.1319 172.861 66.3789 172.46 66.5578C172.06 66.7367 171.587 66.8262 171.042 66.8262ZM176.188 66.6729L174.335 60.3343H175.958L177.057 64.8965L178.335 60.3343H180.15L181.428 64.8965L182.54 60.3343H184.163L182.297 66.6729H180.597L179.243 61.9317L177.888 66.6729H176.188ZM188.012 66.8262C187.398 66.8262 186.844 66.6856 186.35 66.4045C185.865 66.1233 185.477 65.7357 185.187 65.2416C184.906 64.7389 184.766 64.1596 184.766 63.5036C184.766 62.8476 184.91 62.2725 185.2 61.7784C185.49 61.2757 185.877 60.8838 186.363 60.6027C186.857 60.3215 187.411 60.1809 188.024 60.1809C188.629 60.1809 189.175 60.3215 189.66 60.6027C190.154 60.8838 190.542 61.2757 190.823 61.7784C191.113 62.2725 191.258 62.8476 191.258 63.5036C191.258 64.1596 191.113 64.7389 190.823 65.2416C190.542 65.7357 190.154 66.1233 189.66 66.4045C189.166 66.6856 188.616 66.8262 188.012 66.8262ZM188.012 65.4077C188.438 65.4077 188.808 65.2501 189.123 64.9349C189.439 64.6111 189.596 64.134 189.596 63.5036C189.596 62.8731 189.439 62.4003 189.123 62.0851C188.808 61.7613 188.442 61.5994 188.024 61.5994C187.59 61.5994 187.215 61.7613 186.9 62.0851C186.593 62.4003 186.44 62.8731 186.44 63.5036C186.44 64.134 186.593 64.6111 186.9 64.9349C187.215 65.2501 187.586 65.4077 188.012 65.4077ZM192.72 66.6729V60.3343H194.177L194.33 61.5228C194.56 61.1138 194.871 60.7901 195.263 60.5515C195.664 60.3045 196.132 60.1809 196.669 60.1809V61.9062H196.209C195.851 61.9062 195.532 61.9615 195.25 62.0723C194.969 62.183 194.748 62.3747 194.586 62.6474C194.433 62.92 194.356 63.2991 194.356 63.7847V66.6729H192.72ZM200.588 66.8262C199.992 66.8262 199.459 66.6814 198.991 66.3917C198.522 66.102 198.152 65.7059 197.879 65.2032C197.606 64.7006 197.47 64.1298 197.47 63.4908C197.47 62.8518 197.606 62.2853 197.879 61.7911C198.152 61.2885 198.522 60.8966 198.991 60.6154C199.459 60.3258 199.992 60.1809 200.588 60.1809C201.065 60.1809 201.483 60.2704 201.841 60.4493C202.198 60.6282 202.488 60.8795 202.71 61.2033V57.4717H204.345V66.6729H202.889L202.71 65.7655C202.505 66.0467 202.233 66.2937 201.892 66.5067C201.56 66.7197 201.125 66.8262 200.588 66.8262ZM200.933 65.3949C201.462 65.3949 201.892 65.2203 202.224 64.871C202.565 64.5131 202.735 64.0573 202.735 63.5036C202.735 62.9498 202.565 62.4983 202.224 62.149C201.892 61.7911 201.462 61.6122 200.933 61.6122C200.414 61.6122 199.983 61.7869 199.643 62.1362C199.302 62.4855 199.131 62.937 199.131 63.4908C199.131 64.0446 199.302 64.5004 199.643 64.8582C199.983 65.216 200.414 65.3949 200.933 65.3949Z" fill="#5E6278"/>
<g clip-path="url(#clip0_226_13657)">
<path d="M221 39.9641C221 32.0082 214.55 25.5586 206.595 25.5586C198.639 25.5586 192.189 32.0082 192.189 39.9641C192.189 47.92 198.639 54.3696 206.595 54.3696C214.55 54.3696 221 47.92 221 39.9641Z" fill="#0660FC"/>
<path d="M210.296 36.3321L211.532 35.447C209.254 32.9801 205.443 32.5395 202.643 34.5455C201.551 35.3271 200.762 36.3744 200.301 37.5364C200.132 37.9612 199.679 38.1987 199.236 38.0844L197.702 37.6894C197.183 37.5561 196.897 37.0023 197.083 36.5004C197.762 34.6733 198.974 33.0223 200.678 31.8017C204.994 28.7096 210.913 29.4946 214.29 33.4713L215.596 32.5361C215.906 32.3138 216.335 32.5541 216.307 32.935L215.974 37.4739C215.933 38.0344 215.394 38.4209 214.85 38.2791L210.446 37.1335C210.076 37.0372 209.987 36.5539 210.298 36.3316L210.296 36.3321ZM197.215 42.4534L196.882 46.9922C196.854 47.3726 197.282 47.6134 197.593 47.3912L198.899 46.4559C202.276 50.4321 208.195 51.2176 212.511 48.1255C214.215 46.9056 215.427 45.2545 216.106 43.4269C216.292 42.9249 216.006 42.3712 215.487 42.2378L213.953 41.8428C213.511 41.7291 213.057 41.966 212.888 42.3909C212.427 43.5529 211.638 44.6001 210.546 45.3817C207.746 47.3878 203.935 46.9472 201.657 44.4803L202.893 43.5951C203.203 43.3728 203.113 42.8895 202.744 42.7932L198.34 41.6475C197.796 41.5063 197.257 41.8923 197.216 42.4528L197.215 42.4534Z" fill="white"/>
</g>
<defs>
<filter id="filter0_d_226_13657" x="0.94058" y="42.3892" width="66.9486" height="66.9482" filterUnits="userSpaceOnUse" color-interpolation-filters="sRGB">
<feFlood flood-opacity="0" result="BackgroundImageFix"/>
<feColorMatrix in="SourceAlpha" type="matrix" values="0 0 0 0 0 0 0 0 0 0 0 0 0 0 0 0 0 0 127 0" result="hardAlpha"/>
<feOffset dy="5.13604"/>
<feGaussianBlur stdDeviation="8.07092"/>
<feColorMatrix type="matrix" values="0 0 0 0 0.337255 0 0 0 0 0.356863 0 0 0 0 0.866667 0 0 0 0.1 0"/>
<feBlend mode="normal" in2="BackgroundImageFix" result="effect1_dropShadow_226_13657"/>
<feBlend mode="normal" in="SourceGraphic" in2="effect1_dropShadow_226_13657" result="shape"/>
</filter>
<filter id="filter1_d_226_13657" x="161.474" y="94.587" width="66.1115" height="66.1118" filterUnits="userSpaceOnUse" color-interpolation-filters="sRGB">
<feFlood flood-opacity="0" result="BackgroundImageFix"/>
<feColorMatrix in="SourceAlpha" type="matrix" values="0 0 0 0 0 0 0 0 0 0 0 0 0 0 0 0 0 0 127 0" result="hardAlpha"/>
<feOffset dy="5.13604"/>
<feGaussianBlur stdDeviation="8.07092"/>
<feColorMatrix type="matrix" values="0 0 0 0 0.0235294 0 0 0 0 0.376471 0 0 0 0 0.988235 0 0 0 0.08 0"/>
<feBlend mode="normal" in2="BackgroundImageFix" result="effect1_dropShadow_226_13657"/>
<feBlend mode="normal" in="SourceGraphic" in2="effect1_dropShadow_226_13657" result="shape"/>
</filter>
<filter id="filter2_d_226_13657" x="61.3249" y="97.1095" width="49.5908" height="44.4792" filterUnits="userSpaceOnUse" color-interpolation-filters="sRGB">
<feFlood flood-opacity="0" result="BackgroundImageFix"/>
<feColorMatrix in="SourceAlpha" type="matrix" values="0 0 0 0 0 0 0 0 0 0 0 0 0 0 0 0 0 0 127 0" result="hardAlpha"/>
<feOffset dy="14.5586"/>
<feGaussianBlur stdDeviation="8.5639"/>
<feComposite in2="hardAlpha" operator="out"/>
<feColorMatrix type="matrix" values="0 0 0 0 0.804167 0 0 0 0 0.804167 0 0 0 0 0.804167 0 0 0 0.16 0"/>
<feBlend mode="normal" in2="BackgroundImageFix" result="effect1_dropShadow_226_13657"/>
<feBlend mode="normal" in="SourceGraphic" in2="effect1_dropShadow_226_13657" result="shape"/>
</filter>
<filter id="filter3_d_226_13657" x="38.322" y="42.1589" width="188.886" height="90.4846" filterUnits="userSpaceOnUse" color-interpolation-filters="sRGB">
<feFlood flood-opacity="0" result="BackgroundImageFix"/>
<feColorMatrix in="SourceAlpha" type="matrix" values="0 0 0 0 0 0 0 0 0 0 0 0 0 0 0 0 0 0 127 0" result="hardAlpha"/>
<feOffset dy="14.5586"/>
<feGaussianBlur stdDeviation="8.5639"/>
<feComposite in2="hardAlpha" operator="out"/>
<feColorMatrix type="matrix" values="0 0 0 0 0.804167 0 0 0 0 0.804167 0 0 0 0 0.804167 0 0 0 0.16 0"/>
<feBlend mode="normal" in2="BackgroundImageFix" result="effect1_dropShadow_226_13657"/>
<feBlend mode="normal" in="SourceGraphic" in2="effect1_dropShadow_226_13657" result="shape"/>
</filter>
<linearGradient id="paint0_linear_226_13657" x1="25.9269" y1="63.2748" x2="38.5674" y2="60.0315" gradientUnits="userSpaceOnUse">
<stop stop-color="#3673DC"/>
<stop offset="1" stop-color="#0660FC"/>
</linearGradient>
<linearGradient id="paint1_linear_226_13657" x1="189.571" y1="113.099" x2="202.454" y2="115.182" gradientUnits="userSpaceOnUse">
<stop stop-color="#0660FC"/>
<stop offset="1" stop-color="#025FFF"/>
</linearGradient>
<clipPath id="clip0_226_13657">
<rect width="28.811" height="28.811" fill="white" transform="translate(192.189 25.5586)"/>
</clipPath>
</defs>
</svg>
