<svg width="20" height="20" viewBox="0 0 20 20" fill="none" xmlns="http://www.w3.org/2000/svg">
<path opacity="0.3" d="M17.825 8.775L16.6667 7.6C16.5859 7.52086 16.5221 7.42612 16.4791 7.32154C16.4361 7.21696 16.4149 7.10472 16.4167 6.99167V5.325C16.4156 5.09667 16.3694 4.8708 16.2807 4.66037C16.1921 4.44995 16.0628 4.25911 15.9002 4.09881C15.7375 3.93852 15.5449 3.81194 15.3332 3.72634C15.1215 3.64074 14.895 3.5978 14.6667 3.6H13C12.8869 3.60178 12.7747 3.58053 12.6701 3.53755C12.5655 3.49457 12.4708 3.43076 12.3917 3.35L11.225 2.175C10.9 1.85033 10.4594 1.66797 10 1.66797C9.54061 1.66797 9.10001 1.85033 8.775 2.175L7.6 3.33333C7.52086 3.41409 7.42612 3.47791 7.32154 3.52089C7.21696 3.56386 7.10472 3.58511 6.99167 3.58333H5.325C5.09667 3.58442 4.8708 3.63061 4.66037 3.71925C4.44995 3.80789 4.25911 3.93723 4.09881 4.09984C3.93852 4.26246 3.81194 4.45514 3.72634 4.66682C3.64074 4.8785 3.5978 5.10501 3.6 5.33333V7C3.60178 7.11305 3.58053 7.22529 3.53755 7.32987C3.49457 7.43445 3.43076 7.5292 3.35 7.60833L2.175 8.775C1.85033 9.10001 1.66797 9.54061 1.66797 10C1.66797 10.4594 1.85033 10.9 2.175 11.225L3.33333 12.4C3.41409 12.4791 3.47791 12.5739 3.52089 12.6785C3.56386 12.783 3.58511 12.8953 3.58333 13.0083V14.675C3.58442 14.9033 3.63061 15.1292 3.71925 15.3396C3.80789 15.5501 3.93723 15.7409 4.09984 15.9012C4.26246 16.0615 4.45514 16.1881 4.66682 16.2737C4.8785 16.3593 5.10501 16.4022 5.33333 16.4H7C7.11305 16.3982 7.22529 16.4195 7.32987 16.4624C7.43445 16.5054 7.5292 16.5692 7.60833 16.65L8.78333 17.825C9.10834 18.1497 9.54894 18.332 10.0083 18.332C10.4677 18.332 10.9083 18.1497 11.2333 17.825L12.4 16.6667C12.4791 16.5859 12.5739 16.5221 12.6785 16.4791C12.783 16.4361 12.8953 16.4149 13.0083 16.4167H14.675C15.1347 16.4167 15.5756 16.234 15.9007 15.909C16.2257 15.5839 16.4083 15.143 16.4083 14.6833V13.0167C16.4066 12.9036 16.4278 12.7914 16.4708 12.6868C16.5138 12.5822 16.5776 12.4875 16.6583 12.4083L17.8333 11.2333C17.9948 11.0717 18.1227 10.8797 18.2097 10.6685C18.2968 10.4573 18.3412 10.2309 18.3404 10.0024C18.3396 9.77397 18.2937 9.54791 18.2052 9.33726C18.1168 9.12662 17.9876 8.93553 17.825 8.775Z" fill="#A1A5B7"/>
<path d="M9.99998 12.4416C9.83489 12.4394 9.67717 12.3729 9.56042 12.2561C9.44368 12.1394 9.37714 11.9816 9.37498 11.8166V11.1332C9.37805 10.7254 9.49316 10.3262 9.70773 9.9794C9.9223 9.63256 10.2281 9.35137 10.5916 9.16655C10.81 9.0609 10.996 8.89873 11.1305 8.69687C11.2649 8.49501 11.3429 8.26084 11.3562 8.01867C11.3696 7.77649 11.3179 7.53516 11.2064 7.31974C11.095 7.10432 10.9279 6.92266 10.7225 6.79365C10.5172 6.66463 10.281 6.59295 10.0385 6.58606C9.7961 6.57918 9.55624 6.63733 9.34387 6.75448C9.1315 6.87163 8.95437 7.04351 8.83089 7.25226C8.7074 7.46101 8.64205 7.69901 8.64164 7.94155C8.64164 8.10731 8.5758 8.26628 8.45859 8.38349C8.34138 8.5007 8.1824 8.56655 8.01664 8.56655C7.85088 8.56655 7.69191 8.5007 7.5747 8.38349C7.45749 8.26628 7.39164 8.10731 7.39164 7.94155C7.38587 7.55367 7.46752 7.16947 7.63054 6.81747C7.79356 6.46546 8.03376 6.15469 8.33331 5.90822C8.61594 5.66681 8.94689 5.4886 9.30401 5.38552C9.66112 5.28243 10.0361 5.25687 10.4039 5.31053C10.7717 5.36419 11.1238 5.49584 11.4366 5.69665C11.7494 5.89747 12.0156 6.16281 12.2175 6.4749C12.4193 6.787 12.5522 7.13863 12.6071 7.50625C12.662 7.87386 12.6377 8.24896 12.5358 8.60642C12.434 8.96388 12.2569 9.29544 12.0164 9.57888C11.776 9.86232 11.4777 10.0911 11.1416 10.2499C10.9837 10.3359 10.8526 10.4639 10.7629 10.6198C10.6732 10.7757 10.6283 10.9534 10.6333 11.1332V11.8166C10.6311 11.9831 10.5634 12.142 10.4449 12.259C10.3264 12.376 10.1665 12.4416 9.99998 12.4416Z" fill="#A1A5B7"/>
<path d="M10 14.6084C10.3452 14.6084 10.625 14.3286 10.625 13.9834C10.625 13.6382 10.3452 13.3584 10 13.3584C9.65482 13.3584 9.375 13.6382 9.375 13.9834C9.375 14.3286 9.65482 14.6084 10 14.6084Z" fill="#A1A5B7"/>
</svg>
