<svg width="22" height="22" viewBox="0 0 22 22" fill="none" xmlns="http://www.w3.org/2000/svg">
<rect width="22" height="22" rx="11" fill="#F1F1F2"/>
<g opacity="0.3">
<path d="M13.408 15.998H6.49805C6.36544 15.998 6.23826 15.9454 6.14449 15.8516C6.05073 15.7578 5.99805 15.6307 5.99805 15.498V8.58805C5.99805 7.90114 6.27092 7.24236 6.75664 6.75664C7.24236 6.27092 7.90114 5.99805 8.58805 5.99805H13.408C13.7482 5.99805 14.085 6.06504 14.3992 6.1952C14.7134 6.32536 14.9989 6.51614 15.2395 6.75664C15.48 6.99714 15.6707 7.28266 15.8009 7.5969C15.9311 7.91113 15.998 8.24792 15.998 8.58805V13.408C15.998 13.7482 15.9311 14.085 15.8009 14.3992C15.6707 14.7134 15.48 14.9989 15.2395 15.2395C14.9989 15.48 14.7134 15.6707 14.3992 15.8009C14.085 15.9311 13.7482 15.998 13.408 15.998V15.998Z" fill="#7E8299"/>
</g>
<path d="M13.3782 10.123H8.61816C8.51871 10.123 8.42333 10.0835 8.353 10.0132C8.28267 9.94289 8.24316 9.8475 8.24316 9.74805C8.24316 9.64859 8.28267 9.55321 8.353 9.48288C8.42333 9.41256 8.51871 9.37305 8.61816 9.37305H13.3782C13.4776 9.37305 13.573 9.41256 13.6433 9.48288C13.7137 9.55321 13.7532 9.64859 13.7532 9.74805C13.7532 9.8475 13.7137 9.94289 13.6433 10.0132C13.573 10.0835 13.4776 10.123 13.3782 10.123V10.123Z" fill="#7E8299"/>
<path d="M11.7932 12.623H8.61816C8.51871 12.623 8.42333 12.5835 8.353 12.5132C8.28267 12.4429 8.24316 12.3475 8.24316 12.248C8.24316 12.1486 8.28267 12.0532 8.353 11.9829C8.42333 11.9126 8.51871 11.873 8.61816 11.873H11.7932C11.8926 11.873 11.988 11.9126 12.0583 11.9829C12.1287 12.0532 12.1682 12.1486 12.1682 12.248C12.1682 12.3475 12.1287 12.4429 12.0583 12.5132C11.988 12.5835 11.8926 12.623 11.7932 12.623V12.623Z" fill="#7E8299"/>
</svg>
