<svg width="142" height="142" viewBox="0 0 142 142" fill="none" xmlns="http://www.w3.org/2000/svg">
<g filter="url(#filter0_d_386_9518)">
<circle cx="44" cy="44" r="44" transform="matrix(-1 0 0 1 115 15)" fill="#F5F5F5"/>
<circle cx="44" cy="44" r="42.6111" transform="matrix(-1 0 0 1 115 15)" stroke="white" stroke-width="2.77778"/>
</g>
<g opacity="0.3">
<path d="M71 58.8332C76.7069 58.8332 81.3333 54.2068 81.3333 48.4998C81.3333 42.7929 76.7069 38.1665 71 38.1665C65.293 38.1665 60.6666 42.7929 60.6666 48.4998C60.6666 54.2068 65.293 58.8332 71 58.8332Z" fill="#A1A5B7"/>
</g>
<path d="M87.0417 79.833C87.3822 79.8523 87.723 79.7981 88.0407 79.6739C88.3584 79.5497 88.6456 79.3586 88.8829 79.1134C89.1201 78.8683 89.3017 78.575 89.4154 78.2534C89.5291 77.9318 89.5721 77.5894 89.5417 77.2497C88.2083 69.4163 80.4167 63.3955 71 63.3955C61.5833 63.3955 53.7917 69.4163 52.4583 77.2497C52.4279 77.5894 52.471 77.9318 52.5846 78.2534C52.6983 78.575 52.88 78.8683 53.1172 79.1134C53.3544 79.3586 53.6416 79.5497 53.9593 79.6739C54.2771 79.7981 54.6178 79.8523 54.9583 79.833H87.0417Z" fill="#A1A5B7"/>
<defs>
<filter id="filter0_d_386_9518" x="0.288855" y="0.308869" width="141.422" height="141.422" filterUnits="userSpaceOnUse" color-interpolation-filters="sRGB">
<feFlood flood-opacity="0" result="BackgroundImageFix"/>
<feColorMatrix in="SourceAlpha" type="matrix" values="0 0 0 0 0 0 0 0 0 0 0 0 0 0 0 0 0 0 127 0" result="hardAlpha"/>
<feOffset dy="12.02"/>
<feGaussianBlur stdDeviation="13.3556"/>
<feComposite in2="hardAlpha" operator="out"/>
<feColorMatrix type="matrix" values="0 0 0 0 0.439216 0 0 0 0 0.564706 0 0 0 0 0.690196 0 0 0 0.12 0"/>
<feBlend mode="normal" in2="BackgroundImageFix" result="effect1_dropShadow_386_9518"/>
<feBlend mode="normal" in="SourceGraphic" in2="effect1_dropShadow_386_9518" result="shape"/>
</filter>
</defs>
</svg>
