<svg width="571" height="420" viewBox="0 0 571 420" fill="none" xmlns="http://www.w3.org/2000/svg">
<path opacity="0.3" d="M519.801 159.596C543.097 112.648 470.391 14.0571 313.548 19.4202C310.695 19.5038 307.858 19.888 305.038 20.2389C298.596 21.0409 292.255 22.2104 286.114 23.7809C281.792 24.9003 277.554 26.2035 273.415 27.7239C270.812 28.6818 268.259 29.7232 265.756 30.8482C262.035 32.5356 258.414 34.4069 254.909 36.4619C253.997 37.0077 253.096 37.5646 252.206 38.1327C246.366 41.825 240.925 46.1189 235.953 51.0142C227.125 59.7188 218.298 65.3826 209.504 68.9079C159.742 88.8901 100.019 48.8923 39.6449 119.899C4.40163 161.351 78.0254 209.619 39.6449 246.893C-37.8002 322.094 23.7087 394.02 23.9089 394.471C23.9089 394.521 510.006 395.523 545.967 395.523C546.468 394.404 601.285 336.245 545.6 250.185C523.706 216.318 505.083 189.252 519.801 159.596Z" fill="#EAEEF9"/>
<g opacity="0.3">
<path opacity="0.5" d="M440.353 203.537C456.639 166.447 405.86 88.5728 296.343 92.7998C294.34 92.8833 292.354 93.184 290.385 93.4514C285.88 94.0863 281.458 95.0052 277.169 96.2582C274.149 97.127 271.195 98.1629 268.308 99.3658C266.495 100.123 264.709 100.947 262.952 101.839C260.348 103.158 257.829 104.645 255.392 106.266C254.747 106.7 254.113 107.14 253.49 107.586C249.418 110.51 245.614 113.885 242.143 117.761C235.968 124.628 229.811 129.122 223.67 131.895C188.927 147.667 147.209 116.09 105.058 172.177C80.444 204.907 131.857 243.051 105.058 272.473C50.9744 331.884 93.9272 388.69 94.0607 389.058C94.0607 389.091 433.528 389.893 458.625 389.893C458.992 389.008 497.273 343.062 458.375 275.079C443.09 248.33 430.09 226.945 440.353 203.537Z" fill="#EAEEF9"/>
</g>
<path d="M103.39 381.255C53.6289 381.255 13.2793 387.988 13.2793 396.292C13.2793 404.596 53.6289 411.329 103.39 411.329C153.151 411.329 193.501 404.596 193.501 396.292C193.501 387.988 153.151 381.255 103.39 381.255Z" fill="#C8DCFF"/>
<path d="M340.364 369.51C227.091 369.51 135.262 380.804 135.262 394.755C135.262 408.706 227.091 420 340.364 420C453.636 420 545.449 408.706 545.449 394.755C545.449 380.804 453.636 369.51 340.364 369.51Z" fill="#C8DCFF"/>
<path d="M425.235 153.858H140.463C134.475 153.858 129.613 158.725 129.613 164.739V374.891H436.085V164.739C436.085 158.725 431.223 153.858 425.235 153.858Z" fill="#0660FC"/>
<path d="M86.082 375.849C86.082 388.967 96.7063 399.605 109.808 399.605H455.886C468.988 399.605 479.612 388.967 479.612 375.849V374.891H86.082V375.849Z" fill="#0660FC"/>
<path d="M109.807 399.605H455.885C464.857 399.605 472.666 394.605 476.702 387.238H88.9902C93.026 394.605 100.835 399.605 109.807 399.605Z" fill="#003CBE"/>
<path d="M137.399 354.631H428.291V162.728H137.399V354.631Z" fill="white"/>
<path d="M282.854 174.832C236.64 174.832 199.174 212.325 199.174 258.595C199.174 304.865 236.64 342.378 282.854 342.378C329.068 342.378 366.516 304.865 366.516 258.595C366.516 212.325 329.068 174.832 282.854 174.832Z" fill="#649BFC"/>
<path d="M363.081 316.8C362.893 316.649 362.593 316.687 362.443 316.894C353.114 329.636 340.744 340.085 326.647 347.095C326.422 347.208 326.328 347.471 326.44 347.715C326.515 347.866 326.684 347.96 326.853 347.96C326.916 347.96 326.985 347.947 327.06 347.922C341.288 340.837 353.771 330.312 363.194 317.439C363.344 317.232 363.287 316.95 363.081 316.8Z" fill="#D1DBED"/>
<path d="M232.625 343.581C209.988 330.143 193.413 307.854 187.125 282.407C187.068 282.163 186.806 282.012 186.562 282.069C186.318 282.125 186.167 282.369 186.224 282.614C192.568 308.305 209.312 330.82 232.156 344.37C232.231 344.42 232.306 344.445 232.381 344.445C232.531 344.445 232.7 344.351 232.775 344.22C232.907 343.994 232.832 343.712 232.625 343.581Z" fill="#D1DBED"/>
<path d="M200.92 202.816C200.713 202.665 200.431 202.722 200.281 202.928C189.188 219.41 183.312 238.655 183.312 258.595C183.312 261.151 183.406 263.726 183.613 266.244C183.632 266.489 183.819 266.677 184.063 266.677C184.076 266.677 184.088 266.677 184.101 266.677C184.345 266.658 184.533 266.432 184.514 266.188C184.326 263.67 184.232 261.133 184.232 258.595C184.232 238.843 190.051 219.767 201.051 203.455C201.182 203.229 201.126 202.947 200.92 202.816Z" fill="#D1DBED"/>
<path d="M209.179 191.577C206.232 194.847 203.453 198.324 200.957 201.951C200.807 202.158 200.863 202.44 201.07 202.59C201.145 202.646 201.238 202.665 201.332 202.665C201.482 202.665 201.614 202.59 201.708 202.477C204.185 198.888 206.926 195.43 209.854 192.197C210.042 192.009 210.023 191.727 209.836 191.558C209.648 191.389 209.347 191.408 209.179 191.577Z" fill="#D1DBED"/>
<path d="M346.901 182.33C346.713 182.161 346.413 182.18 346.262 182.368C346.094 182.575 346.112 182.857 346.319 183.026C368.656 201.857 381.458 229.39 381.458 258.595C381.458 275.66 377.047 292.48 368.694 307.233C368.562 307.459 368.637 307.741 368.863 307.854C368.938 307.891 369.013 307.91 369.088 307.91C369.257 307.91 369.407 307.835 369.501 307.685C377.929 292.8 382.378 275.829 382.378 258.595C382.378 229.127 369.444 201.312 346.901 182.33Z" fill="#D1DBED"/>
<path d="M377.872 195.73C377.647 195.881 377.591 196.163 377.741 196.369C389.867 214.862 396.268 236.381 396.268 258.595C396.268 269.101 394.841 279.475 392.026 289.473C391.951 289.718 392.101 289.981 392.345 290.037C392.382 290.05 392.426 290.056 392.476 290.056C392.664 290.056 392.852 289.925 392.908 289.737C395.742 279.644 397.188 269.176 397.188 258.595C397.188 236.193 390.73 214.505 378.511 195.862C378.36 195.655 378.079 195.599 377.872 195.73Z" fill="#D1DBED"/>
<path d="M386.527 305.843C386.302 305.73 386.02 305.824 385.926 306.068C367.437 346.212 326.986 372.166 282.856 372.166C254.7 372.166 227.707 361.754 206.834 342.885C206.646 342.716 206.365 342.735 206.196 342.923C206.027 343.111 206.027 343.393 206.215 343.562C227.257 362.6 254.474 373.087 282.856 373.087C327.343 373.087 368.132 346.926 386.752 306.444C386.865 306.218 386.752 305.937 386.527 305.843Z" fill="#D1DBED"/>
<path d="M282.855 144.123C219.804 144.123 168.503 195.486 168.503 258.595C168.503 280.678 174.791 302.103 186.692 320.577C186.786 320.709 186.936 320.784 187.086 320.784C187.161 320.784 187.255 320.765 187.33 320.709C187.537 320.577 187.612 320.276 187.461 320.07C175.673 301.765 169.423 280.509 169.423 258.595C169.423 195.993 220.31 145.044 282.855 145.044C309.416 145.044 335.225 154.422 355.573 171.449C355.761 171.618 356.061 171.599 356.211 171.392C356.38 171.205 356.361 170.904 356.155 170.753C335.657 153.576 309.622 144.123 282.855 144.123Z" fill="#D1DBED"/>
<path d="M282.857 184.98C242.237 184.98 209.312 217.944 209.312 258.595C209.312 299.265 242.237 332.229 282.857 332.229C323.458 332.229 356.382 299.265 356.382 258.595C356.382 217.944 323.458 184.98 282.857 184.98Z" fill="#EAF2FF"/>
<g opacity="0.2">
<path d="M319.478 194.772C332.711 208.078 340.895 226.439 340.895 246.699C340.895 287.35 307.971 320.314 267.351 320.314C254.005 320.314 241.523 316.743 230.729 310.522C244.038 323.922 262.471 332.229 282.856 332.229C323.457 332.229 356.381 299.265 356.381 258.595C356.381 231.307 341.534 207.476 319.478 194.772Z" fill="#99B1DA"/>
</g>
<g opacity="0.5">
<path d="M319.946 201.857C315.103 204.45 311.124 207.138 311.124 207.138C311.124 207.138 301.626 213.791 295.3 215.05C288.975 216.328 281.71 216.009 277.581 220.763C273.47 225.499 270.635 230.574 267.782 235.329C264.948 240.065 263.033 243.241 264.31 246.079C265.567 248.935 268.42 251.792 272.531 248.935C276.642 246.079 276.961 244.18 279.796 242.602C282.649 241.023 284.789 240.384 287.51 240.384C290.232 240.384 294.343 240.065 292.766 242.602C291.189 245.139 290.157 251.472 290.157 251.472C290.157 251.472 287.548 256.847 290.157 258.125C292.766 259.385 295.3 260.174 298.473 256.772C301.626 253.371 303.522 251.472 306.994 251.792C310.486 252.111 315.854 254.329 316.173 259.385C316.493 264.459 319.646 270.792 317.131 277.126C314.597 283.459 315.535 283.14 306.994 286.936C298.473 290.732 288.599 295.168 291.002 299.603C293.404 304.038 298.153 304.677 300.368 308.474C302.583 312.27 302.884 317.965 302.884 317.965L301.983 323.546C327.098 311.838 344.517 286.354 344.517 256.772C344.517 234.953 335.019 215.351 319.946 201.857Z" fill="#A6C6FF"/>
</g>
<g opacity="0.2">
<path d="M356.25 254.198C356.175 253.032 356.081 251.867 355.969 250.702C355.944 250.514 355.919 250.326 355.894 250.138C355.769 249.073 355.625 248.021 355.462 246.981C355.437 246.793 355.406 246.599 355.368 246.398C355.18 245.271 354.968 244.149 354.73 243.034C354.68 242.784 354.624 242.539 354.561 242.301C354.317 241.174 354.035 240.046 353.735 238.937C353.723 238.925 353.716 238.912 353.716 238.899C353.416 237.791 353.078 236.682 352.703 235.592C352.628 235.354 352.553 235.116 352.477 234.878C352.115 233.813 351.727 232.76 351.314 231.72C351.251 231.545 351.182 231.363 351.107 231.175C350.732 230.248 350.338 229.327 349.925 228.413C349.837 228.212 349.749 228.018 349.662 227.83C349.199 226.84 348.717 225.857 348.216 224.879C348.091 224.641 347.966 224.403 347.841 224.165C347.353 223.225 346.827 222.305 346.302 221.384C346.252 221.296 346.202 221.208 346.152 221.121C345.607 220.2 345.025 219.316 344.462 218.414C344.3 218.164 344.131 217.919 343.956 217.681C343.38 216.804 342.779 215.94 342.154 215.088C341.985 214.862 341.834 214.656 341.665 214.449C341.14 213.747 340.602 213.052 340.051 212.363C339.863 212.137 339.676 211.893 339.488 211.667C338.837 210.891 338.174 210.126 337.498 209.375C337.261 209.099 337.017 208.829 336.766 208.566C336.178 207.94 335.577 207.32 334.964 206.706C334.701 206.43 334.439 206.161 334.176 205.898C333.563 205.309 332.943 204.726 332.318 204.15C332.142 203.999 331.967 203.849 331.792 203.699C330.591 204.338 329.427 204.996 328.376 205.616C336.278 217.343 340.896 231.476 340.896 246.699C340.896 271.77 328.357 293.909 309.229 307.215C310.393 308.06 311.463 308.981 312.233 310.297C314.448 314.093 314.748 319.806 314.748 319.806L313.847 325.369C314.56 325.031 315.274 324.68 315.987 324.317C316.137 324.242 316.281 324.173 316.419 324.11C318.559 323.008 320.63 321.805 322.632 320.502C322.757 320.427 322.876 320.352 322.989 320.276C323.639 319.85 324.277 319.424 324.903 318.998C325.028 318.898 325.16 318.804 325.297 318.716C327.187 317.376 329.008 315.947 330.76 314.431C330.96 314.269 331.154 314.099 331.342 313.924C331.867 313.46 332.393 312.991 332.918 312.515C333.068 312.364 333.219 312.22 333.369 312.082C334.32 311.18 335.246 310.253 336.147 309.301C336.335 309.094 336.541 308.887 336.729 308.681C337.167 308.217 337.592 307.747 338.005 307.271C338.268 306.97 338.524 306.676 338.775 306.388C339.169 305.918 339.563 305.467 339.957 304.978C340.22 304.64 340.502 304.283 340.764 303.945C341.365 303.18 341.947 302.403 342.51 301.614C342.798 301.226 343.08 300.831 343.355 300.43C343.655 299.992 343.956 299.547 344.256 299.096C344.556 298.645 344.85 298.187 345.138 297.724C345.401 297.31 345.645 296.916 345.889 296.502C346.377 295.7 346.846 294.892 347.297 294.078C347.503 293.683 347.71 293.289 347.916 292.894C348.216 292.343 348.504 291.785 348.78 291.221C348.967 290.833 349.161 290.438 349.362 290.037C349.712 289.298 350.044 288.553 350.356 287.801C350.507 287.462 350.657 287.118 350.807 286.767C351.132 285.978 351.445 285.176 351.745 284.362C351.883 283.998 352.014 283.635 352.14 283.271C352.39 282.57 352.628 281.868 352.853 281.167C352.966 280.828 353.059 280.509 353.172 280.189C353.472 279.187 353.754 278.178 354.017 277.164C354.092 276.919 354.148 276.675 354.204 276.449C354.405 275.622 354.592 274.789 354.767 273.95C354.843 273.611 354.911 273.273 354.974 272.935C355.149 272.07 355.306 271.2 355.443 270.323C355.481 270.097 355.518 269.89 355.556 269.665C355.719 268.587 355.856 267.504 355.969 266.413C356.006 266.113 356.025 265.831 356.044 265.53C356.132 264.678 356.2 263.82 356.25 262.955C356.263 262.642 356.282 262.323 356.307 261.997C356.344 260.869 356.382 259.742 356.382 258.595C356.382 257.393 356.344 256.171 356.288 254.968C356.275 254.718 356.263 254.461 356.25 254.198Z" fill="#A6C6FF"/>
</g>
<g opacity="0.5">
<path d="M252.354 300.167C252.898 296.69 241.073 298.269 241.073 298.269L230.936 297.31L222.677 289.398V277.051L228.722 273.574L234.109 280.847C234.109 280.847 238.858 287.181 243.231 285.921C247.605 284.643 238.22 277.051 234.109 271.976C229.998 266.921 233.79 267.24 234.109 264.384C234.428 261.527 243.231 262.486 243.231 262.486L240.435 252.036C240.435 252.036 239.158 245.064 241.073 242.527C242.969 239.99 250.233 235.253 252.129 230.179C254.025 225.124 243.269 218.471 243.269 218.471C243.269 218.471 242.011 213.077 243.588 210.859C245.184 208.642 244.545 204.526 244.226 202.007C244.095 200.88 242.086 199.752 239.909 198.85C221.382 212.231 209.312 233.994 209.312 258.595C209.312 289.511 228.346 315.935 255.282 326.854C255.113 326.61 247.699 316.574 247.398 311.556C247.079 306.501 251.81 303.644 252.354 300.167Z" fill="#A6C6FF"/>
</g>
<g opacity="0.5">
<path d="M230.747 310.541C231.141 310.936 231.535 311.312 231.948 311.688C232.23 311.969 232.512 312.251 232.812 312.514C233.275 312.953 233.744 313.379 234.22 313.792C234.507 314.043 234.795 314.294 235.083 314.544C235.571 314.97 236.072 315.39 236.585 315.803C236.81 315.991 237.035 316.16 237.261 316.33C238.481 317.307 239.738 318.247 241.015 319.149C241.027 319.149 241.033 319.149 241.033 319.149C241.653 319.581 242.291 319.994 242.911 320.408C243.123 320.546 243.336 320.677 243.549 320.803C244.187 321.216 244.831 321.611 245.482 321.987C245.607 322.074 245.739 322.156 245.876 322.231C248.016 323.484 250.225 324.63 252.502 325.67C252.653 325.733 252.803 325.795 252.953 325.858C253.691 326.196 254.436 326.516 255.187 326.817C255.224 326.829 255.256 326.842 255.281 326.854C255.149 326.685 252.071 322.494 249.799 318.19C243.042 316.536 236.641 313.924 230.747 310.541Z" fill="#99B1DA"/>
</g>
<path d="M240.498 282.684C237.41 282.684 234.743 282.143 232.497 281.06C230.292 279.977 228.547 278.493 227.264 276.608C226.021 274.683 225.299 272.518 225.098 270.111H232.618C232.979 271.836 233.861 273.28 235.265 274.443C236.668 275.566 238.413 276.127 240.498 276.127C242.744 276.127 244.569 275.305 245.972 273.661C247.416 272.016 248.138 269.971 248.138 267.525C248.138 264.998 247.416 262.993 245.972 261.509C244.569 260.025 242.784 259.283 240.618 259.283C238.814 259.283 237.25 259.725 235.926 260.607C234.603 261.489 233.66 262.592 233.099 263.915H225.7L229.309 239.853H252.65V246.591H235.084L233.159 256.336C234.041 255.373 235.245 254.591 236.769 253.99C238.292 253.348 239.997 253.027 241.882 253.027C244.89 253.027 247.396 253.709 249.401 255.073C251.406 256.396 252.93 258.161 253.973 260.366C255.016 262.532 255.537 264.898 255.537 267.465C255.537 270.392 254.895 272.999 253.612 275.285C252.369 277.571 250.604 279.375 248.318 280.699C246.073 282.022 243.466 282.684 240.498 282.684ZM279.967 282.684C276.077 282.684 272.748 281.782 269.981 279.977C267.214 278.132 265.069 275.586 263.545 272.337C262.061 269.049 261.319 265.239 261.319 260.908C261.319 256.617 262.061 252.827 263.545 249.538C265.069 246.25 267.214 243.703 269.981 241.899C272.748 240.054 276.077 239.131 279.967 239.131C283.857 239.131 287.186 240.054 289.953 241.899C292.72 243.703 294.846 246.25 296.329 249.538C297.853 252.827 298.615 256.617 298.615 260.908C298.615 265.239 297.853 269.049 296.329 272.337C294.846 275.586 292.72 278.132 289.953 279.977C287.186 281.782 283.857 282.684 279.967 282.684ZM279.967 275.766C283.135 275.766 285.722 274.443 287.727 271.796C289.732 269.149 290.735 265.52 290.735 260.908C290.735 256.296 289.732 252.666 287.727 250.02C285.722 247.373 283.135 246.049 279.967 246.049C276.759 246.049 274.152 247.373 272.147 250.02C270.182 252.666 269.199 256.296 269.199 260.908C269.199 265.52 270.182 269.149 272.147 271.796C274.152 274.443 276.759 275.766 279.967 275.766ZM322.675 282.684C318.785 282.684 315.456 281.782 312.689 279.977C309.922 278.132 307.777 275.586 306.253 272.337C304.769 269.049 304.027 265.239 304.027 260.908C304.027 256.617 304.769 252.827 306.253 249.538C307.777 246.25 309.922 243.703 312.689 241.899C315.456 240.054 318.785 239.131 322.675 239.131C326.565 239.131 329.894 240.054 332.661 241.899C335.428 243.703 337.554 246.25 339.037 249.538C340.561 252.827 341.323 256.617 341.323 260.908C341.323 265.239 340.561 269.049 339.037 272.337C337.554 275.586 335.428 278.132 332.661 279.977C329.894 281.782 326.565 282.684 322.675 282.684ZM322.675 275.766C325.843 275.766 328.43 274.443 330.435 271.796C332.44 269.149 333.443 265.52 333.443 260.908C333.443 256.296 332.44 252.666 330.435 250.02C328.43 247.373 325.843 246.049 322.675 246.049C319.467 246.049 316.86 247.373 314.855 250.02C312.89 252.666 311.907 256.296 311.907 260.908C311.907 265.52 312.89 269.149 314.855 271.796C316.86 274.443 319.467 275.766 322.675 275.766Z" fill="#003CBE"/>
<path d="M238.397 282.684C235.309 282.684 232.642 282.143 230.396 281.06C228.19 279.977 226.446 278.493 225.162 276.608C223.919 274.683 223.197 272.518 222.997 270.111H230.516C230.877 271.836 231.759 273.28 233.163 274.443C234.567 275.566 236.311 276.127 238.397 276.127C240.642 276.127 242.467 275.305 243.871 273.661C245.314 272.016 246.036 269.971 246.036 267.525C246.036 264.998 245.314 262.993 243.871 261.509C242.467 260.025 240.683 259.283 238.517 259.283C236.712 259.283 235.148 259.725 233.825 260.607C232.501 261.489 231.559 262.592 230.997 263.915H223.598L227.208 239.853H250.548V246.591H232.983L231.058 256.336C231.94 255.373 233.143 254.591 234.667 253.99C236.191 253.348 237.895 253.027 239.78 253.027C242.788 253.027 245.294 253.709 247.3 255.073C249.305 256.396 250.829 258.161 251.871 260.366C252.914 262.532 253.435 264.898 253.435 267.465C253.435 270.392 252.794 272.999 251.51 275.285C250.267 277.571 248.503 279.375 246.217 280.699C243.971 282.022 241.364 282.684 238.397 282.684ZM277.866 282.684C273.976 282.684 270.647 281.782 267.88 279.977C265.113 278.132 262.967 275.586 261.443 272.337C259.959 269.049 259.217 265.239 259.217 260.908C259.217 256.617 259.959 252.827 261.443 249.538C262.967 246.25 265.113 243.703 267.88 241.899C270.647 240.054 273.976 239.131 277.866 239.131C281.756 239.131 285.084 240.054 287.851 241.899C290.619 243.703 292.744 246.25 294.228 249.538C295.752 252.827 296.514 256.617 296.514 260.908C296.514 265.239 295.752 269.049 294.228 272.337C292.744 275.586 290.619 278.132 287.851 279.977C285.084 281.782 281.756 282.684 277.866 282.684ZM277.866 275.766C281.034 275.766 283.62 274.443 285.626 271.796C287.631 269.149 288.633 265.52 288.633 260.908C288.633 256.296 287.631 252.666 285.626 250.02C283.62 247.373 281.034 246.049 277.866 246.049C274.657 246.049 272.051 247.373 270.045 250.02C268.08 252.666 267.098 256.296 267.098 260.908C267.098 265.52 268.08 269.149 270.045 271.796C272.051 274.443 274.657 275.766 277.866 275.766ZM320.574 282.684C316.683 282.684 313.355 281.782 310.588 279.977C307.821 278.132 305.675 275.586 304.151 272.337C302.667 269.049 301.925 265.239 301.925 260.908C301.925 256.617 302.667 252.827 304.151 249.538C305.675 246.25 307.821 243.703 310.588 241.899C313.355 240.054 316.683 239.131 320.574 239.131C324.464 239.131 327.792 240.054 330.559 241.899C333.326 243.703 335.452 246.25 336.936 249.538C338.46 252.827 339.222 256.617 339.222 260.908C339.222 265.239 338.46 269.049 336.936 272.337C335.452 275.586 333.326 278.132 330.559 279.977C327.792 281.782 324.464 282.684 320.574 282.684ZM320.574 275.766C323.742 275.766 326.328 274.443 328.334 271.796C330.339 269.149 331.341 265.52 331.341 260.908C331.341 256.296 330.339 252.666 328.334 250.02C326.328 247.373 323.742 246.049 320.574 246.049C317.365 246.049 314.759 247.373 312.753 250.02C310.788 252.666 309.806 256.296 309.806 260.908C309.806 265.52 310.788 269.149 312.753 271.796C314.759 274.443 317.365 275.766 320.574 275.766Z" fill="#0660FC"/>
<path d="M435.931 195.035C435.931 195.035 433.885 194.959 430.262 194.734C424.443 194.377 414.551 193.625 402.613 192.065C396.475 191.276 389.773 190.261 382.828 189.002C372.973 187.216 362.593 184.924 352.419 181.954C347.558 180.545 342.752 178.966 338.078 177.218C323.888 171.956 307.764 163.405 298.172 153.2C296.614 151.546 280.94 151.565 280.546 153.801C288.279 161.826 303.503 172.802 321.222 181.071C326.76 183.646 332.804 186.201 339.411 188.72C347.464 191.783 356.324 194.809 366.066 197.722C372.88 199.752 380.106 201.744 387.784 203.68C394.785 205.446 402.181 207.157 409.933 208.829C418.38 210.633 427.259 212.362 436.607 214.016C436.607 214.016 437.958 196.181 435.931 195.035Z" fill="#A6C6FF"/>
<path d="M366.065 197.722C372.879 199.752 380.106 201.744 387.783 203.68C392.307 201.349 397.638 197.703 402.612 192.065C396.474 191.276 389.773 190.261 382.828 189.002C379.43 191.708 373.611 195.58 366.065 197.722Z" fill="#649BFC"/>
<path d="M435.93 195.035C435.93 195.035 433.884 194.959 430.261 194.734C426.244 199.489 419.112 206.33 409.933 208.829C418.379 210.633 427.258 212.362 436.606 214.016C436.606 214.016 437.957 196.181 435.93 195.035Z" fill="#649BFC"/>
<path d="M321.24 181.071C326.759 183.646 332.803 186.202 339.411 188.72C343.69 187.968 348.308 186.051 352.419 181.954C347.557 180.545 342.752 178.966 338.078 177.218C334.098 178.778 328.242 180.507 321.222 181.071H321.24Z" fill="#649BFC"/>
<path d="M292.859 164.589C296.745 167.539 301.231 170.509 306.356 173.459C310.448 172.67 315.084 171.336 319.796 169.043C316.642 167.352 313.62 165.529 310.804 163.593C306.693 164.57 300.255 165.547 292.859 164.589Z" fill="#649BFC"/>
<path fill-rule="evenodd" clip-rule="evenodd" d="M526.675 123.926L538.29 126.866L537.322 139.38L525.407 140.516L525.39 140.466C524.439 143.173 523.154 145.712 521.552 148.035L521.619 148.001L527.76 158.293L523.004 162.387L518.232 166.463L509.004 158.828L509.054 158.778C506.517 159.997 503.797 160.883 500.977 161.417L501.044 161.434L498.107 173.063L485.608 172.11L484.473 160.164H484.557C481.837 159.212 479.3 157.909 476.981 156.322L477.014 156.372L466.718 162.52L458.558 152.997L466.184 143.758L466.251 143.791C465.016 141.252 464.132 138.545 463.598 135.705L463.581 135.771L451.967 132.848L452.935 120.334L464.849 119.198L464.866 119.264C465.817 116.541 467.102 114.002 468.704 111.679L468.637 111.713L462.496 101.421L467.252 97.3274L472.008 93.2341L481.253 100.886L481.203 100.936C483.739 99.7166 486.459 98.8144 489.279 98.2965L489.213 98.2798L492.133 86.6513L504.648 87.6036L505.766 99.5328L505.699 99.5495C508.419 100.502 510.956 101.788 513.275 103.392L513.242 103.325L523.538 97.177L527.61 101.955L531.698 106.717L524.072 115.956L524.005 115.923C525.24 118.446 526.125 121.152 526.659 123.976L526.675 123.926ZM496.321 114.202C487.694 113.534 480.151 120.016 479.484 128.654C478.833 137.309 485.291 144.86 493.935 145.512C502.562 146.18 510.105 139.698 510.772 131.06C511.423 122.405 504.965 114.854 496.321 114.202Z" fill="#649BFC"/>
<path fill-rule="evenodd" clip-rule="evenodd" d="M543.747 186.696L549.838 188.417L549.504 191.725L549.154 195.016L542.829 195.434V195.401C542.295 196.787 541.578 198.124 540.693 199.344L540.727 199.327L543.814 204.857L538.657 209.034L533.902 204.857L533.935 204.824C532.533 205.459 531.098 205.876 529.63 206.11L529.663 206.127L527.928 212.208L521.353 211.523L520.936 205.208L520.969 205.191C519.567 204.673 518.249 203.955 517.014 203.053L517.031 203.086L511.507 206.177L508.003 204.84L511.507 196.253L511.541 196.286C510.923 194.883 510.489 193.446 510.273 191.976L510.256 192.009L504.165 190.288L504.515 186.98L504.866 183.689L511.174 183.271V183.304C511.708 181.901 512.425 180.581 513.326 179.345L513.293 179.378L510.206 173.848L515.345 169.671L520.101 173.848L520.085 173.865C521.47 173.246 522.921 172.829 524.39 172.595L524.357 172.578L526.075 166.48L529.363 166.831L532.667 167.182L533.084 173.497H533.051C534.436 174.032 535.754 174.75 536.989 175.636L536.972 175.619L542.495 172.528L546.667 177.674L542.495 182.452L542.479 182.436C543.096 183.822 543.513 185.259 543.747 186.729V186.696ZM533.434 184.123C530.547 180.564 525.341 180.013 521.787 182.903C518.216 185.794 517.682 191.007 520.552 194.565C523.439 198.141 528.645 198.675 532.216 195.802C535.771 192.911 536.321 187.698 533.434 184.123Z" fill="#0660FC"/>
<path d="M162.853 250.984C158.554 243.184 147.367 243.184 143.068 250.984L86.5118 353.748C82.3634 361.284 87.807 370.512 96.404 370.512L209.648 370.455C218.245 370.455 223.689 361.209 219.541 353.672L162.853 250.984Z" fill="#FFDDA7"/>
<path fill-rule="evenodd" clip-rule="evenodd" d="M223.275 351.605C225.978 356.473 225.903 362.261 223.068 367.072C220.234 371.865 215.222 374.74 209.647 374.74L96.4026 374.797C90.8465 374.815 85.8159 371.94 82.9815 367.148C80.1471 362.336 80.072 356.567 82.7562 351.68L139.332 248.916C142.11 243.861 147.197 240.854 152.959 240.854C158.722 240.835 163.827 243.861 166.606 248.897L223.275 351.605ZM215.766 355.759L159.097 253.051C157.84 250.796 155.55 249.424 152.959 249.424C150.369 249.442 148.06 250.796 146.821 253.07L90.2458 355.834C89.0445 358.033 89.082 360.626 90.3584 362.787C91.6348 364.949 93.8873 366.246 96.4026 366.227L209.647 366.17C212.144 366.17 214.396 364.874 215.672 362.712C216.949 360.551 216.986 357.957 215.766 355.759Z" fill="#FF9F0A"/>
<path d="M161.128 329.429L163.418 273.63H142.488L144.816 329.447L161.128 329.429Z" fill="white"/>
<path d="M160.996 341.062C160.045 340.147 158.893 339.439 157.542 338.938C156.178 338.425 154.657 338.168 152.98 338.168C151.304 338.168 149.796 338.425 148.457 338.938C147.118 339.452 145.973 340.16 145.022 341.062C144.071 341.977 143.339 343.054 142.825 344.294C142.3 345.535 142.037 346.882 142.037 348.335C142.037 349.801 142.3 351.142 142.825 352.357C143.351 353.572 144.089 354.637 145.04 355.552C145.991 356.454 147.137 357.162 148.476 357.676C149.814 358.177 151.322 358.427 152.999 358.427C154.676 358.427 156.19 358.17 157.542 357.657C158.906 357.156 160.063 356.448 161.014 355.533C161.965 354.631 162.698 353.572 163.211 352.357C163.736 351.129 163.999 349.788 163.999 348.335C163.999 346.869 163.736 345.516 163.211 344.276C162.685 343.035 161.947 341.964 160.996 341.062Z" fill="white"/>
<g opacity="0.5">
<path d="M288.235 117.935C281.727 124.451 281.727 135.01 288.235 141.526C294.743 148.025 305.272 148.025 311.78 141.526C318.288 135.01 318.288 124.451 311.78 117.935C305.272 111.436 294.743 111.436 288.235 117.935Z" fill="#ABC9FD"/>
<path d="M263.689 107.159C267.494 110.968 273.668 110.968 277.473 107.159C280.226 104.402 283.397 102.213 286.851 100.643L294.878 78.5554C283.097 79.7082 272.167 84.8708 263.689 93.3582C259.885 97.1675 259.885 103.349 263.689 107.159Z" fill="#ABC9FD"/>
<path d="M317.338 81.2954C316.515 82.4315 315.692 83.5732 314.869 84.7205C311.481 89.4153 308.194 93.9931 305.057 98.2034C311.665 99.256 317.739 102.347 322.545 107.159C324.447 109.063 326.95 110.016 329.437 110.016C331.94 110.016 334.426 109.063 336.328 107.159C340.133 103.349 340.133 97.1676 336.328 93.3582C330.872 87.8949 324.414 83.8182 317.338 81.2954Z" fill="#ABC9FD"/>
<path d="M285.482 47.4292C268.711 50.353 253.276 58.3392 240.994 70.636C237.189 74.462 237.189 80.6271 240.994 84.4364C244.799 88.2457 250.973 88.2457 254.778 84.4364C260.318 78.8895 266.709 74.4787 273.668 71.321C273.389 70.9757 273.145 70.597 272.933 70.1849C271.832 67.9795 272.066 65.3898 273.534 63.4183L285.482 47.4292Z" fill="#ABC9FD"/>
<path d="M336.995 54.7639C336.661 55.7496 336.144 56.6685 335.443 57.4872C332.339 61.096 328.768 65.724 325.03 70.753C332.489 73.9274 339.331 78.5387 345.238 84.4364C347.141 86.3411 349.644 87.2934 352.13 87.2934C354.633 87.2934 357.12 86.3411 359.022 84.4364C362.827 80.6271 362.827 74.462 359.022 70.636C352.481 64.0867 345.038 58.757 336.995 54.7639Z" fill="#ABC9FD"/>
<path d="M218.25 47.8804C214.445 51.6897 214.445 57.8715 218.25 61.6641C220.152 63.5855 222.655 64.5378 225.142 64.5378C227.645 64.5378 230.148 63.5855 232.034 61.6641C249.188 44.4888 271.716 34.5979 295.812 33.562L310.13 14.3985C306.781 14.1089 303.41 13.9641 300.017 13.9641C269.112 13.9641 240.093 26.0102 218.25 47.8804Z" fill="#ABC9FD"/>
<path d="M325.881 16.8545L317.805 35.1158C336.711 38.6411 354.099 47.7634 367.983 61.6641C371.788 65.4901 377.945 65.4734 381.767 61.6808C385.571 57.8715 385.571 51.6897 381.767 47.8804C366.164 32.2421 346.89 21.6328 325.881 16.8545Z" fill="#ABC9FD"/>
</g>
<path d="M329.287 47.8971H308.044L328.085 2.51941C328.936 0.581339 326.3 -0.972458 325.031 0.73171L276.572 65.6906C275.153 67.5785 276.705 70.2517 279.042 69.951L303.104 66.9938L288.787 106.357C288.003 108.529 290.806 110.166 292.291 108.412C303.538 95.1794 320.893 68.6311 332.574 55.0145C334.977 52.2243 332.974 47.8971 329.287 47.8971Z" fill="#181C32"/>
<path fill-rule="evenodd" clip-rule="evenodd" d="M175.712 67.4042C175.745 68.6907 175.161 69.7098 174.093 70.2445C173.476 70.5619 172.675 70.6956 171.774 70.6956C167.252 70.6956 159.742 67.187 154.653 63.1103C152.967 61.7737 151.599 60.4204 150.564 59.1005C149.079 59.4848 147.728 60.2199 147.778 61.6735C147.828 63.6951 148.796 66.0342 150.247 68.2897C155.103 67.872 162.529 70.5786 164.715 73.8199C165.583 75.1063 165.6 76.4262 164.782 77.5624C163.714 79.0326 161.928 79.4503 159.742 78.782C157.006 77.9299 153.685 75.4071 150.865 72.0322C150.353 71.4196 149.875 70.8014 149.43 70.1776C149.385 70.1776 149.346 70.1832 149.313 70.1943C147.461 70.6621 147.344 71.7481 147.31 72.099C146.676 78.381 152.166 82.5078 152.233 82.5412L151.199 83.9446C150.948 83.7609 144.857 79.2164 145.592 71.9319C145.742 70.3614 146.743 69.2086 148.428 68.6572C146.943 66.1845 146.092 63.7787 146.042 61.7236C145.992 59.7856 147.227 58.3654 149.53 57.5969C148.362 55.6421 147.945 53.7708 148.362 52.1001C148.796 50.3124 149.83 49.0426 151.432 48.3409C157.84 45.5507 171.707 53.2696 172.291 53.6038L171.44 55.1242C167.652 52.9856 156.789 47.9065 152.116 49.9448C151.015 50.4126 150.347 51.248 150.03 52.5011C149.713 53.8544 150.164 55.4583 151.315 57.1792C152.005 57.0678 152.756 57.001 153.568 56.9787C157.79 56.8617 163.163 57.8976 167.569 59.702C172.725 61.8239 175.629 64.5639 175.712 67.4042ZM151.449 69.9939C154.019 73.3688 157.49 76.2592 160.26 77.128C161.728 77.5791 162.763 77.3786 163.38 76.5432C163.647 76.1923 163.864 75.6577 163.28 74.7889C161.611 72.3329 155.621 70.0607 151.449 69.9939ZM173.977 67.4543C173.91 65.3993 171.273 63.0936 166.918 61.3059C162.713 59.5851 157.623 58.5993 153.618 58.7163C153.318 58.7163 152.951 58.733 152.55 58.7664C153.401 59.7521 154.469 60.7546 155.721 61.757C158.674 64.1128 162.379 66.2346 165.9 67.6047C170.923 69.5427 172.842 68.9246 173.326 68.6907C173.659 68.5236 173.993 68.2396 173.977 67.4543Z" fill="#181C32"/>
<path d="M324.226 373.613H438.803V350.29H324.226V373.613Z" fill="#FF9F0A"/>
<path d="M331.378 355.947H341.852L344.649 350.29H334.194L331.378 355.947Z" fill="#999999"/>
<path d="M354.953 355.947H365.409L368.205 350.29H357.75L354.953 355.947Z" fill="#999999"/>
<path d="M378.51 355.947H388.965L391.781 350.29H381.307L378.51 355.947Z" fill="#999999"/>
<path d="M402.068 355.947H412.524L415.321 350.29H404.884L402.068 355.947Z" fill="#999999"/>
<path d="M425.645 355.947H436.081L438.803 350.44V350.29H428.441L425.645 355.947Z" fill="#999999"/>
<path d="M338.49 405.506H346.562V373.613H338.49V405.506Z" fill="#F3CE90"/>
<g opacity="0.4">
<path d="M344.743 405.506H346.564V373.613H344.743V405.506Z" fill="#EF7C59"/>
</g>
<path d="M417.104 405.506H425.175V373.613H417.104V405.506Z" fill="#F3CE90"/>
<g opacity="0.4">
<path d="M422.792 405.506H425.176V373.613H422.792V405.506Z" fill="#EF7C59"/>
</g>
<g opacity="0.4">
<path d="M338.49 377.597H346.562V373.594H338.49V377.597Z" fill="#EF7C59"/>
</g>
<g opacity="0.4">
<path d="M417.104 377.597H425.175V373.594H417.104V377.597Z" fill="#EF7C59"/>
</g>
<path d="M338.49 350.271H346.562V346.644H338.49V350.271Z" fill="#F3CE90"/>
<g opacity="0.4">
<path d="M344.743 350.271H346.564V346.644H344.743V350.271Z" fill="#EF7C59"/>
</g>
<path d="M417.104 350.271H425.175V346.644H417.104V350.271Z" fill="#F3CE90"/>
<g opacity="0.4">
<path d="M422.792 350.271H425.176V346.644H422.792V350.271Z" fill="#EF7C59"/>
</g>
<g opacity="0.4">
<path d="M338.49 350.271H346.562V349.82H338.49V350.271Z" fill="#EF7C59"/>
</g>
<g opacity="0.4">
<path d="M417.104 350.271H425.175V349.82H417.104V350.271Z" fill="#EF7C59"/>
</g>
<path d="M324.224 370.399V373.613H333.102L344.646 350.29H334.191L324.224 370.399Z" fill="#F3CE90"/>
<path d="M346.205 373.613H356.66L368.204 350.29H357.749L346.205 373.613Z" fill="#F3CE90"/>
<path d="M369.762 373.613H380.217L391.78 350.29H381.306L369.762 373.613Z" fill="#F3CE90"/>
<path d="M393.32 373.613H403.776L415.32 350.29H404.883L393.32 373.613Z" fill="#F3CE90"/>
<path d="M416.877 373.613H427.332L438.801 350.44L428.44 350.29L416.877 373.613Z" fill="#F3CE90"/>
<path d="M342.32 334.371C338.341 334.371 335.112 337.604 335.112 341.588C335.112 345.572 338.341 348.786 342.32 348.786C346.3 348.786 349.528 345.572 349.528 341.588C349.528 337.604 346.3 334.371 342.32 334.371Z" fill="#EF7C59"/>
<path d="M342.321 338.318C340.519 338.318 339.055 339.784 339.055 341.588C339.055 343.392 340.519 344.858 342.321 344.858C344.123 344.858 345.587 343.392 345.587 341.588C345.587 339.784 344.123 338.318 342.321 338.318Z" fill="#D1634A"/>
<path d="M421.083 334.371C417.122 334.371 413.894 337.604 413.894 341.588C413.894 345.572 417.122 348.786 421.083 348.786C425.062 348.786 428.291 345.572 428.291 341.588C428.291 337.604 425.062 334.371 421.083 334.371Z" fill="#EF7C59"/>
<path d="M421.082 338.318C419.28 338.318 417.835 339.784 417.835 341.588C417.835 343.392 419.28 344.858 421.082 344.858C422.884 344.858 424.348 343.392 424.348 341.588C424.348 339.784 422.884 338.318 421.082 338.318Z" fill="#D1634A"/>
<path d="M455.006 24.349H414.856C412.654 24.349 410.868 26.1367 410.868 28.3421V68.5404C410.868 70.7625 412.654 72.5502 414.856 72.5502H455.006C457.225 72.5502 459.011 70.7625 459.011 68.5404V28.3421C459.011 26.1367 457.225 24.349 455.006 24.349Z" fill="#FF9F0A"/>
<path fill-rule="evenodd" clip-rule="evenodd" d="M450.32 47.5389C450.32 53.5536 446.966 56.6612 442.944 56.6612C440.591 56.6612 438.856 55.7423 437.971 53.9212C437.087 55.6588 435.585 56.6612 433.199 56.6612C429.795 56.6612 426.541 53.6706 426.541 48.8254C426.541 43.9802 429.711 41.023 433.199 41.023C434.868 41.023 436.153 41.5576 437.07 42.5601V41.307H443.094V50.3124C443.094 51.6323 443.628 52.0333 444.329 52.0333C445.214 52.0333 445.931 51.1477 445.931 47.6225C445.931 41.9252 441.676 37.8987 435.201 37.8987C428.76 37.8987 424.421 42.4431 424.421 48.4244C424.421 54.5895 428.677 58.9836 435.085 58.9836C437.154 58.9836 439.29 58.5826 441.426 57.6136L442.761 61.473C440.875 62.3919 437.888 62.9934 435.085 62.9934C425.623 62.9934 419.549 56.6612 419.549 48.4244C419.549 40.2879 425.623 33.9056 435.201 33.9056C444.262 33.9056 450.32 39.9871 450.32 47.5389ZM437.187 48.8254C437.187 46.9375 436.219 45.9684 434.934 45.9684C433.633 45.9684 432.698 46.9375 432.698 48.8254C432.698 50.7468 433.633 51.7158 434.934 51.7158C436.219 51.7158 437.187 50.7468 437.187 48.8254Z" fill="white"/>
</svg>
