<svg width="40" height="40" viewBox="0 0 40 40" fill="none" xmlns="http://www.w3.org/2000/svg">
<g clip-path="url(#clip0_2_1182)">
<rect width="40" height="40" rx="20" fill="#0660FC"/>
<path d="M22.5307 22.909C24.0981 21.3416 24.092 18.7986 22.5173 17.2387L16.6994 11.4758C15.8794 10.6635 14.5539 10.6775 13.7512 11.5069C12.9644 12.32 12.975 13.6139 13.7751 14.414L16.6187 17.2576C18.1734 18.8123 18.1818 21.3303 16.6376 22.8954L13.7571 25.8149C12.9654 26.6172 12.9592 27.9047 13.743 28.7147C14.5491 29.5476 15.8812 29.5585 16.7008 28.7389L22.5307 22.909Z" fill="white"/>
<path d="M28.1975 22.909C29.7648 21.3416 29.7588 18.7986 28.184 17.2387L22.3662 11.4758C21.5462 10.6635 20.2206 10.6775 19.418 11.5069C18.6311 12.32 18.6417 13.6139 19.4418 14.414L22.2854 17.2576C23.8401 18.8123 23.8486 21.3303 22.3043 22.8954L19.4238 25.8149C18.6322 26.6172 18.626 27.9047 19.4098 28.7147C20.2158 29.5476 21.5479 29.5585 22.3675 28.7389L28.1975 22.909Z" fill="white" fill-opacity="0.2"/>
</g>
<defs>
<clipPath id="clip0_2_1182">
<rect width="40" height="40" rx="20" fill="white"/>
</clipPath>
</defs>
</svg>
