<svg width="18" height="18" viewBox="0 0 18 18" fill="none" xmlns="http://www.w3.org/2000/svg">
<path d="M16.1251 14.5649L13.7476 12.3149C13.2955 12.8969 12.7538 13.4033 12.1426 13.8149L14.5876 16.1399C14.6904 16.26 14.8175 16.3569 14.9605 16.4242C15.1036 16.4916 15.2592 16.5278 15.4173 16.5305C15.5753 16.5332 15.7322 16.5023 15.8774 16.44C16.0227 16.3776 16.153 16.2851 16.2599 16.1686C16.3668 16.0521 16.4477 15.9143 16.4974 15.7642C16.547 15.6141 16.5643 15.4552 16.548 15.298C16.5317 15.1408 16.4822 14.9888 16.4029 14.8521C16.3235 14.7154 16.216 14.597 16.0876 14.5049L16.1251 14.5649Z" fill="#A1A5B7"/>
<path opacity="0.3" d="M8.35498 1.5C7.01996 1.5 5.71492 1.89588 4.60488 2.63758C3.49485 3.37928 2.62969 4.43349 2.1188 5.66689C1.60791 6.90029 1.47423 8.25749 1.73468 9.56686C1.99513 10.8762 2.63801 12.079 3.58201 13.023C4.52602 13.967 5.72875 14.6098 7.03812 14.8703C8.3475 15.1308 9.7047 14.9971 10.9381 14.4862C12.1715 13.9753 13.2257 13.1101 13.9674 12.0001C14.7091 10.8901 15.105 9.58502 15.105 8.25C15.105 6.45979 14.3938 4.7429 13.128 3.47703C11.8621 2.21116 10.1452 1.5 8.35498 1.5ZM8.35498 13.02C7.41337 13.02 6.49289 12.7409 5.70986 12.2179C4.92684 11.6949 4.31641 10.9516 3.95573 10.0818C3.59505 9.21196 3.5003 8.25477 3.68345 7.33114C3.86661 6.40751 4.31945 5.5589 4.98474 4.89255C5.65004 4.22621 6.49794 3.77203 7.42128 3.58743C8.34462 3.40282 9.30196 3.49606 10.1723 3.85537C11.0427 4.21469 11.787 4.82394 12.3112 5.60614C12.8354 6.38834 13.116 7.30839 13.1175 8.25C13.1195 8.87633 12.9977 9.49688 12.7591 10.076C12.5206 10.6551 12.17 11.1814 11.7274 11.6247C11.2849 12.0679 10.7592 12.4193 10.1804 12.6588C9.60167 12.8982 8.98131 13.021 8.35498 13.02Z" fill="#A1A5B7"/>
</svg>
