<svg width="20" height="20" viewBox="0 0 20 20" fill="none" xmlns="http://www.w3.org/2000/svg">
<path opacity="0.3" d="M13.3834 1.7168H6.61675C3.88294 1.7168 1.66675 3.93299 1.66675 6.6668V13.3585C1.66675 16.0923 3.88294 18.3085 6.61675 18.3085H13.3834C16.1172 18.3085 18.3334 16.0923 18.3334 13.3585V6.6668C18.3334 3.93299 16.1172 1.7168 13.3834 1.7168Z" fill="#A1A5B7"/>
<path d="M14.3167 7.0666L13.825 6.6666C13.6801 6.55643 13.503 6.49679 13.3209 6.49679C13.1388 6.49679 12.9617 6.55643 12.8167 6.6666L12.3334 7.0666C12.2113 7.15374 12.068 7.20631 11.9185 7.21878C11.769 7.23124 11.619 7.20314 11.4842 7.13744C11.3493 7.07173 11.2347 6.97086 11.1525 6.84546C11.0702 6.72005 11.0233 6.57477 11.0167 6.42493V1.72493C11.0167 1.50392 11.1045 1.29196 11.2608 1.13568C11.4171 0.979399 11.629 0.891602 11.85 0.891602H14.8417C15.0627 0.891602 15.2747 0.979399 15.431 1.13568C15.5872 1.29196 15.675 1.50392 15.675 1.72493V6.42493C15.674 6.58192 15.6287 6.73542 15.5442 6.86776C15.4597 7.0001 15.3396 7.10589 15.1977 7.17294C15.0557 7.24 14.8977 7.26559 14.7419 7.24678C14.586 7.22797 14.4386 7.16551 14.3167 7.0666ZM11.55 9.99994C11.5511 9.91607 11.5356 9.83281 11.5042 9.75501C11.4729 9.67721 11.4264 9.6064 11.3675 9.5467C11.3086 9.48701 11.2384 9.43961 11.161 9.40726C11.0836 9.37491 11.0006 9.35826 10.9167 9.35827H6.66671C6.58283 9.35826 6.49979 9.37491 6.4224 9.40726C6.34501 9.43961 6.27482 9.48701 6.2159 9.5467C6.15698 9.6064 6.1105 9.67721 6.07917 9.75501C6.04784 9.83281 6.03227 9.91607 6.03337 9.99994C6.03227 10.0842 6.04778 10.1679 6.07901 10.2461C6.11025 10.3244 6.15659 10.3958 6.21541 10.4561C6.27422 10.5165 6.34434 10.5647 6.42178 10.5979C6.49921 10.6312 6.58244 10.6488 6.66671 10.6499H10.9167C11.001 10.6488 11.0842 10.6312 11.1616 10.5979C11.2391 10.5647 11.3092 10.5165 11.368 10.4561C11.4268 10.3958 11.4732 10.3244 11.5044 10.2461C11.5356 10.1679 11.5511 10.0842 11.55 9.99994ZM13.4834 13.2749C13.4834 13.104 13.4161 12.9399 13.2959 12.8182C13.1758 12.6966 13.0127 12.6271 12.8417 12.6249H6.10837C5.93598 12.6249 5.77065 12.6934 5.64875 12.8153C5.52686 12.9372 5.45837 13.1025 5.45837 13.2749C5.45837 13.4473 5.52686 13.6127 5.64875 13.7346C5.77065 13.8565 5.93598 13.9249 6.10837 13.9249H12.8417C13.0112 13.9228 13.1732 13.8545 13.293 13.7346C13.4129 13.6147 13.4812 13.4528 13.4834 13.2833V13.2749Z" fill="#A1A5B7"/>
</svg>
