<svg width="18" height="18" viewBox="0 0 18 18" fill="none" xmlns="http://www.w3.org/2000/svg">
<g opacity="0.3">
<path d="M12.615 16.5H2.24995C2.05104 16.5 1.86028 16.421 1.71962 16.2803C1.57897 16.1397 1.49995 15.9489 1.49995 15.75V5.385C1.49995 4.35463 1.90927 3.36647 2.63784 2.63789C3.36642 1.90931 4.35459 1.5 5.38495 1.5H12.615C13.1251 1.5 13.6303 1.60049 14.1017 1.79573C14.573 1.99097 15.0013 2.27713 15.3621 2.63789C15.7228 2.99865 16.009 3.42693 16.2042 3.89827C16.3995 4.36962 16.5 4.87481 16.5 5.385V12.615C16.5 13.1252 16.3995 13.6304 16.2042 14.1017C16.009 14.5731 15.7228 15.0014 15.3621 15.3621C15.0013 15.7229 14.573 16.009 14.1017 16.2043C13.6303 16.3995 13.1251 16.5 12.615 16.5Z" fill="#A1A5B7"/>
</g>
<path d="M8.42234 5.80478L8.97734 5.05478C9.087 4.90282 9.22615 4.77451 9.38649 4.6775C9.54683 4.5805 9.72507 4.5168 9.91057 4.4902C10.0961 4.4636 10.285 4.47465 10.4662 4.52268C10.6473 4.57072 10.8169 4.65476 10.9648 4.76979L12.2173 5.73729C12.5131 5.97748 12.7063 6.32121 12.7578 6.69868C12.8094 7.07616 12.7153 7.45911 12.4948 7.76978L11.9398 8.51978C11.5312 8.60248 11.1094 8.595 10.704 8.49784C10.2985 8.40069 9.91913 8.21621 9.59234 7.95728C9.25685 7.70102 8.97922 7.37683 8.7776 7.00591C8.57599 6.63499 8.45493 6.2257 8.42234 5.80478ZM8.96984 8.80478C8.34555 8.3194 7.87214 7.66652 7.60484 6.92228L5.50484 9.74978C5.34213 9.98044 5.25321 10.255 5.24984 10.5373V12.4273C5.24353 12.5929 5.27595 12.7576 5.34451 12.9085C5.41307 13.0593 5.51589 13.1921 5.64478 13.2963C5.77368 13.4004 5.92509 13.473 6.08698 13.5083C6.24888 13.5437 6.41678 13.5407 6.57734 13.4998L8.34734 12.9598C8.6177 12.8798 8.85465 12.7139 9.02234 12.4873L11.1148 9.65228C10.3422 9.57708 9.6077 9.28017 8.99984 8.79728L8.96984 8.80478Z" fill="#A1A5B7"/>
</svg>
