<svg width="12" height="12" viewBox="0 0 12 12" fill="none" xmlns="http://www.w3.org/2000/svg">
<g opacity="0.3">
<path d="M8.40805 10.998H1.49805C1.36544 10.998 1.23826 10.9454 1.14449 10.8516C1.05073 10.7578 0.998047 10.6307 0.998047 10.498V3.58805C0.998047 2.90114 1.27092 2.24236 1.75664 1.75664C2.24236 1.27092 2.90114 0.998047 3.58805 0.998047H8.40805C8.74817 0.998047 9.08496 1.06504 9.3992 1.1952C9.71343 1.32536 9.99895 1.51614 10.2395 1.75664C10.48 1.99714 10.6707 2.28266 10.8009 2.5969C10.9311 2.91113 10.998 3.24792 10.998 3.58805V8.40805C10.998 8.74817 10.9311 9.08496 10.8009 9.3992C10.6707 9.71343 10.48 9.99895 10.2395 10.2395C9.99895 10.48 9.71343 10.6707 9.3992 10.8009C9.08496 10.9311 8.74817 10.998 8.40805 10.998V10.998Z" fill="#7E8299"/>
</g>
<path d="M8.37816 5.12305H3.61816C3.51871 5.12305 3.42333 5.08354 3.353 5.01321C3.28267 4.94289 3.24316 4.8475 3.24316 4.74805C3.24316 4.64859 3.28267 4.55321 3.353 4.48288C3.42333 4.41256 3.51871 4.37305 3.61816 4.37305H8.37816C8.47762 4.37305 8.573 4.41256 8.64333 4.48288C8.71366 4.55321 8.75316 4.64859 8.75316 4.74805C8.75316 4.8475 8.71366 4.94289 8.64333 5.01321C8.573 5.08354 8.47762 5.12305 8.37816 5.12305V5.12305Z" fill="#7E8299"/>
<path d="M6.79316 7.62305H3.61816C3.51871 7.62305 3.42333 7.58354 3.353 7.51321C3.28267 7.44289 3.24316 7.3475 3.24316 7.24805C3.24316 7.14859 3.28267 7.05321 3.353 6.98288C3.42333 6.91256 3.51871 6.87305 3.61816 6.87305H6.79316C6.89262 6.87305 6.988 6.91256 7.05833 6.98288C7.12866 7.05321 7.16816 7.14859 7.16816 7.24805C7.16816 7.3475 7.12866 7.44289 7.05833 7.51321C6.988 7.58354 6.89262 7.62305 6.79316 7.62305V7.62305Z" fill="#7E8299"/>
</svg>
