<svg width="515" height="334" viewBox="0 0 515 334" fill="none" xmlns="http://www.w3.org/2000/svg">
<g filter="url(#filter0_d_472_24974)">
<rect width="457" height="276" rx="12" transform="matrix(-1 0 0 1 486 17)" fill="white"/>
<path d="M151.47 160.5V153.03L144.42 139.5H148.77L153.42 149.19L158.04 139.5H162.33L155.31 153.03V160.5H151.47ZM169.174 160.86C167.734 160.86 166.434 160.53 165.274 159.87C164.134 159.21 163.224 158.3 162.544 157.14C161.884 155.96 161.554 154.6 161.554 153.06C161.554 151.52 161.894 150.17 162.574 149.01C163.254 147.83 164.164 146.91 165.304 146.25C166.464 145.59 167.764 145.26 169.204 145.26C170.624 145.26 171.904 145.59 173.044 146.25C174.204 146.91 175.114 147.83 175.774 149.01C176.454 150.17 176.794 151.52 176.794 153.06C176.794 154.6 176.454 155.96 175.774 157.14C175.114 158.3 174.204 159.21 173.044 159.87C171.884 160.53 170.594 160.86 169.174 160.86ZM169.174 157.53C170.174 157.53 171.044 157.16 171.784 156.42C172.524 155.66 172.894 154.54 172.894 153.06C172.894 151.58 172.524 150.47 171.784 149.73C171.044 148.97 170.184 148.59 169.204 148.59C168.184 148.59 167.304 148.97 166.564 149.73C165.844 150.47 165.484 151.58 165.484 153.06C165.484 154.54 165.844 155.66 166.564 156.42C167.304 157.16 168.174 157.53 169.174 157.53ZM185.807 160.86C183.947 160.86 182.507 160.28 181.487 159.12C180.487 157.96 179.987 156.26 179.987 154.02V145.62H183.797V153.66C183.797 154.94 184.057 155.92 184.577 156.6C185.097 157.28 185.917 157.62 187.037 157.62C188.097 157.62 188.967 157.24 189.647 156.48C190.347 155.72 190.697 154.66 190.697 153.3V145.62H194.537V160.5H191.147L190.847 157.98C190.387 158.86 189.717 159.56 188.837 160.08C187.977 160.6 186.967 160.86 185.807 160.86ZM205.628 160.5V138.9H209.468V147.9C209.968 147.08 210.638 146.44 211.478 145.98C212.338 145.5 213.318 145.26 214.418 145.26C216.258 145.26 217.678 145.84 218.678 147C219.698 148.16 220.208 149.86 220.208 152.1V160.5H216.398V152.46C216.398 151.18 216.138 150.2 215.618 149.52C215.118 148.84 214.318 148.5 213.218 148.5C212.138 148.5 211.238 148.88 210.518 149.64C209.818 150.4 209.468 151.46 209.468 152.82V160.5H205.628ZM229.01 160.86C227.73 160.86 226.68 160.66 225.86 160.26C225.04 159.84 224.43 159.29 224.03 158.61C223.63 157.93 223.43 157.18 223.43 156.36C223.43 154.98 223.97 153.86 225.05 153C226.13 152.14 227.75 151.71 229.91 151.71H233.69V151.35C233.69 150.33 233.4 149.58 232.82 149.1C232.24 148.62 231.52 148.38 230.66 148.38C229.88 148.38 229.2 148.57 228.62 148.95C228.04 149.31 227.68 149.85 227.54 150.57H223.79C223.89 149.49 224.25 148.55 224.87 147.75C225.51 146.95 226.33 146.34 227.33 145.92C228.33 145.48 229.45 145.26 230.69 145.26C232.81 145.26 234.48 145.79 235.7 146.85C236.92 147.91 237.53 149.41 237.53 151.35V160.5H234.26L233.9 158.1C233.46 158.9 232.84 159.56 232.04 160.08C231.26 160.6 230.25 160.86 229.01 160.86ZM229.88 157.86C230.98 157.86 231.83 157.5 232.43 156.78C233.05 156.06 233.44 155.17 233.6 154.11H230.33C229.31 154.11 228.58 154.3 228.14 154.68C227.7 155.04 227.48 155.49 227.48 156.03C227.48 156.61 227.7 157.06 228.14 157.38C228.58 157.7 229.16 157.86 229.88 157.86ZM244.775 160.5L239.315 145.62H243.335L247.115 156.87L250.895 145.62H254.915L249.425 160.5H244.775ZM263.834 160.86C262.334 160.86 261.004 160.54 259.844 159.9C258.684 159.26 257.774 158.36 257.114 157.2C256.454 156.04 256.124 154.7 256.124 153.18C256.124 151.64 256.444 150.27 257.084 149.07C257.744 147.87 258.644 146.94 259.784 146.28C260.944 145.6 262.304 145.26 263.864 145.26C265.324 145.26 266.614 145.58 267.734 146.22C268.854 146.86 269.724 147.74 270.344 148.86C270.984 149.96 271.304 151.19 271.304 152.55C271.304 152.77 271.294 153 271.274 153.24C271.274 153.48 271.264 153.73 271.244 153.99H259.934C260.014 155.15 260.414 156.06 261.134 156.72C261.874 157.38 262.764 157.71 263.804 157.71C264.584 157.71 265.234 157.54 265.754 157.2C266.294 156.84 266.694 156.38 266.954 155.82H270.854C270.574 156.76 270.104 157.62 269.444 158.4C268.804 159.16 268.004 159.76 267.044 160.2C266.104 160.64 265.034 160.86 263.834 160.86ZM263.864 148.38C262.924 148.38 262.094 148.65 261.374 149.19C260.654 149.71 260.194 150.51 259.994 151.59H267.404C267.344 150.61 266.984 149.83 266.324 149.25C265.664 148.67 264.844 148.38 263.864 148.38ZM281.682 160.5V138.9H285.522V160.5H281.682ZM296.586 160.86C295.146 160.86 293.846 160.53 292.686 159.87C291.546 159.21 290.636 158.3 289.956 157.14C289.296 155.96 288.966 154.6 288.966 153.06C288.966 151.52 289.306 150.17 289.986 149.01C290.666 147.83 291.576 146.91 292.716 146.25C293.876 145.59 295.176 145.26 296.616 145.26C298.036 145.26 299.316 145.59 300.456 146.25C301.616 146.91 302.526 147.83 303.186 149.01C303.866 150.17 304.206 151.52 304.206 153.06C304.206 154.6 303.866 155.96 303.186 157.14C302.526 158.3 301.616 159.21 300.456 159.87C299.296 160.53 298.006 160.86 296.586 160.86ZM296.586 157.53C297.586 157.53 298.456 157.16 299.196 156.42C299.936 155.66 300.306 154.54 300.306 153.06C300.306 151.58 299.936 150.47 299.196 149.73C298.456 148.97 297.596 148.59 296.616 148.59C295.596 148.59 294.716 148.97 293.976 149.73C293.256 150.47 292.896 151.58 292.896 153.06C292.896 154.54 293.256 155.66 293.976 156.42C294.716 157.16 295.586 157.53 296.586 157.53ZM313.002 156.06C312.282 156.06 311.612 155.98 310.992 155.82L309.882 156.93C310.222 157.11 310.682 157.26 311.262 157.38C311.842 157.5 312.782 157.62 314.082 157.74C316.062 157.92 317.502 158.39 318.402 159.15C319.302 159.91 319.752 160.96 319.752 162.3C319.752 163.18 319.512 164.01 319.032 164.79C318.552 165.59 317.812 166.23 316.812 166.71C315.812 167.21 314.532 167.46 312.972 167.46C310.852 167.46 309.142 167.06 307.842 166.26C306.542 165.48 305.892 164.3 305.892 162.72C305.892 161.38 306.542 160.22 307.842 159.24C307.442 159.06 307.092 158.87 306.792 158.67C306.512 158.47 306.262 158.26 306.042 158.04V157.35L308.652 154.59C307.492 153.57 306.912 152.26 306.912 150.66C306.912 149.66 307.152 148.75 307.632 147.93C308.132 147.11 308.832 146.46 309.732 145.98C310.632 145.5 311.722 145.26 313.002 145.26C313.842 145.26 314.622 145.38 315.342 145.62H320.982V147.96L318.432 148.14C318.832 148.9 319.032 149.74 319.032 150.66C319.032 151.66 318.792 152.57 318.312 153.39C317.832 154.21 317.132 154.86 316.212 155.34C315.312 155.82 314.242 156.06 313.002 156.06ZM313.002 153.12C313.782 153.12 314.422 152.91 314.922 152.49C315.442 152.07 315.702 151.47 315.702 150.69C315.702 149.91 315.442 149.31 314.922 148.89C314.422 148.47 313.782 148.26 313.002 148.26C312.182 148.26 311.522 148.47 311.022 148.89C310.522 149.31 310.272 149.91 310.272 150.69C310.272 151.47 310.522 152.07 311.022 152.49C311.522 152.91 312.182 153.12 313.002 153.12ZM309.402 162.33C309.402 163.07 309.742 163.62 310.422 163.98C311.122 164.36 311.972 164.55 312.972 164.55C313.932 164.55 314.712 164.35 315.312 163.95C315.912 163.57 316.212 163.05 316.212 162.39C316.212 161.85 316.012 161.4 315.612 161.04C315.232 160.68 314.462 160.46 313.302 160.38C312.482 160.32 311.722 160.23 311.022 160.11C310.442 160.43 310.022 160.78 309.762 161.16C309.522 161.54 309.402 161.93 309.402 162.33ZM330.336 160.86C328.896 160.86 327.596 160.53 326.436 159.87C325.296 159.21 324.386 158.3 323.706 157.14C323.046 155.96 322.716 154.6 322.716 153.06C322.716 151.52 323.056 150.17 323.736 149.01C324.416 147.83 325.326 146.91 326.466 146.25C327.626 145.59 328.926 145.26 330.366 145.26C331.786 145.26 333.066 145.59 334.206 146.25C335.366 146.91 336.276 147.83 336.936 149.01C337.616 150.17 337.956 151.52 337.956 153.06C337.956 154.6 337.616 155.96 336.936 157.14C336.276 158.3 335.366 159.21 334.206 159.87C333.046 160.53 331.756 160.86 330.336 160.86ZM330.336 157.53C331.336 157.53 332.206 157.16 332.946 156.42C333.686 155.66 334.056 154.54 334.056 153.06C334.056 151.58 333.686 150.47 332.946 149.73C332.206 148.97 331.346 148.59 330.366 148.59C329.346 148.59 328.466 148.97 327.726 149.73C327.006 150.47 326.646 151.58 326.646 153.06C326.646 154.54 327.006 155.66 327.726 156.42C328.466 157.16 329.336 157.53 330.336 157.53ZM346.969 160.86C345.109 160.86 343.669 160.28 342.649 159.12C341.649 157.96 341.149 156.26 341.149 154.02V145.62H344.959V153.66C344.959 154.94 345.219 155.92 345.739 156.6C346.259 157.28 347.079 157.62 348.199 157.62C349.259 157.62 350.129 157.24 350.809 156.48C351.509 155.72 351.859 154.66 351.859 153.3V145.62H355.699V160.5H352.309L352.009 157.98C351.549 158.86 350.879 159.56 349.999 160.08C349.139 160.6 348.129 160.86 346.969 160.86ZM366.271 160.5C364.711 160.5 363.461 160.12 362.521 159.36C361.581 158.6 361.111 157.25 361.111 155.31V148.83H358.561V145.62H361.111L361.561 141.63H364.951V145.62H368.971V148.83H364.951V155.34C364.951 156.06 365.101 156.56 365.401 156.84C365.721 157.1 366.261 157.23 367.021 157.23H368.881V160.5H366.271Z" fill="#3F4254"/>
<path d="M154.171 190V177.4H158.509C159.505 177.4 160.321 177.568 160.957 177.904C161.605 178.24 162.085 178.696 162.397 179.272C162.709 179.836 162.865 180.466 162.865 181.162C162.865 181.942 162.655 182.65 162.235 183.286C161.827 183.922 161.185 184.378 160.309 184.654L162.991 190H160.777L158.329 184.924H156.079V190H154.171ZM156.079 183.484H158.401C159.265 183.484 159.895 183.274 160.291 182.854C160.699 182.434 160.903 181.888 160.903 181.216C160.903 180.544 160.705 180.01 160.309 179.614C159.913 179.206 159.271 179.002 158.383 179.002H156.079V183.484ZM168.681 190.216C167.805 190.216 167.025 190.024 166.341 189.64C165.669 189.244 165.141 188.698 164.757 188.002C164.373 187.306 164.181 186.496 164.181 185.572C164.181 184.636 164.367 183.814 164.739 183.106C165.123 182.398 165.651 181.846 166.323 181.45C167.007 181.054 167.799 180.856 168.699 180.856C169.575 180.856 170.337 181.054 170.985 181.45C171.633 181.834 172.137 182.35 172.497 182.998C172.857 183.646 173.037 184.36 173.037 185.14C173.037 185.26 173.031 185.392 173.019 185.536C173.019 185.668 173.013 185.818 173.001 185.986H166.053C166.113 186.85 166.395 187.51 166.899 187.966C167.415 188.41 168.009 188.632 168.681 188.632C169.221 188.632 169.671 188.512 170.031 188.272C170.403 188.02 170.679 187.684 170.859 187.264H172.767C172.527 188.104 172.047 188.806 171.327 189.37C170.619 189.934 169.737 190.216 168.681 190.216ZM168.681 182.422C168.045 182.422 167.481 182.614 166.989 182.998C166.497 183.37 166.197 183.934 166.089 184.69H171.129C171.093 183.994 170.847 183.442 170.391 183.034C169.935 182.626 169.365 182.422 168.681 182.422ZM179.085 190.216C178.221 190.216 177.459 190.012 176.799 189.604C176.139 189.196 175.623 188.638 175.251 187.93C174.879 187.222 174.693 186.418 174.693 185.518C174.693 184.618 174.879 183.82 175.251 183.124C175.623 182.416 176.139 181.864 176.799 181.468C177.471 181.06 178.239 180.856 179.103 180.856C179.811 180.856 180.429 180.994 180.957 181.27C181.497 181.546 181.917 181.936 182.217 182.44V177.04H184.125V190H182.415L182.217 188.614C181.929 189.034 181.533 189.406 181.029 189.73C180.525 190.054 179.877 190.216 179.085 190.216ZM179.427 188.56C180.243 188.56 180.909 188.278 181.425 187.714C181.953 187.15 182.217 186.424 182.217 185.536C182.217 184.636 181.953 183.91 181.425 183.358C180.909 182.794 180.243 182.512 179.427 182.512C178.611 182.512 177.939 182.794 177.411 183.358C176.883 183.91 176.619 184.636 176.619 185.536C176.619 186.124 176.739 186.646 176.979 187.102C177.219 187.558 177.549 187.918 177.969 188.182C178.401 188.434 178.887 188.56 179.427 188.56ZM187.61 179.38C187.25 179.38 186.95 179.272 186.71 179.056C186.482 178.828 186.368 178.546 186.368 178.21C186.368 177.874 186.482 177.598 186.71 177.382C186.95 177.154 187.25 177.04 187.61 177.04C187.97 177.04 188.264 177.154 188.492 177.382C188.732 177.598 188.852 177.874 188.852 178.21C188.852 178.546 188.732 178.828 188.492 179.056C188.264 179.272 187.97 179.38 187.61 179.38ZM186.656 190V181.072H188.564V190H186.656ZM191.083 190V181.072H192.793L192.955 182.764C193.267 182.176 193.699 181.714 194.251 181.378C194.815 181.03 195.493 180.856 196.285 180.856V182.854H195.763C195.235 182.854 194.761 182.944 194.341 183.124C193.933 183.292 193.603 183.586 193.351 184.006C193.111 184.414 192.991 184.984 192.991 185.716V190H191.083ZM201.851 190.216C200.975 190.216 200.195 190.024 199.511 189.64C198.839 189.244 198.311 188.698 197.927 188.002C197.543 187.306 197.351 186.496 197.351 185.572C197.351 184.636 197.537 183.814 197.909 183.106C198.293 182.398 198.821 181.846 199.493 181.45C200.177 181.054 200.969 180.856 201.869 180.856C202.745 180.856 203.507 181.054 204.155 181.45C204.803 181.834 205.307 182.35 205.667 182.998C206.027 183.646 206.207 184.36 206.207 185.14C206.207 185.26 206.201 185.392 206.189 185.536C206.189 185.668 206.183 185.818 206.171 185.986H199.223C199.283 186.85 199.565 187.51 200.069 187.966C200.585 188.41 201.179 188.632 201.851 188.632C202.391 188.632 202.841 188.512 203.201 188.272C203.573 188.02 203.849 187.684 204.029 187.264H205.937C205.697 188.104 205.217 188.806 204.497 189.37C203.789 189.934 202.907 190.216 201.851 190.216ZM201.851 182.422C201.215 182.422 200.651 182.614 200.159 182.998C199.667 183.37 199.367 183.934 199.259 184.69H204.299C204.263 183.994 204.017 183.442 203.561 183.034C203.105 182.626 202.535 182.422 201.851 182.422ZM212.416 190.216C211.54 190.216 210.754 190.018 210.058 189.622C209.374 189.226 208.834 188.68 208.438 187.984C208.054 187.276 207.862 186.46 207.862 185.536C207.862 184.612 208.054 183.802 208.438 183.106C208.834 182.398 209.374 181.846 210.058 181.45C210.754 181.054 211.54 180.856 212.416 180.856C213.52 180.856 214.444 181.144 215.188 181.72C215.944 182.296 216.43 183.076 216.646 184.06H214.648C214.528 183.568 214.264 183.184 213.856 182.908C213.448 182.632 212.968 182.494 212.416 182.494C211.948 182.494 211.516 182.614 211.12 182.854C210.724 183.082 210.406 183.424 210.166 183.88C209.926 184.324 209.806 184.876 209.806 185.536C209.806 186.196 209.926 186.754 210.166 187.21C210.406 187.654 210.724 187.996 211.12 188.236C211.516 188.476 211.948 188.596 212.416 188.596C212.968 188.596 213.448 188.458 213.856 188.182C214.264 187.906 214.528 187.516 214.648 187.012H216.646C216.442 187.972 215.962 188.746 215.206 189.334C214.45 189.922 213.52 190.216 212.416 190.216ZM222.284 190C221.408 190 220.712 189.79 220.196 189.37C219.68 188.938 219.422 188.176 219.422 187.084V182.674H217.892V181.072H219.422L219.656 178.804H221.33V181.072H223.85V182.674H221.33V187.084C221.33 187.576 221.432 187.918 221.636 188.11C221.852 188.29 222.218 188.38 222.734 188.38H223.76V190H222.284ZM226.897 179.38C226.537 179.38 226.237 179.272 225.997 179.056C225.769 178.828 225.655 178.546 225.655 178.21C225.655 177.874 225.769 177.598 225.997 177.382C226.237 177.154 226.537 177.04 226.897 177.04C227.257 177.04 227.551 177.154 227.779 177.382C228.019 177.598 228.139 177.874 228.139 178.21C228.139 178.546 228.019 178.828 227.779 179.056C227.551 179.272 227.257 179.38 226.897 179.38ZM225.943 190V181.072H227.851V190H225.943ZM230.37 190V181.072H232.062L232.206 182.638C232.482 182.086 232.884 181.654 233.412 181.342C233.952 181.018 234.57 180.856 235.266 180.856C236.346 180.856 237.192 181.192 237.804 181.864C238.428 182.536 238.74 183.538 238.74 184.87V190H236.85V185.068C236.85 183.34 236.142 182.476 234.726 182.476C234.018 182.476 233.43 182.728 232.962 183.232C232.506 183.736 232.278 184.456 232.278 185.392V190H230.37ZM244.641 187.264C244.173 187.264 243.741 187.21 243.345 187.102L242.571 187.858C242.703 187.942 242.865 188.014 243.057 188.074C243.249 188.134 243.519 188.188 243.867 188.236C244.215 188.284 244.689 188.332 245.289 188.38C246.477 188.488 247.335 188.776 247.863 189.244C248.391 189.7 248.655 190.312 248.655 191.08C248.655 191.608 248.511 192.106 248.223 192.574C247.947 193.054 247.509 193.438 246.909 193.726C246.321 194.026 245.565 194.176 244.641 194.176C243.393 194.176 242.379 193.936 241.599 193.456C240.831 192.988 240.447 192.274 240.447 191.314C240.447 190.942 240.543 190.57 240.735 190.198C240.939 189.838 241.257 189.496 241.689 189.172C241.437 189.064 241.215 188.95 241.023 188.83C240.843 188.698 240.681 188.566 240.537 188.434V188.002L242.085 186.418C241.389 185.818 241.041 185.032 241.041 184.06C241.041 183.472 241.179 182.938 241.455 182.458C241.743 181.966 242.157 181.576 242.697 181.288C243.237 181 243.885 180.856 244.641 180.856C245.145 180.856 245.613 180.928 246.045 181.072H249.375V182.332L247.791 182.422C248.079 182.914 248.223 183.46 248.223 184.06C248.223 184.66 248.079 185.2 247.791 185.68C247.515 186.16 247.107 186.544 246.567 186.832C246.039 187.12 245.397 187.264 244.641 187.264ZM244.641 185.77C245.193 185.77 245.637 185.626 245.973 185.338C246.321 185.038 246.495 184.618 246.495 184.078C246.495 183.526 246.321 183.106 245.973 182.818C245.637 182.53 245.193 182.386 244.641 182.386C244.077 182.386 243.621 182.53 243.273 182.818C242.937 183.106 242.769 183.526 242.769 184.078C242.769 184.618 242.937 185.038 243.273 185.338C243.621 185.626 244.077 185.77 244.641 185.77ZM242.247 191.134C242.247 191.65 242.475 192.034 242.931 192.286C243.387 192.55 243.957 192.682 244.641 192.682C245.301 192.682 245.835 192.538 246.243 192.25C246.651 191.974 246.855 191.602 246.855 191.134C246.855 190.786 246.717 190.486 246.441 190.234C246.165 189.994 245.643 189.844 244.875 189.784C244.299 189.748 243.789 189.694 243.345 189.622C242.925 189.85 242.637 190.096 242.481 190.36C242.325 190.624 242.247 190.882 242.247 191.134ZM256.692 179.38C256.332 179.38 256.032 179.272 255.792 179.056C255.564 178.828 255.45 178.546 255.45 178.21C255.45 177.874 255.564 177.598 255.792 177.382C256.032 177.154 256.332 177.04 256.692 177.04C257.052 177.04 257.346 177.154 257.574 177.382C257.814 177.598 257.934 177.874 257.934 178.21C257.934 178.546 257.814 178.828 257.574 179.056C257.346 179.272 257.052 179.38 256.692 179.38ZM255.738 190V181.072H257.646V190H255.738ZM260.165 190V181.072H261.857L262.001 182.638C262.277 182.086 262.679 181.654 263.207 181.342C263.747 181.018 264.365 180.856 265.061 180.856C266.141 180.856 266.987 181.192 267.599 181.864C268.223 182.536 268.535 183.538 268.535 184.87V190H266.645V185.068C266.645 183.34 265.937 182.476 264.521 182.476C263.813 182.476 263.225 182.728 262.757 183.232C262.301 183.736 262.073 184.456 262.073 185.392V190H260.165ZM279.781 190.216C278.893 190.216 278.125 190.06 277.477 189.748C276.829 189.424 276.313 188.986 275.929 188.434C275.557 187.87 275.329 187.234 275.245 186.526H277.117C277.237 187.126 277.537 187.624 278.017 188.02C278.497 188.404 279.091 188.596 279.799 188.596C280.327 188.596 280.783 188.47 281.167 188.218C281.551 187.954 281.851 187.606 282.067 187.174C282.283 186.742 282.391 186.256 282.391 185.716C282.391 184.864 282.151 184.186 281.671 183.682C281.191 183.166 280.585 182.908 279.853 182.908C279.229 182.908 278.695 183.058 278.251 183.358C277.807 183.646 277.483 184.012 277.279 184.456H275.461L276.541 177.4H283.345V179.074H277.981L277.333 182.44C277.609 182.128 277.987 181.87 278.467 181.666C278.959 181.45 279.511 181.342 280.123 181.342C280.975 181.342 281.707 181.54 282.319 181.936C282.931 182.32 283.399 182.842 283.723 183.502C284.059 184.162 284.227 184.894 284.227 185.698C284.227 186.538 284.047 187.3 283.687 187.984C283.327 188.668 282.811 189.214 282.139 189.622C281.479 190.018 280.693 190.216 279.781 190.216ZM294.508 190.216C293.38 190.216 292.45 189.94 291.718 189.388C290.986 188.836 290.566 188.104 290.458 187.192H292.384C292.48 187.6 292.708 187.954 293.068 188.254C293.428 188.542 293.902 188.686 294.49 188.686C295.066 188.686 295.486 188.566 295.75 188.326C296.014 188.086 296.146 187.81 296.146 187.498C296.146 187.042 295.96 186.736 295.588 186.58C295.228 186.412 294.724 186.262 294.076 186.13C293.572 186.022 293.068 185.878 292.564 185.698C292.072 185.518 291.658 185.266 291.322 184.942C290.998 184.606 290.836 184.156 290.836 183.592C290.836 182.812 291.136 182.164 291.736 181.648C292.336 181.12 293.176 180.856 294.256 180.856C295.252 180.856 296.056 181.096 296.668 181.576C297.292 182.056 297.658 182.734 297.766 183.61H295.93C295.87 183.226 295.69 182.926 295.39 182.71C295.102 182.494 294.712 182.386 294.22 182.386C293.74 182.386 293.368 182.488 293.104 182.692C292.84 182.884 292.708 183.136 292.708 183.448C292.708 183.76 292.888 184.006 293.248 184.186C293.62 184.366 294.106 184.528 294.706 184.672C295.306 184.804 295.858 184.96 296.362 185.14C296.878 185.308 297.292 185.56 297.604 185.896C297.916 186.232 298.072 186.724 298.072 187.372C298.084 188.188 297.766 188.866 297.118 189.406C296.482 189.946 295.612 190.216 294.508 190.216ZM304.331 190.216C303.455 190.216 302.675 190.024 301.991 189.64C301.319 189.244 300.791 188.698 300.407 188.002C300.023 187.306 299.831 186.496 299.831 185.572C299.831 184.636 300.017 183.814 300.389 183.106C300.773 182.398 301.301 181.846 301.973 181.45C302.657 181.054 303.449 180.856 304.349 180.856C305.225 180.856 305.987 181.054 306.635 181.45C307.283 181.834 307.787 182.35 308.147 182.998C308.507 183.646 308.687 184.36 308.687 185.14C308.687 185.26 308.681 185.392 308.669 185.536C308.669 185.668 308.663 185.818 308.651 185.986H301.703C301.763 186.85 302.045 187.51 302.549 187.966C303.065 188.41 303.659 188.632 304.331 188.632C304.871 188.632 305.321 188.512 305.681 188.272C306.053 188.02 306.329 187.684 306.509 187.264H308.417C308.177 188.104 307.697 188.806 306.977 189.37C306.269 189.934 305.387 190.216 304.331 190.216ZM304.331 182.422C303.695 182.422 303.131 182.614 302.639 182.998C302.147 183.37 301.847 183.934 301.739 184.69H306.779C306.743 183.994 306.497 183.442 306.041 183.034C305.585 182.626 305.015 182.422 304.331 182.422ZM314.897 190.216C314.021 190.216 313.235 190.018 312.539 189.622C311.855 189.226 311.315 188.68 310.919 187.984C310.535 187.276 310.343 186.46 310.343 185.536C310.343 184.612 310.535 183.802 310.919 183.106C311.315 182.398 311.855 181.846 312.539 181.45C313.235 181.054 314.021 180.856 314.897 180.856C316.001 180.856 316.925 181.144 317.669 181.72C318.425 182.296 318.911 183.076 319.127 184.06H317.129C317.009 183.568 316.745 183.184 316.337 182.908C315.929 182.632 315.449 182.494 314.897 182.494C314.429 182.494 313.997 182.614 313.601 182.854C313.205 183.082 312.887 183.424 312.647 183.88C312.407 184.324 312.287 184.876 312.287 185.536C312.287 186.196 312.407 186.754 312.647 187.21C312.887 187.654 313.205 187.996 313.601 188.236C313.997 188.476 314.429 188.596 314.897 188.596C315.449 188.596 315.929 188.458 316.337 188.182C316.745 187.906 317.009 187.516 317.129 187.012H319.127C318.923 187.972 318.443 188.746 317.687 189.334C316.931 189.922 316.001 190.216 314.897 190.216ZM325.372 190.216C324.52 190.216 323.752 190.024 323.068 189.64C322.396 189.244 321.862 188.698 321.466 188.002C321.07 187.294 320.872 186.472 320.872 185.536C320.872 184.6 321.07 183.784 321.466 183.088C321.874 182.38 322.42 181.834 323.104 181.45C323.788 181.054 324.55 180.856 325.39 180.856C326.242 180.856 327.004 181.054 327.676 181.45C328.36 181.834 328.9 182.38 329.296 183.088C329.704 183.784 329.908 184.6 329.908 185.536C329.908 186.472 329.704 187.294 329.296 188.002C328.9 188.698 328.36 189.244 327.676 189.64C326.992 190.024 326.224 190.216 325.372 190.216ZM325.372 188.578C325.828 188.578 326.248 188.464 326.632 188.236C327.028 188.008 327.346 187.672 327.586 187.228C327.826 186.772 327.946 186.208 327.946 185.536C327.946 184.864 327.826 184.306 327.586 183.862C327.358 183.406 327.046 183.064 326.65 182.836C326.266 182.608 325.846 182.494 325.39 182.494C324.934 182.494 324.508 182.608 324.112 182.836C323.728 183.064 323.416 183.406 323.176 183.862C322.936 184.306 322.816 184.864 322.816 185.536C322.816 186.208 322.936 186.772 323.176 187.228C323.416 187.672 323.728 188.008 324.112 188.236C324.496 188.464 324.916 188.578 325.372 188.578ZM331.972 190V181.072H333.664L333.808 182.638C334.084 182.086 334.486 181.654 335.014 181.342C335.554 181.018 336.172 180.856 336.868 180.856C337.948 180.856 338.794 181.192 339.406 181.864C340.03 182.536 340.342 183.538 340.342 184.87V190H338.452V185.068C338.452 183.34 337.744 182.476 336.328 182.476C335.62 182.476 335.032 182.728 334.564 183.232C334.108 183.736 333.88 184.456 333.88 185.392V190H331.972ZM346.657 190.216C345.793 190.216 345.031 190.012 344.371 189.604C343.711 189.196 343.195 188.638 342.823 187.93C342.451 187.222 342.265 186.418 342.265 185.518C342.265 184.618 342.451 183.82 342.823 183.124C343.195 182.416 343.711 181.864 344.371 181.468C345.043 181.06 345.811 180.856 346.675 180.856C347.383 180.856 348.001 180.994 348.529 181.27C349.069 181.546 349.489 181.936 349.789 182.44V177.04H351.697V190H349.987L349.789 188.614C349.501 189.034 349.105 189.406 348.601 189.73C348.097 190.054 347.449 190.216 346.657 190.216ZM346.999 188.56C347.815 188.56 348.481 188.278 348.997 187.714C349.525 187.15 349.789 186.424 349.789 185.536C349.789 184.636 349.525 183.91 348.997 183.358C348.481 182.794 347.815 182.512 346.999 182.512C346.183 182.512 345.511 182.794 344.983 183.358C344.455 183.91 344.191 184.636 344.191 185.536C344.191 186.124 344.311 186.646 344.551 187.102C344.791 187.558 345.121 187.918 345.541 188.182C345.973 188.434 346.459 188.56 346.999 188.56ZM357.666 190.216C356.538 190.216 355.608 189.94 354.876 189.388C354.144 188.836 353.724 188.104 353.616 187.192H355.542C355.638 187.6 355.866 187.954 356.226 188.254C356.586 188.542 357.06 188.686 357.648 188.686C358.224 188.686 358.644 188.566 358.908 188.326C359.172 188.086 359.304 187.81 359.304 187.498C359.304 187.042 359.118 186.736 358.746 186.58C358.386 186.412 357.882 186.262 357.234 186.13C356.73 186.022 356.226 185.878 355.722 185.698C355.23 185.518 354.816 185.266 354.48 184.942C354.156 184.606 353.994 184.156 353.994 183.592C353.994 182.812 354.294 182.164 354.894 181.648C355.494 181.12 356.334 180.856 357.414 180.856C358.41 180.856 359.214 181.096 359.826 181.576C360.45 182.056 360.816 182.734 360.924 183.61H359.088C359.028 183.226 358.848 182.926 358.548 182.71C358.26 182.494 357.87 182.386 357.378 182.386C356.898 182.386 356.526 182.488 356.262 182.692C355.998 182.884 355.866 183.136 355.866 183.448C355.866 183.76 356.046 184.006 356.406 184.186C356.778 184.366 357.264 184.528 357.864 184.672C358.464 184.804 359.016 184.96 359.52 185.14C360.036 185.308 360.45 185.56 360.762 185.896C361.074 186.232 361.23 186.724 361.23 187.372C361.242 188.188 360.924 188.866 360.276 189.406C359.64 189.946 358.77 190.216 357.666 190.216Z" fill="#7E8299"/>
<path d="M216.104 243.216C214.916 243.216 213.878 242.946 212.99 242.406C212.102 241.866 211.412 241.11 210.92 240.138C210.428 239.166 210.182 238.032 210.182 236.736C210.182 235.452 210.434 234.318 210.938 233.334C211.442 232.35 212.156 231.582 213.08 231.03C214.016 230.466 215.12 230.184 216.392 230.184C217.832 230.184 219.032 230.532 219.992 231.228C220.952 231.924 221.576 232.884 221.864 234.108H219.704C219.512 233.436 219.134 232.908 218.57 232.524C218.006 232.14 217.28 231.948 216.392 231.948C215.072 231.948 214.034 232.374 213.278 233.226C212.522 234.078 212.144 235.254 212.144 236.754C212.144 238.254 212.516 239.424 213.26 240.264C214.004 241.104 214.994 241.524 216.23 241.524C217.478 241.524 218.414 241.17 219.038 240.462C219.674 239.754 220.046 238.812 220.154 237.636H216.734V236.16H222.08V243H220.334L220.172 241.146C219.752 241.806 219.224 242.316 218.588 242.676C217.952 243.036 217.124 243.216 216.104 243.216ZM228.499 243.216C227.647 243.216 226.879 243.024 226.195 242.64C225.523 242.244 224.989 241.698 224.593 241.002C224.197 240.294 223.999 239.472 223.999 238.536C223.999 237.6 224.197 236.784 224.593 236.088C225.001 235.38 225.547 234.834 226.231 234.45C226.915 234.054 227.677 233.856 228.517 233.856C229.369 233.856 230.131 234.054 230.803 234.45C231.487 234.834 232.027 235.38 232.423 236.088C232.831 236.784 233.035 237.6 233.035 238.536C233.035 239.472 232.831 240.294 232.423 241.002C232.027 241.698 231.487 242.244 230.803 242.64C230.119 243.024 229.351 243.216 228.499 243.216ZM228.499 241.578C228.955 241.578 229.375 241.464 229.759 241.236C230.155 241.008 230.473 240.672 230.713 240.228C230.953 239.772 231.073 239.208 231.073 238.536C231.073 237.864 230.953 237.306 230.713 236.862C230.485 236.406 230.173 236.064 229.777 235.836C229.393 235.608 228.973 235.494 228.517 235.494C228.061 235.494 227.635 235.608 227.239 235.836C226.855 236.064 226.543 236.406 226.303 236.862C226.063 237.306 225.943 237.864 225.943 238.536C225.943 239.208 226.063 239.772 226.303 240.228C226.543 240.672 226.855 241.008 227.239 241.236C227.623 241.464 228.043 241.578 228.499 241.578ZM243.378 243C242.502 243 241.806 242.79 241.29 242.37C240.774 241.938 240.516 241.176 240.516 240.084V235.674H238.986V234.072H240.516L240.75 231.804H242.424V234.072H244.944V235.674H242.424V240.084C242.424 240.576 242.526 240.918 242.73 241.11C242.946 241.29 243.312 241.38 243.828 241.38H244.854V243H243.378ZM250.859 243.216C250.007 243.216 249.239 243.024 248.555 242.64C247.883 242.244 247.349 241.698 246.953 241.002C246.557 240.294 246.359 239.472 246.359 238.536C246.359 237.6 246.557 236.784 246.953 236.088C247.361 235.38 247.907 234.834 248.591 234.45C249.275 234.054 250.037 233.856 250.877 233.856C251.729 233.856 252.491 234.054 253.163 234.45C253.847 234.834 254.387 235.38 254.783 236.088C255.191 236.784 255.395 237.6 255.395 238.536C255.395 239.472 255.191 240.294 254.783 241.002C254.387 241.698 253.847 242.244 253.163 242.64C252.479 243.024 251.711 243.216 250.859 243.216ZM250.859 241.578C251.315 241.578 251.735 241.464 252.119 241.236C252.515 241.008 252.833 240.672 253.073 240.228C253.313 239.772 253.433 239.208 253.433 238.536C253.433 237.864 253.313 237.306 253.073 236.862C252.845 236.406 252.533 236.064 252.137 235.836C251.753 235.608 251.333 235.494 250.877 235.494C250.421 235.494 249.995 235.608 249.599 235.836C249.215 236.064 248.903 236.406 248.663 236.862C248.423 237.306 248.303 237.864 248.303 238.536C248.303 239.208 248.423 239.772 248.663 240.228C248.903 240.672 249.215 241.008 249.599 241.236C249.983 241.464 250.403 241.578 250.859 241.578Z" fill="#7E8299"/>
<path d="M262.065 243V230.4H263.973V241.488H269.697V243H262.065ZM275.468 243.216C274.616 243.216 273.848 243.024 273.164 242.64C272.492 242.244 271.958 241.698 271.562 241.002C271.166 240.294 270.968 239.472 270.968 238.536C270.968 237.6 271.166 236.784 271.562 236.088C271.97 235.38 272.516 234.834 273.2 234.45C273.884 234.054 274.646 233.856 275.486 233.856C276.338 233.856 277.1 234.054 277.772 234.45C278.456 234.834 278.996 235.38 279.392 236.088C279.8 236.784 280.004 237.6 280.004 238.536C280.004 239.472 279.8 240.294 279.392 241.002C278.996 241.698 278.456 242.244 277.772 242.64C277.088 243.024 276.32 243.216 275.468 243.216ZM275.468 241.578C275.924 241.578 276.344 241.464 276.728 241.236C277.124 241.008 277.442 240.672 277.682 240.228C277.922 239.772 278.042 239.208 278.042 238.536C278.042 237.864 277.922 237.306 277.682 236.862C277.454 236.406 277.142 236.064 276.746 235.836C276.362 235.608 275.942 235.494 275.486 235.494C275.03 235.494 274.604 235.608 274.208 235.836C273.824 236.064 273.512 236.406 273.272 236.862C273.032 237.306 272.912 237.864 272.912 238.536C272.912 239.208 273.032 239.772 273.272 240.228C273.512 240.672 273.824 241.008 274.208 241.236C274.592 241.464 275.012 241.578 275.468 241.578ZM285.247 240.264C284.779 240.264 284.347 240.21 283.951 240.102L283.177 240.858C283.309 240.942 283.471 241.014 283.663 241.074C283.855 241.134 284.125 241.188 284.473 241.236C284.821 241.284 285.295 241.332 285.895 241.38C287.083 241.488 287.941 241.776 288.469 242.244C288.997 242.7 289.261 243.312 289.261 244.08C289.261 244.608 289.117 245.106 288.829 245.574C288.553 246.054 288.115 246.438 287.515 246.726C286.927 247.026 286.171 247.176 285.247 247.176C283.999 247.176 282.985 246.936 282.205 246.456C281.437 245.988 281.053 245.274 281.053 244.314C281.053 243.942 281.149 243.57 281.341 243.198C281.545 242.838 281.863 242.496 282.295 242.172C282.043 242.064 281.821 241.95 281.629 241.83C281.449 241.698 281.287 241.566 281.143 241.434V241.002L282.691 239.418C281.995 238.818 281.647 238.032 281.647 237.06C281.647 236.472 281.785 235.938 282.061 235.458C282.349 234.966 282.763 234.576 283.303 234.288C283.843 234 284.491 233.856 285.247 233.856C285.751 233.856 286.219 233.928 286.651 234.072H289.981V235.332L288.397 235.422C288.685 235.914 288.829 236.46 288.829 237.06C288.829 237.66 288.685 238.2 288.397 238.68C288.121 239.16 287.713 239.544 287.173 239.832C286.645 240.12 286.003 240.264 285.247 240.264ZM285.247 238.77C285.799 238.77 286.243 238.626 286.579 238.338C286.927 238.038 287.101 237.618 287.101 237.078C287.101 236.526 286.927 236.106 286.579 235.818C286.243 235.53 285.799 235.386 285.247 235.386C284.683 235.386 284.227 235.53 283.879 235.818C283.543 236.106 283.375 236.526 283.375 237.078C283.375 237.618 283.543 238.038 283.879 238.338C284.227 238.626 284.683 238.77 285.247 238.77ZM282.853 244.134C282.853 244.65 283.081 245.034 283.537 245.286C283.993 245.55 284.563 245.682 285.247 245.682C285.907 245.682 286.441 245.538 286.849 245.25C287.257 244.974 287.461 244.602 287.461 244.134C287.461 243.786 287.323 243.486 287.047 243.234C286.771 242.994 286.249 242.844 285.481 242.784C284.905 242.748 284.395 242.694 283.951 242.622C283.531 242.85 283.243 243.096 283.087 243.36C282.931 243.624 282.853 243.882 282.853 244.134ZM292.763 232.38C292.403 232.38 292.103 232.272 291.863 232.056C291.635 231.828 291.521 231.546 291.521 231.21C291.521 230.874 291.635 230.598 291.863 230.382C292.103 230.154 292.403 230.04 292.763 230.04C293.123 230.04 293.417 230.154 293.645 230.382C293.885 230.598 294.005 230.874 294.005 231.21C294.005 231.546 293.885 231.828 293.645 232.056C293.417 232.272 293.123 232.38 292.763 232.38ZM291.809 243V234.072H293.717V243H291.809ZM296.235 243V234.072H297.927L298.071 235.638C298.347 235.086 298.749 234.654 299.277 234.342C299.817 234.018 300.435 233.856 301.131 233.856C302.211 233.856 303.057 234.192 303.669 234.864C304.293 235.536 304.605 236.538 304.605 237.87V243H302.715V238.068C302.715 236.34 302.007 235.476 300.591 235.476C299.883 235.476 299.295 235.728 298.827 236.232C298.371 236.736 298.143 237.456 298.143 238.392V243H296.235Z" fill="#0660FC"/>
<path fill-rule="evenodd" clip-rule="evenodd" d="M257.383 57.0082C258.081 56.9559 258.768 57.1545 259.297 57.5725C259.815 57.9801 260.104 58.5549 260.104 59.1715V114.833C260.104 115.481 259.779 116.087 259.201 116.494C258.635 116.912 257.888 117.08 257.166 116.965L231.059 112.931C229.867 112.753 229 111.854 229 110.799V61.1676C229 60.0494 229.987 59.1088 231.288 59.0148L257.383 57.0082ZM255.203 87.0021C255.203 85.3613 254.324 84.034 253.252 84.034C252.181 84.034 251.314 85.3613 251.314 87.0021C251.314 88.6324 252.181 89.9701 253.252 89.9701C254.324 89.9701 255.203 88.6324 255.203 87.0021Z" fill="#0660FC"/>
<path d="M296.034 87.1011C296.954 86.5121 296.956 85.1688 296.037 84.5771L279.914 74.1853C278.915 73.542 277.601 74.2586 277.601 75.4461V78.0088C277.601 78.8372 276.929 79.5088 276.101 79.5088H263.254C262.425 79.5088 261.754 80.1803 261.754 81.0088V90.5811C261.754 91.4095 262.425 92.0811 263.254 92.0811H276.101C276.929 92.0811 277.601 92.7527 277.601 93.5811V96.1637C277.601 97.3493 278.912 98.0662 279.91 97.4269L296.034 87.1011Z" fill="#01CCFF"/>
<path d="M251.313 87.0022C251.313 88.643 252.18 89.9703 253.264 89.9703C254.336 89.9703 255.203 88.643 255.203 87.0022C255.203 85.3614 254.336 84.0342 253.264 84.0342C252.18 84.0342 251.313 85.3614 251.313 87.0022Z" fill="white"/>
<path opacity="0.5" d="M274.319 77.5858C275.147 77.5858 275.819 76.9143 275.819 76.0858V60.6137C275.819 60.1748 275.614 59.7358 275.253 59.4223C274.892 59.1088 274.386 58.9207 273.88 58.9207H263.254C262.425 58.9207 261.754 59.5922 261.754 60.4207V60.8067C261.754 61.6352 262.425 62.3067 263.254 62.3067H270.429C271.258 62.3067 271.929 62.9783 271.929 63.8067V76.0858C271.929 76.9143 272.601 77.5858 273.429 77.5858H274.319Z" fill="#0660FC"/>
<path opacity="0.5" d="M263.254 111.697C262.425 111.697 261.754 112.369 261.754 113.197V113.584C261.754 114.412 262.425 115.084 263.254 115.084H273.88C274.386 115.084 274.892 114.906 275.253 114.582C275.614 114.268 275.819 113.829 275.819 113.391V95.4102C275.819 94.5817 275.147 93.9102 274.319 93.9102H273.429C272.601 93.9102 271.929 94.5817 271.929 95.4102V110.197C271.929 111.026 271.258 111.697 270.429 111.697H263.254Z" fill="#0660FC"/>
</g>
<defs>
<filter id="filter0_d_472_24974" x="0" y="0" width="515" height="334" filterUnits="userSpaceOnUse" color-interpolation-filters="sRGB">
<feFlood flood-opacity="0" result="BackgroundImageFix"/>
<feColorMatrix in="SourceAlpha" type="matrix" values="0 0 0 0 0 0 0 0 0 0 0 0 0 0 0 0 0 0 127 0" result="hardAlpha"/>
<feOffset dy="12"/>
<feGaussianBlur stdDeviation="14.5"/>
<feComposite in2="hardAlpha" operator="out"/>
<feColorMatrix type="matrix" values="0 0 0 0 0.439216 0 0 0 0 0.564706 0 0 0 0 0.690196 0 0 0 0.08 0"/>
<feBlend mode="normal" in2="BackgroundImageFix" result="effect1_dropShadow_472_24974"/>
<feBlend mode="normal" in="SourceGraphic" in2="effect1_dropShadow_472_24974" result="shape"/>
</filter>
</defs>
</svg>
