<svg width="20" height="20" viewBox="0 0 20 20" fill="none" xmlns="http://www.w3.org/2000/svg">
<path d="M9.44995 9.10845C9.06115 8.31051 8.84395 7.43993 8.81237 6.55288C8.7808 5.66583 8.93554 4.78201 9.26661 3.95845C9.34236 3.76265 9.35911 3.54896 9.31481 3.34375C9.27051 3.13855 9.16709 2.9508 9.01732 2.80369C8.86755 2.65658 8.67798 2.55654 8.47201 2.51592C8.26604 2.4753 8.05269 2.49588 7.85828 2.57511C6.93716 2.92694 6.08943 3.44688 5.35828 4.10845C4.41442 4.98376 3.70453 6.08128 3.29325 7.30108C2.88197 8.52087 2.78238 9.82417 3.00353 11.0923C3.22469 12.3604 3.75957 13.5531 4.55946 14.5616C5.35936 15.5702 6.39885 16.3626 7.58328 16.8668C7.40851 16.1691 7.31897 15.4527 7.31661 14.7334C7.29684 12.6572 8.05832 10.6494 9.44995 9.10845Z" fill="#A1A5B7"/>
<g opacity="0.3">
<path d="M15.2583 15.9667C15.8707 15.5123 16.4103 14.9672 16.8583 14.3501C16.9817 14.1834 17.0547 13.9848 17.0685 13.7779C17.0824 13.571 17.0366 13.3645 16.9366 13.1829C16.8365 13.0013 16.6865 12.8521 16.5042 12.7533C16.3219 12.6544 16.1151 12.6099 15.9083 12.6251C14.5978 12.8021 13.2649 12.5565 12.1034 11.9241C10.942 11.2916 10.0125 10.3053 9.44999 9.1084C8.05836 10.6494 7.29688 12.6572 7.31666 14.7334C7.31902 15.4527 7.40856 16.169 7.58333 16.8667C8.82865 17.4055 10.1941 17.606 11.5418 17.448C12.8894 17.2899 14.1714 16.779 15.2583 15.9667Z" fill="#A1A5B7"/>
</g>
</svg>
