<svg width="596" height="306" viewBox="0 0 596 306" fill="none" xmlns="http://www.w3.org/2000/svg">
<g clip-path="url(#clip0_837_16898)">
<path d="M182.875 276.388C182.875 260.199 233.759 246.907 296.477 246.907C359.195 246.907 410.079 260.199 410.079 276.519C410.057 278.366 409.46 280.161 408.37 281.652C398.903 295.471 352.358 306 296.477 306C233.759 306 182.875 292.707 182.875 276.388Z" fill="#7A97F4"/>
<path d="M160.261 256.251H50.8663C48.0628 256.258 45.3384 257.182 43.1087 258.883L1.03388 291.918C0.597933 292.252 0.277067 292.714 0.116013 293.24C-0.0450411 293.765 -0.0382573 294.328 0.135419 294.85C0.309095 295.371 0.641008 295.825 1.08489 296.149C1.52878 296.473 2.06251 296.65 2.61169 296.656H118.186C121.118 296.627 123.932 295.5 126.075 293.497L161.444 259.278C161.702 259.04 161.882 258.729 161.96 258.387C162.039 258.045 162.013 257.687 161.885 257.36C161.757 257.033 161.534 256.753 161.244 256.555C160.954 256.357 160.612 256.251 160.261 256.251Z" fill="#78A6F4"/>
<path d="M594.29 256.251H484.764C481.96 256.258 479.236 257.182 477.006 258.883L434.931 291.918C434.495 292.252 434.175 292.714 434.013 293.24C433.852 293.765 433.859 294.328 434.033 294.85C434.207 295.371 434.538 295.825 434.982 296.149C435.426 296.473 435.96 296.65 436.509 296.656H552.084C555.015 296.627 557.83 295.5 559.973 293.497L595.342 259.278C595.623 259.062 595.828 258.763 595.93 258.423C596.031 258.083 596.023 257.72 595.907 257.385C595.79 257.05 595.572 256.76 595.281 256.556C594.991 256.353 594.644 256.246 594.29 256.251Z" fill="#78A6F4"/>
<path d="M182.875 270.991C182.875 254.803 233.759 241.511 296.477 241.511C359.195 241.511 410.079 254.803 410.079 271.123C410.057 272.97 409.46 274.765 408.37 276.256C398.903 290.075 352.358 300.604 296.477 300.604C233.759 300.604 182.875 287.311 182.875 270.991Z" fill="#DFEBFF"/>
<path d="M408.37 276.256C398.903 290.075 352.489 300.604 296.477 300.604C233.759 300.604 182.875 287.311 182.875 270.991C182.875 270.991 202.598 294.813 292.533 294.813C369.845 294.945 401.007 280.336 408.37 276.256Z" fill="#B5D0FF"/>
<path d="M361.167 264.148C356.828 259.41 329.48 255.725 296.477 255.725C262.028 255.725 233.891 259.673 231.393 264.674C232.576 261.779 240.465 251.776 296.477 251.776C348.019 251.776 358.932 260.726 361.167 264.148Z" fill="#B5D0FF"/>
<path d="M161.181 256.251L138.171 91.4741C138.044 90.6256 137.615 89.8516 136.962 89.2953C136.31 88.7389 135.478 88.4376 134.621 88.4471H103.591C103.08 88.4501 102.575 88.562 102.11 88.7754C101.645 88.9888 101.231 89.2988 100.896 89.6847C100.56 90.0706 100.31 90.5237 100.163 91.0137C100.015 91.5038 99.9737 92.0196 100.041 92.527L107.798 154.779C107.874 155.357 107.824 155.945 107.653 156.502C107.482 157.06 107.194 157.574 106.808 158.011C106.422 158.447 105.946 158.796 105.414 159.033C104.882 159.27 104.305 159.39 103.722 159.385H68.2218C67.1486 159.392 66.1137 158.986 65.3308 158.252C64.5479 157.517 64.0766 156.509 64.0143 155.437L61.1216 92.0006C61.0768 91.0848 60.6844 90.2207 60.0247 89.5848C59.3649 88.9488 58.4875 88.589 57.5716 88.5787H28.5136C28.0335 88.569 27.5566 88.6588 27.1128 88.8423C26.669 89.0258 26.2678 89.2991 25.9345 89.6451C25.6012 89.9911 25.3429 90.4023 25.1758 90.8529C25.0087 91.3036 24.9365 91.7839 24.9636 92.2638L28.9081 200.711C28.9878 202.371 29.7001 203.938 30.8985 205.089C32.0969 206.239 33.6902 206.886 35.3508 206.897H114.373L120.552 256.514H161.181V256.251Z" fill="#0660FC"/>
<path d="M595.21 256.251L572.2 91.4741C572.073 90.6256 571.644 89.8516 570.991 89.2953C570.339 88.7389 569.507 88.4376 568.65 88.4471H537.62C537.108 88.4501 536.604 88.562 536.139 88.7754C535.674 88.9888 535.26 89.2988 534.924 89.6847C534.588 90.0706 534.339 90.5237 534.191 91.0137C534.044 91.5038 534.002 92.0196 534.07 92.527L541.827 154.779C541.902 155.357 541.853 155.945 541.682 156.502C541.511 157.06 541.223 157.574 540.836 158.011C540.45 158.447 539.975 158.796 539.443 159.033C538.91 159.27 538.334 159.39 537.751 159.385H502.25C501.177 159.392 500.142 158.986 499.359 158.252C498.577 157.517 498.105 156.509 498.043 155.437L495.15 92.0006C495.105 91.0848 494.713 90.2207 494.053 89.5848C493.394 88.9488 492.516 88.589 491.6 88.5787H462.674C462.194 88.569 461.717 88.6588 461.273 88.8423C460.829 89.0258 460.428 89.2991 460.095 89.6451C459.761 89.9911 459.503 90.4023 459.336 90.8529C459.169 91.3036 459.097 91.7839 459.124 92.2638L463.068 200.711C463.148 202.371 463.86 203.938 465.059 205.089C466.257 206.239 467.85 206.886 469.511 206.897H548.533L554.713 256.514H595.21V256.251Z" fill="#0660FC"/>
<path d="M137.249 93.185L119.894 290.075C119.748 291.863 118.938 293.531 117.624 294.749C116.309 295.968 114.585 296.648 112.793 296.656H86.7596C85.7471 296.656 84.746 296.44 83.8227 296.024C82.8994 295.608 82.0749 295.001 81.4037 294.242C80.7325 293.483 80.23 292.59 79.9293 291.622C79.6286 290.654 79.5367 289.633 79.6595 288.627L90.5727 196.368L12.6027 197.684C11.5954 197.701 10.5968 197.495 9.67857 197.08C8.76032 196.665 7.94518 196.052 7.29162 195.285C6.63806 194.517 6.16229 193.615 5.89844 192.641C5.63459 191.668 5.58921 190.649 5.76554 189.656L6.0285 187.945L23.9103 92.0005C24.1515 90.7094 24.8349 89.543 25.843 88.7021C26.851 87.8613 28.1205 87.3987 29.4326 87.3941H54.2831C55.0969 87.4077 55.8984 87.5959 56.6333 87.9462C57.3682 88.2964 58.0194 88.8005 58.5429 89.4243C59.0664 90.0482 59.45 90.7773 59.6678 91.5623C59.8857 92.3473 59.9326 93.1699 59.8054 93.9747L49.1552 154.516C49.0544 155.087 49.0814 155.674 49.2343 156.233C49.3872 156.793 49.6621 157.312 50.0394 157.752C50.4166 158.193 50.8868 158.544 51.416 158.781C51.9451 159.018 52.5202 159.134 53.0998 159.122H90.3097L98.9877 91.8689C99.1698 90.5987 99.8004 89.4359 100.765 88.5909C101.73 87.7459 102.965 87.2746 104.247 87.2625H131.99C132.724 87.305 133.443 87.492 134.105 87.8127C134.766 88.1335 135.358 88.5818 135.847 89.1319C136.336 89.682 136.711 90.3231 136.951 91.0186C137.192 91.7141 137.293 92.4503 137.249 93.185Z" fill="#DFEBFF"/>
<path d="M91.0992 187.945L90.4418 196.368L12.4718 197.684C11.4646 197.701 10.466 197.495 9.54771 197.08C8.62946 196.665 7.81432 196.052 7.16076 195.285C6.5072 194.517 6.03143 193.615 5.76758 192.641C5.50374 191.668 5.45835 190.649 5.63468 189.656L5.89765 187.945H91.0992Z" fill="#B5D0FF"/>
<path d="M137.25 93.1849L119.894 290.075C119.749 291.863 118.939 293.531 117.624 294.749C116.31 295.968 114.586 296.648 112.794 296.655H108.85L129.493 87.394H131.991C132.722 87.4112 133.441 87.5768 134.106 87.8806C134.771 88.1845 135.368 88.6204 135.86 89.1618C136.351 89.7033 136.728 90.3391 136.967 91.0306C137.206 91.7221 137.302 92.4551 137.25 93.1849Z" fill="#B5D0FF"/>
<path d="M49.0262 154.647C48.9254 155.219 48.9524 155.805 49.1053 156.365C49.2582 156.925 49.5331 157.444 49.9104 157.884C50.2876 158.325 50.7578 158.676 51.287 158.913C51.8162 159.15 52.3912 159.266 52.9708 159.254H45.3447C44.6868 159.258 44.0359 159.118 43.4378 158.844C42.8398 158.569 42.309 158.167 41.8829 157.665C41.4568 157.163 41.1457 156.574 40.9714 155.939C40.7972 155.304 40.764 154.639 40.8742 153.989L52.5763 87.5258H54.2856C55.0994 87.5393 55.9009 87.7276 56.6358 88.0778C57.3706 88.4281 58.0219 88.9321 58.5454 89.556C59.0689 90.1798 59.4525 90.9089 59.6703 91.6939C59.8881 92.4789 59.9351 93.3016 59.8079 94.1063L49.0262 154.647Z" fill="#B5D0FF"/>
<path d="M571.147 93.185L553.791 290.075C553.646 291.863 552.836 293.531 551.521 294.749C550.206 295.968 548.483 296.648 546.691 296.656H520.657C519.645 296.656 518.643 296.44 517.72 296.024C516.797 295.608 515.972 295.001 515.301 294.242C514.63 293.483 514.127 292.59 513.827 291.622C513.526 290.654 513.434 289.633 513.557 288.627L524.47 196.368L446.5 197.684C445.493 197.701 444.494 197.495 443.576 197.08C442.658 196.665 441.843 196.052 441.189 195.285C440.536 194.517 440.06 193.615 439.796 192.641C439.532 191.668 439.487 190.649 439.663 189.656L439.926 187.945L457.808 92.0005C458.049 90.7094 458.732 89.543 459.74 88.7021C460.748 87.8613 462.018 87.3987 463.33 87.3941H488.181C488.994 87.4077 489.796 87.5959 490.531 87.9462C491.266 88.2964 491.917 88.8005 492.44 89.4243C492.964 90.0482 493.347 90.7773 493.565 91.5623C493.783 92.3473 493.83 93.1699 493.703 93.9747L483.053 154.516C482.952 155.087 482.979 155.674 483.132 156.233C483.285 156.793 483.56 157.312 483.937 157.752C484.314 158.193 484.784 158.544 485.313 158.781C485.843 159.018 486.418 159.134 486.997 159.122H524.207L532.885 91.8689C533.067 90.5987 533.698 89.4359 534.663 88.5909C535.627 87.7459 536.863 87.2746 538.144 87.2625H565.888C566.629 87.2817 567.359 87.4532 568.032 87.7662C568.705 88.0792 569.307 88.5272 569.8 89.0824C570.293 89.6376 570.667 90.2882 570.899 90.9938C571.13 91.6995 571.215 92.4453 571.147 93.185Z" fill="#DFEBFF"/>
<path d="M525.128 187.945L524.47 196.368L446.5 197.684C445.493 197.701 444.494 197.495 443.576 197.08C442.658 196.665 441.843 196.052 441.189 195.285C440.536 194.517 440.06 193.615 439.796 192.642C439.532 191.668 439.487 190.649 439.663 189.656L439.926 187.945H525.128Z" fill="#B5D0FF"/>
<path d="M571.148 93.185L553.792 290.075C553.647 291.863 552.836 293.531 551.522 294.749C550.207 295.968 548.483 296.648 546.692 296.656H542.747L563.39 87.3941H565.888C566.626 87.3881 567.357 87.5381 568.033 87.8342C568.709 88.1303 569.315 88.5658 569.812 89.1124C570.308 89.6589 570.684 90.3042 570.914 91.006C571.144 91.7077 571.224 92.4503 571.148 93.185Z" fill="#B5D0FF"/>
<path d="M483.054 154.647C482.953 155.219 482.98 155.805 483.133 156.365C483.286 156.925 483.56 157.444 483.938 157.884C484.315 158.325 484.785 158.676 485.314 158.913C485.843 159.15 486.419 159.266 486.998 159.254H479.372C478.714 159.258 478.063 159.118 477.465 158.844C476.867 158.569 476.336 158.167 475.91 157.665C475.484 157.163 475.173 156.574 474.999 155.939C474.825 155.304 474.791 154.639 474.902 153.989L486.604 87.5258H488.313C489.127 87.5393 489.928 87.7276 490.663 88.0778C491.398 88.4281 492.049 88.9321 492.573 89.556C493.096 90.1798 493.48 90.9089 493.698 91.6939C493.915 92.4789 493.962 93.3016 493.835 94.1063L483.054 154.647Z" fill="#B5D0FF"/>
<path opacity="0.28" d="M244.542 133.322L217.588 270.198C216.141 277.568 220.875 284.543 227.318 284.543H370.109C376.42 284.543 381.154 277.831 379.97 270.724L357.881 133.849C356.961 128.321 352.885 124.373 348.02 124.373H254.403C249.67 124.241 245.594 128.058 244.542 133.322Z" fill="url(#paint0_linear_837_16898)"/>
<path d="M366.293 141.881L379.31 185.181C379.361 185.4 379.46 185.605 379.599 185.781C379.738 185.957 379.915 186.1 380.115 186.201C380.316 186.301 380.537 186.356 380.761 186.362C380.985 186.368 381.208 186.324 381.414 186.234C381.768 186.096 382.059 185.831 382.229 185.49C382.399 185.15 382.437 184.758 382.334 184.391L373.788 140.039C373.652 139.479 373.398 138.955 373.042 138.503C372.686 138.051 372.237 137.681 371.725 137.419C371.214 137.157 370.651 137.008 370.077 136.983C369.502 136.958 368.929 137.058 368.397 137.275C367.55 137.659 366.87 138.337 366.484 139.184C366.097 140.03 366.029 140.988 366.293 141.881Z" fill="#01CCFF"/>
<path d="M341.706 157.542L350.121 190.971C350.152 191.111 350.211 191.244 350.294 191.361C350.378 191.478 350.485 191.576 350.608 191.65C350.731 191.724 350.868 191.772 351.011 191.791C351.153 191.81 351.298 191.8 351.436 191.76C351.558 191.728 351.673 191.671 351.772 191.593C351.872 191.516 351.955 191.419 352.016 191.308C352.078 191.197 352.116 191.076 352.129 190.95C352.143 190.824 352.13 190.697 352.094 190.576L346.703 156.489C346.637 156.104 346.485 155.74 346.26 155.421C346.034 155.103 345.741 154.84 345.4 154.651C345.059 154.461 344.681 154.351 344.292 154.327C343.903 154.303 343.514 154.368 343.153 154.514C342.61 154.787 342.174 155.233 341.912 155.78C341.651 156.328 341.578 156.948 341.706 157.542Z" fill="#01CCFF"/>
<path d="M232.049 146.093L221.136 179.39C221.096 179.537 221.025 179.673 220.927 179.79C220.829 179.906 220.706 179.998 220.568 180.061C220.429 180.124 220.279 180.156 220.127 180.153C219.975 180.151 219.826 180.115 219.689 180.048C219.444 179.94 219.244 179.749 219.124 179.509C219.004 179.269 218.971 178.994 219.032 178.732L226.921 144.645C227.021 144.269 227.201 143.918 227.446 143.616C227.692 143.315 227.999 143.068 228.347 142.894C228.695 142.72 229.076 142.622 229.465 142.606C229.854 142.59 230.241 142.657 230.602 142.802C231.206 143.077 231.687 143.564 231.954 144.171C232.22 144.778 232.254 145.462 232.049 146.093Z" fill="#01CCFF"/>
<path d="M253.744 156.357L239.544 218.214C239.513 218.355 239.454 218.487 239.371 218.604C239.287 218.721 239.18 218.82 239.057 218.894C238.934 218.968 238.797 219.016 238.654 219.035C238.512 219.053 238.367 219.043 238.229 219.004C238.107 218.971 237.992 218.914 237.893 218.837C237.793 218.759 237.71 218.662 237.649 218.551C237.587 218.441 237.549 218.319 237.535 218.193C237.522 218.067 237.534 217.94 237.571 217.819L248.747 155.304C248.814 154.92 248.965 154.555 249.19 154.237C249.416 153.919 249.71 153.655 250.05 153.466C250.391 153.277 250.769 153.166 251.158 153.142C251.547 153.119 251.937 153.183 252.298 153.33C252.886 153.545 253.367 153.982 253.637 154.548C253.908 155.114 253.946 155.763 253.744 156.357Z" fill="#01CCFF"/>
<path d="M283.854 163.592L277.016 208.471C276.998 208.618 276.947 208.758 276.866 208.882C276.785 209.006 276.678 209.11 276.551 209.186C276.424 209.262 276.282 209.308 276.135 209.321C275.988 209.334 275.84 209.313 275.702 209.261C275.457 209.18 275.245 209.02 275.102 208.805C274.959 208.59 274.893 208.333 274.913 208.076L278.594 162.802C278.652 162.424 278.791 162.063 279.002 161.744C279.213 161.425 279.49 161.156 279.816 160.956C280.141 160.755 280.506 160.628 280.886 160.583C281.265 160.539 281.65 160.577 282.013 160.696C282.324 160.765 282.618 160.895 282.879 161.077C283.14 161.26 283.362 161.493 283.533 161.762C283.704 162.031 283.82 162.331 283.875 162.645C283.93 162.959 283.923 163.28 283.854 163.592Z" fill="#01CCFF"/>
<path d="M319.091 162.676L320.801 233.877C320.798 234.026 320.765 234.173 320.703 234.308C320.641 234.444 320.552 234.565 320.44 234.664C320.329 234.763 320.198 234.838 320.057 234.884C319.915 234.929 319.765 234.945 319.617 234.93C319.367 234.886 319.139 234.757 318.972 234.566C318.805 234.374 318.708 234.131 318.697 233.877L313.832 162.676C313.821 162.292 313.896 161.911 314.05 161.56C314.204 161.209 314.434 160.896 314.723 160.644C315.012 160.393 315.353 160.208 315.722 160.104C316.091 160 316.478 159.98 316.856 160.043C317.47 160.166 318.025 160.493 318.431 160.971C318.836 161.448 319.069 162.049 319.091 162.676Z" fill="#01CCFF"/>
<path d="M182.483 98.0547C181.159 96.5015 180.053 94.7746 179.196 92.9218L176.172 72.6537L183.141 79.1027L182.483 98.0547Z" fill="#0660FC"/>
<path d="M378.657 104.898C374.966 111.912 370.32 118.379 364.851 124.114C353.018 136.748 333.032 151.094 303.317 151.094C282.411 151.094 266.896 144.118 255.851 135.695C245.456 127.824 237.149 117.521 231.658 105.688L378.657 104.898Z" fill="#003CBE"/>
<path d="M378.657 104.898C374.966 111.912 370.32 118.379 364.851 124.114C352.554 128.722 339.755 131.859 326.721 133.458C296.217 137.538 272.418 137.275 255.851 135.695C245.456 127.824 237.149 117.521 231.658 105.688L378.657 104.898Z" fill="#125DDD"/>
<path d="M424.94 71.8641C424.235 78.1222 423.093 84.3232 421.521 90.4212C421.075 92.1022 420.365 93.7015 419.418 95.1592C416.656 99.634 411.397 104.504 402.851 109.11C401.404 109.9 399.695 110.689 397.986 111.479C396.671 112.137 395.356 112.663 393.91 113.322C391.938 114.111 389.965 114.901 387.862 115.691C379.267 118.621 370.481 120.951 361.565 122.666C360.776 122.798 360.118 122.929 359.329 123.061C357.357 123.456 354.991 123.719 352.492 123.982C341.974 125.167 328.036 125.956 313.179 126.219C310.417 126.219 307.656 126.351 304.895 126.351C290.826 126.483 276.626 126.088 264.267 125.43C261.637 125.298 259.007 125.167 256.641 124.903C250.553 124.516 244.495 123.769 238.496 122.666C231.79 121.35 225.742 119.902 220.351 118.323C218.116 117.665 216.012 117.007 213.908 116.349C197.604 110.953 187.743 104.372 182.615 98.3179C181.875 97.5058 181.214 96.6243 180.643 95.6857C180.103 94.9096 179.661 94.0697 179.328 93.1851C178.905 92.3526 178.596 91.4674 178.408 90.5529C177.286 86.048 176.451 81.4762 175.909 76.8653C175.383 72.5222 175.252 69.6267 175.252 69.6267L300.162 78.9711L425.071 71.9957L424.94 71.8641Z" fill="#78A5F4"/>
<path d="M424.808 71.6009C424.581 72.9492 423.937 74.1922 422.967 75.1544C419.68 78.9711 411.791 84.6304 398.379 89.7632C396.67 90.4213 394.829 91.0793 392.857 91.7374C391.937 92.0006 391.016 92.3954 390.096 92.6586C388.124 93.3167 386.02 93.9748 383.785 94.5012C375.192 96.9118 366.452 98.7583 357.619 100.029C355.253 100.424 352.755 100.819 350.125 101.082C337.78 102.647 325.357 103.526 312.915 103.714C310.285 103.714 307.524 103.846 304.763 103.846H304.631C290.563 103.846 277.546 103.188 265.844 102.135C263.214 101.871 260.584 101.608 258.086 101.345C246.58 100.077 235.163 98.099 223.9 95.4225C221.665 94.896 219.43 94.238 217.326 93.7115C197.735 88.3155 184.85 81.6033 178.933 76.0757C177.898 75.1286 176.972 74.0692 176.172 72.917C175.455 71.9645 175.043 70.8177 174.988 69.6267C174.988 60.2823 211.804 40.4091 305.289 40.4091C398.774 40.2775 424.808 65.152 424.808 71.6009Z" fill="#003CBE"/>
<path d="M251.38 51.0695L183.009 79.1026C180.4 77.2851 178.055 75.1149 176.04 72.6537L249.145 49.885L251.38 51.0695Z" fill="#0660FC"/>
<path d="M424.808 71.7325C424.545 73.0299 423.905 74.2204 422.967 75.1544L352.755 51.0696L354.99 50.0167L424.808 71.7325Z" fill="#0660FC"/>
<path d="M262.951 58.3081L223.9 95.2908C221.665 94.7644 219.43 94.1063 217.326 93.5799L260.584 58.1765L262.951 58.3081Z" fill="#0660FC"/>
<path d="M284.383 62.6514L265.843 102.135C263.214 101.871 260.584 101.608 258.086 101.345L282.016 62.5198L284.383 62.6514Z" fill="#0660FC"/>
<path d="M357.752 100.161C355.385 100.555 352.755 100.95 350.257 101.213L332.112 62.6514L334.61 62.5198L357.752 100.161Z" fill="#0660FC"/>
<path d="M312.914 103.846C310.285 103.846 307.524 103.977 304.762 103.977H304.631L307.786 65.1519L310.285 65.0203L312.914 103.846Z" fill="#0660FC"/>
<path d="M398.248 89.7631C396.539 90.4212 394.698 91.0793 392.726 91.7373L345.523 58.3081L348.022 58.1765L398.248 89.7631Z" fill="#0660FC"/>
<path d="M313.047 125.956C310.286 125.956 307.525 126.088 304.764 126.088V103.846L312.916 103.714L313.047 125.956Z" fill="#0660FC"/>
<path d="M359.066 122.798C356.962 123.192 354.727 123.456 352.229 123.719L350.125 101.082L357.62 100.029L359.066 122.798Z" fill="#0660FC"/>
<path d="M402.719 108.978C401.272 109.768 399.563 110.558 397.854 111.347L392.857 91.6057L398.248 89.7632L402.719 108.978Z" fill="#0660FC"/>
<path d="M265.844 102.135L264.266 125.167C261.636 125.035 259.006 124.903 256.64 124.64L258.217 101.345L265.844 102.135Z" fill="#0660FC"/>
<path d="M223.9 95.2909L220.218 118.06C217.983 117.402 215.879 116.743 213.775 116.085L217.194 93.58L223.9 95.2909Z" fill="#0660FC"/>
<path d="M183.139 79.3659L180.51 95.5541C179.97 94.778 179.528 93.9381 179.195 93.0535C178.772 92.2211 178.463 91.3358 178.275 90.4213C177.153 85.9164 176.318 81.3446 175.776 76.7337L176.171 72.7854C176.171 72.7854 178.406 75.4176 179.326 76.3389C180.115 77.1286 183.139 79.3659 183.139 79.3659Z" fill="#0660FC"/>
<path d="M299.107 80.8137C337.812 80.8137 369.188 71.9161 369.188 60.9404C369.188 49.9647 337.812 41.0671 299.107 41.0671C260.403 41.0671 229.026 49.9647 229.026 60.9404C229.026 71.9161 260.403 80.8137 299.107 80.8137Z" fill="#0660FC"/>
<path d="M363.141 57.7817C363.141 57.7817 358.014 63.5726 345.391 68.5738C336.056 72.2589 322.644 75.4176 304.237 75.4176C295.415 75.4759 286.609 74.6825 277.94 73.0486C253.352 68.3106 242.702 58.0449 242.702 58.0449C242.702 58.0449 248.093 18.0352 281.753 4.47927C289.541 1.4254 297.845 -0.0940142 306.209 0.00450129C352.491 0.00450129 363.141 57.7817 363.141 57.7817Z" fill="#78A5F4"/>
<path d="M277.94 73.0486C253.352 68.3106 242.702 58.045 242.702 58.045C242.702 58.045 248.093 18.0352 281.753 4.47931C275.179 10.007 268.736 21.0623 267.684 39.093C266.632 52.5173 269.788 63.7042 277.94 73.0486Z" fill="#689AF1"/>
<path d="M363.141 57.7817C363.141 57.7817 358.013 63.5726 345.39 68.5738C344.074 63.8055 342.404 59.1423 340.394 54.6231C340.394 54.6231 328.035 57.2553 322.512 45.5419C316.99 33.8285 330.27 25.4054 330.27 25.4054C330.27 25.4054 327.114 15.2714 310.81 8.69083C294.506 2.11028 281.489 4.47927 281.489 4.47927C289.277 1.4254 297.581 -0.0940142 305.945 0.00450129C352.491 0.00450129 363.141 57.7817 363.141 57.7817Z" fill="#78A5F4"/>
<path d="M310.153 33.0389C312.113 33.0389 313.703 31.5069 313.703 29.617C313.703 27.7272 312.113 26.1951 310.153 26.1951C308.192 26.1951 306.603 27.7272 306.603 29.617C306.603 31.5069 308.192 33.0389 310.153 33.0389Z" fill="#78A5F4"/>
<path d="M297.793 36.3291C299.318 36.3291 300.555 35.1507 300.555 33.6969C300.555 32.2432 299.318 31.0647 297.793 31.0647C296.268 31.0647 295.032 32.2432 295.032 33.6969C295.032 35.1507 296.268 36.3291 297.793 36.3291Z" fill="#78A5F4"/>
<path d="M306.077 54.0965C309.055 54.0965 311.468 51.7395 311.468 48.8321C311.468 45.9246 309.055 43.5676 306.077 43.5676C303.1 43.5676 300.687 45.9246 300.687 48.8321C300.687 51.7395 303.1 54.0965 306.077 54.0965Z" fill="#78A5F4"/>
</g>
<defs>
<linearGradient id="paint0_linear_837_16898" x1="298.739" y1="124.37" x2="298.739" y2="284.543" gradientUnits="userSpaceOnUse">
<stop stop-color="#0660FC"/>
<stop offset="1" stop-color="#0660FC" stop-opacity="0"/>
</linearGradient>
<clipPath id="clip0_837_16898">
<rect width="596" height="306" fill="white"/>
</clipPath>
</defs>
</svg>
