<svg width="20" height="20" viewBox="0 0 20 20" fill="none" xmlns="http://www.w3.org/2000/svg">
<path d="M16.825 11.7163L15.8834 10.1497C15.675 9.80801 15.4917 9.14967 15.4917 8.74967V7.19134C15.4917 4.16634 13.0334 1.70801 10.0167 1.70801C6.99169 1.71634 4.53336 4.16634 4.53336 7.19134V8.74134C4.53336 9.14134 4.35003 9.79967 4.15003 10.1413L3.20836 11.708C2.85003 12.3163 2.76669 13.008 2.99169 13.608C3.21669 14.2163 3.72503 14.6997 4.39169 14.9163C5.29169 15.2163 6.20003 15.433 7.12503 15.5913C7.21669 15.608 7.30836 15.6163 7.40003 15.633C7.51669 15.6497 7.64169 15.6663 7.76669 15.683C7.98336 15.7163 8.20003 15.7413 8.42503 15.758C8.95003 15.808 9.48336 15.833 10.0167 15.833C10.5417 15.833 11.0667 15.808 11.5834 15.758C11.775 15.7413 11.9667 15.7247 12.15 15.6997C12.3 15.683 12.45 15.6663 12.6 15.6413C12.6917 15.633 12.7834 15.6163 12.875 15.5997C13.8084 15.4497 14.7334 15.2163 15.6334 14.9163C16.275 14.6997 16.7667 14.2163 17 13.5997C17.2334 12.9747 17.1667 12.2913 16.825 11.7163ZM10.625 8.33301C10.625 8.68301 10.3417 8.96634 9.99169 8.96634C9.64169 8.96634 9.35836 8.68301 9.35836 8.33301V5.74967C9.35836 5.39967 9.64169 5.11634 9.99169 5.11634C10.3417 5.11634 10.625 5.39967 10.625 5.74967V8.33301Z" fill="#0660FC"/>
<path d="M12.3584 16.6748C12.0084 17.6415 11.0834 18.3332 10 18.3332C9.34169 18.3332 8.69169 18.0665 8.23336 17.5915C7.96669 17.3415 7.76669 17.0082 7.65002 16.6665C7.75836 16.6832 7.86669 16.6915 7.98336 16.7082C8.17502 16.7332 8.37502 16.7582 8.57502 16.7748C9.05002 16.8165 9.53336 16.8415 10.0167 16.8415C10.4917 16.8415 10.9667 16.8165 11.4334 16.7748C11.6084 16.7582 11.7834 16.7498 11.95 16.7248C12.0834 16.7082 12.2167 16.6915 12.3584 16.6748Z" fill="#0660FC"/>
</svg>
