<svg width="20" height="20" viewBox="0 0 20 20" fill="none" xmlns="http://www.w3.org/2000/svg">
<path d="M15.8333 6.66699C17.214 6.66699 18.3333 5.5477 18.3333 4.16699C18.3333 2.78628 17.214 1.66699 15.8333 1.66699C14.4526 1.66699 13.3333 2.78628 13.3333 4.16699C13.3333 5.5477 14.4526 6.66699 15.8333 6.66699Z" fill="#A1A5B7"/>
<g opacity="0.3">
<path d="M15.8333 7.91667C14.8394 7.91447 13.8869 7.51867 13.1841 6.81589C12.4813 6.1131 12.0855 5.16055 12.0833 4.16667C12.0916 3.58639 12.2343 3.01594 12.5 2.5H5.83329C4.72822 2.5 3.66842 2.93899 2.88701 3.72039C2.10561 4.50179 1.66663 5.5616 1.66663 6.66667V14.1667C1.66663 15.2717 2.10561 16.3315 2.88701 17.1129C3.66842 17.8943 4.72822 18.3333 5.83329 18.3333H13.3333C14.4384 18.3333 15.4982 17.8943 16.2796 17.1129C17.061 16.3315 17.5 15.2717 17.5 14.1667V7.5C16.984 7.7657 16.4136 7.90832 15.8333 7.91667V7.91667Z" fill="#A1A5B7"/>
</g>
<path d="M9.58332 11.667H5.67499C5.50923 11.667 5.35026 11.6011 5.23305 11.4839C5.11584 11.3667 5.04999 11.2078 5.04999 11.042C5.04999 10.8762 5.11584 10.7173 5.23305 10.6001C5.35026 10.4828 5.50923 10.417 5.67499 10.417H9.58332C9.74908 10.417 9.90805 10.4828 10.0253 10.6001C10.1425 10.7173 10.2083 10.8762 10.2083 11.042C10.2083 11.2078 10.1425 11.3667 10.0253 11.4839C9.90805 11.6011 9.74908 11.667 9.58332 11.667V11.667Z" fill="#A1A5B7"/>
<path d="M12.9167 15H5.67499C5.50923 15 5.35026 14.9342 5.23305 14.8169C5.11584 14.6997 5.04999 14.5408 5.04999 14.375C5.04999 14.2092 5.11584 14.0503 5.23305 13.9331C5.35026 13.8158 5.50923 13.75 5.67499 13.75H12.9167C13.0824 13.75 13.2414 13.8158 13.3586 13.9331C13.4758 14.0503 13.5417 14.2092 13.5417 14.375C13.5417 14.5408 13.4758 14.6997 13.3586 14.8169C13.2414 14.9342 13.0824 15 12.9167 15V15Z" fill="#A1A5B7"/>
</svg>
