<svg width="69" height="60" viewBox="0 0 69 60" fill="none" xmlns="http://www.w3.org/2000/svg">
<path fill-rule="evenodd" clip-rule="evenodd" d="M28.3827 0.00820052C29.0812 -0.0440536 29.7675 0.154511 30.2974 0.572545C30.8152 0.980127 31.1042 1.55492 31.1042 2.17152V57.8326C31.1042 58.4806 30.7791 59.0867 30.201 59.4943C29.6351 59.9123 28.8885 60.0796 28.166 59.9646L2.05916 55.9306C0.867016 55.7529 0 54.8541 0 53.7986V4.16763C0 3.04939 0.987434 2.10882 2.28796 2.01476L28.3827 0.00820052ZM26.2031 30.0021C26.2031 28.3613 25.3241 27.034 24.2524 27.034C23.1806 27.034 22.3136 28.3613 22.3136 30.0021C22.3136 31.6324 23.1806 32.9701 24.2524 32.9701C25.3241 32.9701 26.2031 31.6324 26.2031 30.0021Z" fill="#0660FC"/>
<path d="M67.0299 30.1011C67.9497 29.5121 67.9517 28.1688 67.0336 27.5771L50.9097 17.1853C49.9115 16.542 48.5971 17.2586 48.5971 18.4461V21.0088C48.5971 21.8372 47.9255 22.5088 47.0971 22.5088H34.25C33.4216 22.5088 32.75 23.1803 32.75 24.0088V33.5811C32.75 34.4095 33.4216 35.0811 34.25 35.0811H47.0971C47.9255 35.0811 48.5971 35.7527 48.5971 36.5811V39.1637C48.5971 40.3493 49.9077 41.0662 50.9061 40.4269L67.0299 30.1011Z" fill="#01CCFF"/>
<path d="M22.3125 30.0022C22.3125 31.643 23.1795 32.9703 24.2633 32.9703C25.335 32.9703 26.202 31.643 26.202 30.0022C26.202 28.3614 25.335 27.0342 24.2633 27.0342C23.1795 27.0342 22.3125 28.3614 22.3125 30.0022Z" fill="white"/>
<path opacity="0.5" d="M45.3149 20.5856C46.1433 20.5856 46.8149 19.914 46.8149 19.0856V3.61345C46.8149 3.17451 46.6102 2.73558 46.2489 2.42205C45.8877 2.10853 45.3819 1.92041 44.8762 1.92041H34.25C33.4216 1.92041 32.75 2.59198 32.75 3.42041V3.80648C32.75 4.63491 33.4216 5.30648 34.25 5.30648H41.4254C42.2538 5.30648 42.9254 5.97805 42.9254 6.80648V19.0856C42.9254 19.914 43.597 20.5856 44.4254 20.5856H45.3149Z" fill="#0660FC"/>
<path opacity="0.5" d="M34.25 54.6975C33.4216 54.6975 32.75 55.369 32.75 56.1975V56.5835C32.75 57.412 33.4216 58.0835 34.25 58.0835H44.8762C45.3819 58.0835 45.8877 57.9059 46.2489 57.5819C46.6102 57.2684 46.8149 56.8294 46.8149 56.3905V38.4102C46.8149 37.5817 46.1433 36.9102 45.3149 36.9102H44.4254C43.597 36.9102 42.9254 37.5817 42.9254 38.4102V53.1975C42.9254 54.0259 42.2538 54.6975 41.4254 54.6975H34.25Z" fill="#0660FC"/>
</svg>
