<svg width="28" height="24" viewBox="0 0 28 24" fill="none" xmlns="http://www.w3.org/2000/svg">
<rect width="24" height="24" rx="12" fill="url(#paint0_linear_135_25697)"/>
<path d="M16.5325 11.9632C19.0385 11.9632 21.07 9.93168 21.07 7.42568C21.07 4.91969 19.0385 2.88818 16.5325 2.88818C14.0265 2.88818 11.995 4.91969 11.995 7.42568C11.995 9.93168 14.0265 11.9632 16.5325 11.9632Z" fill="#0660FC"/>
<path d="M21.9774 12.9165C21.2503 12.9166 20.5396 13.1328 19.9356 13.5378C19.3317 13.9427 18.8618 14.5181 18.5857 15.1908C18.3096 15.8635 18.2397 16.603 18.3849 17.3155C18.5302 18.028 18.8839 18.6812 19.4013 19.1921C19.9187 19.7031 20.5763 20.0486 21.2906 20.1849C22.0049 20.3211 22.7435 20.242 23.4126 19.9574C24.0818 19.6728 24.6512 19.1957 25.0485 18.5868C25.4459 17.9778 25.6532 17.2644 25.6441 16.5373C25.632 15.5728 25.2404 14.6519 24.5541 13.9742C23.8677 13.2964 22.942 12.9164 21.9774 12.9165ZM23.9207 16.0698L22.3716 18.0498C22.3072 18.1289 22.2262 18.1929 22.1343 18.2373C22.0424 18.2816 21.9419 18.3053 21.8399 18.3065C21.7354 18.3069 21.6322 18.2831 21.5384 18.2369C21.4445 18.1908 21.3627 18.1237 21.2991 18.0407L20.1899 16.5832C20.0902 16.4436 20.0471 16.2715 20.0692 16.1014C20.0913 15.9313 20.177 15.7759 20.3091 15.6665C20.4486 15.5668 20.6208 15.5237 20.7909 15.5458C20.9609 15.5679 21.1163 15.6536 21.2258 15.7857L21.8033 16.519L22.8116 15.2357C22.8664 15.1652 22.9345 15.1063 23.012 15.0622C23.0896 15.0181 23.175 14.9897 23.2636 14.9786C23.3521 14.9676 23.4419 14.9741 23.528 14.9977C23.614 15.0214 23.6945 15.0617 23.7649 15.1165C23.8353 15.1713 23.8943 15.2394 23.9384 15.3169C23.9825 15.3945 24.0109 15.48 24.0219 15.5685C24.033 15.657 24.0265 15.7469 24.0029 15.8329C23.9792 15.9189 23.9389 15.9994 23.8841 16.0698H23.9207Z" fill="#48B29A"/>
<g opacity="0.3">
<path d="M24.6633 20.0391C24.4589 18.896 23.9561 17.8271 23.2058 16.9408L22.3716 18.0041C22.3072 18.0832 22.2262 18.1472 22.1343 18.1916C22.0424 18.2359 21.9419 18.2595 21.8399 18.2608C21.7354 18.2611 21.6322 18.2373 21.5384 18.1912C21.4446 18.1451 21.3627 18.0779 21.2991 17.9949L20.1899 16.5833C20.1173 16.4895 20.0713 16.3778 20.0568 16.26C20.0423 16.1423 20.0598 16.0228 20.1074 15.9141C20.0619 15.8081 20.0449 15.692 20.0582 15.5774C20.0715 15.4628 20.1146 15.3537 20.1833 15.2609C20.2519 15.1682 20.3437 15.095 20.4494 15.0488C20.5551 15.0026 20.6711 14.9849 20.7858 14.9974C19.4717 14.3169 18.0123 13.9647 16.5324 13.9708C12.4166 13.9616 8.98827 16.5833 8.40161 20.0391C8.38803 20.1882 8.40694 20.3385 8.45702 20.4796C8.50711 20.6207 8.58719 20.7492 8.69174 20.8564C8.79629 20.9636 8.92283 21.0468 9.06264 21.1003C9.20246 21.1539 9.35222 21.1765 9.50161 21.1666H23.5724C23.7211 21.1751 23.8698 21.1515 24.0085 21.0973C24.1472 21.0432 24.2726 20.9597 24.3761 20.8527C24.4796 20.7457 24.5589 20.6176 24.6084 20.4772C24.658 20.3368 24.6767 20.1874 24.6633 20.0391Z" fill="#0660FC"/>
</g>
<defs>
<linearGradient id="paint0_linear_135_25697" x1="15.3455" y1="12" x2="-3.65454" y2="10" gradientUnits="userSpaceOnUse">
<stop stop-color="#50CD89" stop-opacity="0"/>
<stop offset="0.0001" stop-color="#F1416C" stop-opacity="0"/>
<stop offset="1" stop-color="#50CD89" stop-opacity="0.08"/>
</linearGradient>
</defs>
</svg>
