<svg width="12" height="12" viewBox="0 0 12 12" fill="none" xmlns="http://www.w3.org/2000/svg">
<path opacity="0.3" d="M2.34497 10.75L1.74997 10.95C1.65238 10.9839 1.54721 10.9896 1.44652 10.9665C1.34583 10.9434 1.25367 10.8924 1.18062 10.8193C1.10757 10.7463 1.05657 10.6541 1.03346 10.5534C1.01036 10.4527 1.01608 10.3476 1.04997 10.25L1.24997 9.65496C1.36301 9.30944 1.55668 8.99579 1.81497 8.73996L3.59497 6.95996L5.03997 8.40496L3.25997 10.185C3.00414 10.4433 2.6905 10.6369 2.34497 10.75Z" fill="#A1A5B7"/>
<path d="M10.8298 4.06527L7.93483 1.17027C7.88812 1.12111 7.8319 1.08195 7.76958 1.0552C7.70726 1.02845 7.64015 1.01465 7.57233 1.01465C7.50451 1.01465 7.4374 1.02845 7.37508 1.0552C7.31276 1.08195 7.25654 1.12111 7.20983 1.17027L6.84983 1.53027C6.80066 1.57698 6.76151 1.63321 6.73476 1.69553C6.708 1.75785 6.6942 1.82496 6.6942 1.89277C6.6942 1.96059 6.708 2.0277 6.73476 2.09002C6.76151 2.15234 6.80066 2.20856 6.84983 2.25527L7.20983 2.61527L5.62983 4.19527C5.14714 3.96579 4.61305 3.86587 4.08004 3.90532C3.54704 3.94477 3.03347 4.12223 2.58983 4.42027C2.47855 4.49544 2.38519 4.59418 2.31636 4.70948C2.24752 4.82479 2.20491 4.95383 2.19155 5.08745C2.17819 5.22107 2.1944 5.35599 2.23904 5.48264C2.28368 5.60929 2.35564 5.72456 2.44983 5.82027L6.17983 9.55027C6.27554 9.64446 6.39082 9.71643 6.51747 9.76106C6.64412 9.8057 6.77904 9.82191 6.91266 9.80855C7.04628 9.79519 7.17532 9.75258 7.29062 9.68375C7.40592 9.61492 7.50466 9.52155 7.57983 9.41027C7.87787 8.96663 8.05534 8.45306 8.09479 7.92006C8.13424 7.38706 8.03431 6.85296 7.80483 6.37027L9.38483 4.79027L9.74483 5.15027C9.79154 5.19944 9.84776 5.2386 9.91008 5.26535C9.9724 5.2921 10.0395 5.3059 10.1073 5.3059C10.1751 5.3059 10.2423 5.2921 10.3046 5.26535C10.3669 5.2386 10.4231 5.19944 10.4698 5.15027L10.8298 4.79027C10.879 4.74356 10.9182 4.68734 10.9449 4.62502C10.9717 4.5627 10.9855 4.49559 10.9855 4.42777C10.9855 4.35996 10.9717 4.29285 10.9449 4.23053C10.9182 4.16821 10.879 4.11198 10.8298 4.06527Z" fill="#A1A5B7"/>
</svg>
