<svg width="10" height="10" viewBox="0 0 10 10" fill="none" xmlns="http://www.w3.org/2000/svg">
<path fill-rule="evenodd" clip-rule="evenodd" d="M2 0C0.895431 0 0 0.89543 0 2V8C0 9.10457 0.89543 10 2 10H8C9.10457 10 10 9.10457 10 8V2C10 0.895431 9.10457 0 8 0H2ZM4.72221 2.95508C4.72221 2.7825 4.58145 2.64014 4.41071 2.66555C3.33092 2.82592 2.5 3.80797 2.5 4.99549V7.01758C2.5 7.19016 2.63992 7.33008 2.8125 7.33008H4.40971C4.58229 7.33008 4.72221 7.19016 4.72221 7.01758V5.6021C4.72221 5.42952 4.58229 5.2896 4.40971 5.2896H3.61115V4.95345C3.61115 4.41687 3.95035 3.96422 4.41422 3.82285C4.57924 3.77249 4.72221 3.63715 4.72221 3.4645V2.95508ZM7.5 2.95508C7.5 2.7825 7.35924 2.64014 7.18849 2.66555C6.1087 2.82592 5.27779 3.80797 5.27779 4.99549V7.01758C5.27779 7.19016 5.41771 7.33008 5.59029 7.33008H7.1875C7.36008 7.33008 7.5 7.19016 7.5 7.01758V5.6021C7.5 5.42952 7.36008 5.2896 7.1875 5.2896H6.38885V4.95345C6.38885 4.41695 6.72813 3.96422 7.19193 3.82285C7.35703 3.77249 7.5 3.63715 7.5 3.4645V2.95508Z" fill="#0660FC"/>
</svg>
