<svg width="24" height="24" viewBox="0 0 24 24" fill="none" xmlns="http://www.w3.org/2000/svg">
<path opacity="0.2" d="M2 7.81V16.18C2 19.82 4.17 21.99 7.81 21.99H16.19C19.83 22 22 19.83 22 16.19V7.81C22 4.17 19.83 2 16.19 2H7.82C4.17 2 2 4.17 2 7.81Z" fill="white"/>
<path d="M12 18.25C13.79 18.25 15.19 17.36 16.14 16.48V17.19C16.14 17.6 16.48 17.94 16.89 17.94C17.3 17.94 17.64 17.6 17.64 17.19V14.44C17.64 14.03 17.3 13.69 16.89 13.69H14.41C14 13.69 13.66 14.03 13.66 14.44C13.66 14.85 14 15.19 14.41 15.19H15.31C14.57 15.93 13.42 16.75 12 16.75C9.38 16.75 7.25 14.62 7.25 12C7.25 11.59 6.91 11.25 6.5 11.25C6.09 11.25 5.75 11.59 5.75 12C5.75 15.45 8.55 18.25 12 18.25ZM17.5 12.75C17.91 12.75 18.25 12.41 18.25 12C18.25 8.55 15.45 5.75 12 5.75C9.85 5.75 8.27 6.68 7.25 7.57V6.81C7.25 6.4 6.91 6.06 6.5 6.06C6.09 6.06 5.75 6.4 5.75 6.81V9.55C5.75 9.58 5.75 9.61 5.75 9.63C5.76 9.74 5.79 9.84 5.84 9.93C5.89 10.02 5.96 10.1 6.05 10.17C6.12 10.22 6.2 10.26 6.29 10.29C6.36 10.31 6.43 10.32 6.5 10.32H8.93C9.34 10.32 9.68 9.98 9.68 9.57C9.68 9.16 9.34 8.82 8.93 8.82H8.1C8.9 8.08 10.19 7.26 11.98 7.26C14.6 7.26 16.73 9.39 16.73 12.01C16.75 12.41 17.09 12.75 17.5 12.75Z" fill="white"/>
</svg>
