<svg width="14" height="15" viewBox="0 0 14 15" fill="none" xmlns="http://www.w3.org/2000/svg">
<path opacity="0.2" d="M6.70832 12.9372C9.7689 12.9372 12.25 10.3858 12.25 7.23851C12.25 4.0912 9.7689 1.53979 6.70832 1.53979C3.64775 1.53979 1.16666 4.0912 1.16666 7.23851C1.16666 10.3858 3.64775 12.9372 6.70832 12.9372Z" fill="#7E8299"/>
<path d="M12.425 13.5371C12.32 13.5371 12.215 13.4951 12.1392 13.4171L11.0542 12.3014C10.8967 12.1394 10.8967 11.8755 11.0542 11.7075C11.2117 11.5456 11.4683 11.5456 11.6317 11.7075L12.7167 12.8233C12.8742 12.9852 12.8742 13.2492 12.7167 13.4171C12.635 13.4951 12.53 13.5371 12.425 13.5371Z" fill="#7E8299"/>
</svg>
