<svg width="20" height="20" viewBox="0 0 20 20" fill="none" xmlns="http://www.w3.org/2000/svg">
<g clip-path="url(#clip0_1284_9489)">
<path d="M18.1584 17.3002L17.5584 16.7002C17.8667 16.2335 18.05 15.6668 18.05 15.0668C18.05 13.4168 16.7167 12.0835 15.0667 12.0835C13.4167 12.0835 12.0834 13.4168 12.0834 15.0668C12.0834 16.7168 13.4167 18.0502 15.0667 18.0502C15.675 18.0502 16.2334 17.8668 16.7 17.5585L17.3 18.1585C17.4167 18.2752 17.575 18.3335 17.725 18.3335C17.8834 18.3335 18.0334 18.2752 18.15 18.1585C18.3917 17.9168 18.3917 17.5335 18.1584 17.3002Z" fill="#A1A5B7"/>
<path d="M1.69172 12.1919C1.69172 12.2169 1.67505 12.2502 1.67505 12.2752C2.44172 13.8086 3.69172 15.0669 5.22505 15.8252C5.25005 15.8252 5.28338 15.8086 5.30838 15.8086C5.02505 14.8419 4.80838 13.8502 4.65005 12.8586C3.65005 12.6919 2.65838 12.4752 1.69172 12.1919Z" fill="#A1A5B7"/>
<path d="M15.8917 5.35837C15.1084 3.7167 13.7834 2.3917 12.15 1.6167C12.45 2.60837 12.7 3.62503 12.8667 4.6417C13.8834 4.80837 14.9 5.05003 15.8917 5.35837Z" fill="#A1A5B7"/>
<path d="M1.60828 5.35811C2.60828 5.05811 3.62494 4.80811 4.64161 4.64144C4.80828 3.64977 5.01661 2.66644 5.29994 1.69977C5.27494 1.69977 5.24161 1.68311 5.21661 1.68311C3.64994 2.45811 2.37494 3.76644 1.60828 5.35811Z" fill="#A1A5B7"/>
<path opacity="0.4" d="M11.5166 4.46683C11.3166 3.3835 11.0666 2.30016 10.7083 1.25016C10.6916 1.19183 10.6916 1.14183 10.6833 1.07516C10.0666 0.925163 9.41661 0.833496 8.74994 0.833496C8.07494 0.833496 7.43328 0.925163 6.80828 1.0835C6.79994 1.14183 6.80828 1.19183 6.79161 1.2585C6.44161 2.3085 6.18328 3.3835 5.98328 4.46683C7.82494 4.26683 9.67494 4.26683 11.5166 4.46683Z" fill="#A1A5B7"/>
<path opacity="0.4" d="M4.46671 5.9834C3.37504 6.1834 2.30837 6.44173 1.25004 6.79173C1.19171 6.8084 1.14171 6.8084 1.08337 6.81673C0.925041 7.4334 0.833374 8.0834 0.833374 8.75007C0.833374 9.42507 0.925041 10.0667 1.08337 10.6917C1.14171 10.7001 1.19171 10.6917 1.25837 10.7084C2.30837 11.0584 3.38337 11.3167 4.47504 11.5167C4.26671 9.67507 4.26671 7.82507 4.46671 5.9834Z" fill="#A1A5B7"/>
<path opacity="0.4" d="M16.4166 6.81673C16.3582 6.81673 16.3082 6.8084 16.2416 6.79173C15.1916 6.44173 14.1082 6.1834 13.0249 5.9834C13.2332 7.82507 13.2332 9.67507 13.0249 11.5084C14.1082 11.3084 15.1916 11.0584 16.2416 10.7001C16.2999 10.6834 16.3499 10.6917 16.4166 10.6834C16.5666 10.0584 16.6666 9.41673 16.6666 8.74173C16.6666 8.0834 16.5749 7.44173 16.4166 6.81673Z" fill="#A1A5B7"/>
<path opacity="0.4" d="M5.98328 13.0332C6.18328 14.1249 6.43328 15.1999 6.79161 16.2499C6.80828 16.3082 6.79994 16.3582 6.80828 16.4249C7.43328 16.5749 8.07494 16.6666 8.74994 16.6666C9.41661 16.6666 10.0666 16.5749 10.6833 16.4166C10.6916 16.3582 10.6916 16.3082 10.7083 16.2416C11.0583 15.1916 11.3166 14.1166 11.5166 13.0249C10.5999 13.1249 9.67494 13.1999 8.74994 13.1999C7.82494 13.1999 6.89994 13.1332 5.98328 13.0332Z" fill="#A1A5B7"/>
<path opacity="0.4" d="M5.79175 5.7915C5.54175 7.75817 5.54175 9.7415 5.79175 11.7165C7.75841 11.9665 9.74175 11.9665 11.7167 11.7165C11.9667 9.74984 11.9667 7.7665 11.7167 5.7915C9.74175 5.5415 7.75841 5.5415 5.79175 5.7915Z" fill="#A1A5B7"/>
</g>
<defs>
<clipPath id="clip0_1284_9489">
<rect width="20" height="20" fill="white"/>
</clipPath>
</defs>
</svg>
