<svg width="20" height="20" viewBox="0 0 20 20" fill="none" xmlns="http://www.w3.org/2000/svg">
<path opacity="0.3" d="M16.8166 7.70011H15.6583C15.4519 7.18172 15.1711 6.69609 14.825 6.25844L15.3916 5.27511C15.5944 4.92 15.6486 4.49916 15.5425 4.10425C15.4363 3.70935 15.1784 3.37239 14.825 3.16678L13.4666 2.38344C13.2911 2.28194 13.0972 2.21608 12.8961 2.18963C12.6951 2.16318 12.4908 2.17666 12.2949 2.2293C12.0991 2.28194 11.9155 2.37271 11.7548 2.4964C11.5941 2.62008 11.4593 2.77427 11.3583 2.95011L10.7833 3.95011C10.5239 3.91102 10.2623 3.88875 9.99998 3.88344C9.73789 3.88599 9.47623 3.90548 9.21665 3.94178L8.65832 2.95011C8.4571 2.59438 8.12286 2.33311 7.72907 2.22373C7.33529 2.11434 6.91418 2.1658 6.55832 2.36678L5.19165 3.14178C4.83592 3.343 4.57465 3.67724 4.46527 4.07102C4.35588 4.46481 4.40733 4.88591 4.60832 5.24178L5.17498 6.25011C4.83375 6.68504 4.55339 7.16445 4.34165 7.67511H3.21665C3.01359 7.67178 2.8119 7.70904 2.62344 7.78471C2.43497 7.86038 2.26351 7.97293 2.11913 8.11576C1.97475 8.25858 1.86035 8.42881 1.78265 8.61645C1.70495 8.80409 1.66551 9.00536 1.66665 9.20845V10.7751C1.66555 10.9776 1.70434 11.1783 1.78081 11.3657C1.85727 11.5532 1.96991 11.7238 2.11229 11.8677C2.25468 12.0116 2.42402 12.1261 2.61064 12.2046C2.79727 12.2831 2.99753 12.324 3.19998 12.3251H4.34165C4.55047 12.8372 4.83106 13.317 5.17498 13.7501L4.59998 14.7334C4.49868 14.9084 4.43296 15.1016 4.40662 15.3021C4.38028 15.5025 4.39384 15.7061 4.4465 15.9013C4.49917 16.0965 4.58991 16.2793 4.7135 16.4393C4.83709 16.5993 4.99109 16.7332 5.16665 16.8334L6.52498 17.6251C6.70056 17.7266 6.89443 17.7925 7.0955 17.8189C7.29657 17.8454 7.50088 17.8319 7.69673 17.7793C7.89258 17.7266 8.07612 17.6358 8.23684 17.5122C8.39755 17.3885 8.53229 17.2343 8.63332 17.0584L9.20832 16.0584C9.47024 16.0988 9.73497 16.1183 9.99998 16.1168C10.2787 16.1146 10.557 16.0951 10.8333 16.0584L11.4 17.0418C11.5002 17.2173 11.6342 17.3713 11.7941 17.4949C11.9541 17.6185 12.1369 17.7093 12.3321 17.7619C12.5273 17.8146 12.7309 17.8281 12.9314 17.8018C13.1318 17.7755 13.325 17.7097 13.5 17.6084L14.8583 16.8251C15.0346 16.7256 15.1894 16.5921 15.3138 16.4325C15.4382 16.2728 15.5298 16.0901 15.5833 15.8949C15.6367 15.6997 15.651 15.4958 15.6252 15.295C15.5995 15.0942 15.5343 14.9005 15.4333 14.7251L14.8583 13.7251C15.1924 13.3004 15.4724 12.8357 15.6916 12.3418H16.8166C17.2142 12.3313 17.5927 12.1693 17.8746 11.8889C18.1566 11.6085 18.3207 11.2309 18.3333 10.8334V9.25844C18.3378 8.85099 18.1807 8.45833 17.8965 8.16632C17.6123 7.87431 17.2241 7.70669 16.8166 7.70011Z" fill="#A1A5B7"/>
<path d="M9.99166 12.7087C11.4874 12.7087 12.7 11.4961 12.7 10.0003C12.7 8.50455 11.4874 7.29199 9.99166 7.29199C8.49589 7.29199 7.28333 8.50455 7.28333 10.0003C7.28333 11.4961 8.49589 12.7087 9.99166 12.7087Z" fill="#A1A5B7"/>
</svg>
