<svg width="163" height="162" viewBox="0 0 163 162" fill="none" xmlns="http://www.w3.org/2000/svg">
<g clip-path="url(#clip0_754_65338)">
<path d="M153.427 104.123C150.055 109.914 145.484 114.907 140.055 119.116C138.01 120.698 135.849 122.175 133.57 123.535C133.345 123.665 133.119 123.796 132.893 123.927C129.247 126.058 125.354 127.888 121.252 129.443C120.827 129.609 120.397 129.77 119.963 129.927C119.634 130.049 119.299 130.166 118.961 130.28C118.935 130.288 118.904 130.301 118.87 130.319C117.463 130.807 116.031 131.264 114.573 131.691C114.104 131.831 113.631 131.966 113.153 132.097C112.285 132.341 111.409 132.572 110.523 132.789C110.063 132.903 109.599 133.016 109.13 133.129C105.64 133.94 102.086 134.58 98.4659 135.051C59.3251 140.123 14.4551 124.959 6.0827 90.6594C3.59571 80.4505 7.80146 74.2022 13.6869 70.2546C16.6166 68.2938 19.963 66.9082 23.101 65.8887C23.2312 65.8364 23.3658 65.7928 23.5047 65.7579C23.5133 65.7492 23.5177 65.7449 23.5177 65.7449C26.213 64.8952 28.726 64.307 30.6792 63.8495C30.6792 63.8495 30.7703 63.6142 30.9786 63.1959C33.3224 58.3855 49.4423 28.4776 88.2315 27.0266C112.62 26.1247 113.987 43.9675 123.583 51.8628C126.135 53.9542 129.26 55.3529 133.544 55.5098C133.713 55.5228 133.896 55.5228 134.078 55.5228C134.312 55.5228 134.551 55.5228 134.794 55.5228C134.911 55.5228 135.042 55.5098 135.159 55.5098C135.202 55.5098 135.246 55.5098 135.289 55.5098C135.463 55.501 135.641 55.4923 135.823 55.4836C135.94 55.4705 136.07 55.4705 136.187 55.4575C136.5 55.4313 136.821 55.4008 137.151 55.366C137.177 55.366 137.207 55.366 137.242 55.366C137.494 55.3311 137.746 55.305 137.997 55.2875C138.51 55.244 139.017 55.2135 139.521 55.196C142.346 55.1176 144.951 55.4967 147.281 56.2679C162.06 61.1567 166.305 82.006 153.427 104.123Z" fill="#EAEEF9" fill-opacity="0.2"/>
<path fill-rule="evenodd" clip-rule="evenodd" d="M31.808 109.022C31.6009 109.868 31.1006 110.575 30.3587 111.024C29.8411 111.334 29.2544 111.507 28.6678 111.507C28.4148 111.507 28.1617 111.472 27.9087 111.403C27.0805 111.214 26.3558 110.696 25.9073 109.954C25.5967 109.437 25.4414 108.85 25.4414 108.281C25.4414 107.176 25.9763 106.124 26.977 105.503C28.4953 104.588 30.4967 105.054 31.4284 106.572C31.877 107.314 32.015 108.177 31.808 109.022ZM30.5485 107.125C29.9101 106.089 28.5471 105.761 27.5118 106.4C26.4939 107.021 26.1661 108.384 26.7872 109.419C27.4256 110.454 28.7886 110.782 29.8238 110.144C30.3242 109.833 30.6692 109.35 30.8073 108.781C30.9453 108.212 30.8418 107.625 30.5485 107.125Z" fill="white"/>
<path d="M10.6551 107.953C10.4826 107.953 10.3101 107.866 10.2065 107.694L7.99808 104.088C7.86005 103.846 7.92907 103.536 8.17062 103.38C8.41217 103.242 8.73999 103.311 8.87802 103.553L11.0865 107.159C11.2418 107.4 11.1727 107.728 10.9312 107.866C10.8392 107.924 10.7472 107.953 10.6551 107.953Z" fill="white"/>
<path d="M7.73884 107.245C7.56631 107.245 7.39377 107.159 7.3075 107.004C7.15222 106.762 7.23849 106.434 7.48004 106.296L11.086 104.088C11.3276 103.932 11.6382 104.001 11.7934 104.26C11.9487 104.502 11.8625 104.812 11.6209 104.968L8.0149 107.176C7.93438 107.222 7.84237 107.245 7.73884 107.245Z" fill="white"/>
<path d="M34.6885 80.1575C34.6885 80.1575 43.6086 77.8455 44.8681 78.3804C46.1104 78.9325 48.1118 87.266 47.5079 87.473C46.904 87.68 44.0227 84.816 44.0227 84.816C44.0227 84.816 43.3153 86.2307 42.1938 85.7649C41.0896 85.2818 39.8646 83.3149 39.8646 83.3149C39.8646 83.3149 39.554 84.2811 38.4153 83.867C37.2593 83.4702 35.7409 81.2445 35.7409 81.2445L34.6885 80.1575Z" fill="white"/>
<path d="M12.345 68.1834C12.345 68.1834 7.65206 60.2467 6.39255 59.7464C5.11578 59.246 -2.18249 63.732 -1.90643 64.3013C-1.63037 64.888 2.44147 64.888 2.44147 64.888C2.44147 64.888 1.94112 66.389 3.0626 66.8376C4.18409 67.3035 6.44431 66.7686 6.44431 66.7686C6.44431 66.7686 5.97846 67.6658 7.08269 68.1834C8.16967 68.7183 10.8095 68.2179 10.8095 68.2179L12.345 68.1834Z" fill="#EAEEF9"/>
<path d="M39.5709 73.5837L32.0311 88.7151C31.8068 89.1637 31.2547 89.3363 30.8061 89.112L6.90987 77.1897C6.46128 76.9654 6.28874 76.4306 6.51304 75.982L14.0529 60.8506C14.1104 60.7471 14.1794 60.6608 14.2599 60.5918C14.5187 60.3502 14.9328 60.2812 15.2779 60.4538L39.1741 72.376C39.5192 72.5485 39.709 72.9109 39.6572 73.2732C39.6572 73.3882 39.6285 73.4917 39.5709 73.5837Z" fill="#9EDCFF"/>
<path d="M7.75488 76.2063L21.8856 74.895C22.593 74.826 23.2831 75.1711 23.6627 75.7749L31.2888 87.956L24.2838 75.0675C23.9043 74.3256 23.0761 73.9115 22.2479 74.0668L7.75488 76.2063Z" fill="#6FA3FF"/>
<path d="M39.6226 73.3595L22.3345 76.2064L14.208 60.6781C14.5013 60.3848 14.9327 60.2813 15.2777 60.4538L39.174 72.3761C39.519 72.5486 39.6743 72.9454 39.6226 73.3595Z" fill="#9EDCFF"/>
<path d="M14.709 61.644L21.783 75.0846C22.128 75.7575 22.8182 76.1026 23.5601 75.9818L38.4327 73.618L23.3013 77.0343C22.4386 77.2586 21.6104 76.8445 21.2826 76.0163L14.709 61.644Z" fill="#6EA3FF"/>
<path d="M53.5645 64.0768L93.5755 34.4007C95.1974 33.1756 97.4404 33.1929 99.0622 34.4179L138.452 64.0768H53.5645Z" fill="#01CCFF"/>
<path d="M137.002 121.135H55.0304C53.4949 121.135 52.2354 119.875 52.2354 118.34V66.4753C52.2354 64.9397 53.4949 63.6802 55.0304 63.6802H137.002C138.538 63.6802 139.78 64.9397 139.78 66.4753V118.34C139.78 119.875 138.538 121.135 137.002 121.135Z" fill="url(#paint0_linear_754_65338)"/>
<path d="M135.829 67.4758L126.633 74.6016L126.512 74.7051L119.058 80.4678L113.658 84.6432L102.443 93.339L100.269 95.0126L99.0787 94.2707C97.198 93.1319 94.8343 93.1319 92.9709 94.3052L91.7631 95.0471L89.8825 93.5805L78.2708 84.6432L72.8532 80.4678L65.3479 74.7051L63.9676 73.6354L55.9619 67.4758H135.829Z" fill="white"/>
<path d="M136.709 117.27L100.269 95.0126L99.0787 94.2707C97.198 93.1319 94.8343 93.1319 92.9709 94.3052L91.7631 95.0471L55.9619 117.27L89.8825 93.5805L92.8674 91.5101C94.9205 89.9745 97.7501 89.9745 99.8033 91.5101L102.443 93.339L136.709 117.27Z" fill="#01CCFF"/>
<path d="M135.829 41.4749H55.9619V67.476H135.829V41.4749Z" fill="white"/>
<path d="M126.633 54.8118H63.9678V50.6365H126.633V54.8118Z" fill="#EAEEF9"/>
<path d="M126.633 64.7501H63.9678V60.5747H126.633V64.7501Z" fill="#EAEEF9"/>
<path d="M126.633 70.5298V74.6016L126.512 74.7052H65.3481L63.9678 73.6354V70.5298H126.633Z" fill="#EAEEF9"/>
<path d="M119.059 80.468L113.658 84.6434H78.2711L72.8535 80.468H119.059Z" fill="#EAEEF9"/>
<path d="M108.859 117.679C108.859 124.753 103.113 130.481 96.0391 130.481C88.9652 130.481 83.2197 124.753 83.2197 117.679C83.2197 110.588 88.9652 104.86 96.0391 104.86C103.113 104.86 108.859 110.588 108.859 117.679Z" fill="#01CCFF"/>
<path d="M97.3916 113.924V121.659H95.7562V115.477H95.7109L93.9395 116.587V115.137L95.8544 113.924H97.3916Z" fill="white"/>
</g>
<defs>
<linearGradient id="paint0_linear_754_65338" x1="98.5859" y1="167.5" x2="111.086" y2="49" gradientUnits="userSpaceOnUse">
<stop stop-color="#01CCFF"/>
<stop offset="0.485264" stop-color="#0398FE"/>
<stop offset="1" stop-color="#0660FC"/>
</linearGradient>
<clipPath id="clip0_754_65338">
<rect width="162" height="162" fill="white" transform="translate(0.0859375)"/>
</clipPath>
</defs>
</svg>
