<svg width="18" height="18" viewBox="0 0 18 18" fill="none" xmlns="http://www.w3.org/2000/svg">
<path opacity="0.2" d="M5.8575 1.5H12.135C14.8725 1.5 16.5 3.1275 16.5 5.8575V12.135C16.5 14.865 14.8725 16.4925 12.1425 16.4925H5.8575C3.1275 16.5 1.5 14.8725 1.5 12.1425V5.8575C1.5 3.1275 3.1275 1.5 5.8575 1.5Z" fill="#0660FC"/>
<path d="M7.67986 4.6875C7.36486 4.6875 7.11736 4.9425 7.11736 5.25V11.3925L5.86486 10.14C5.64736 9.9225 5.28736 9.9225 5.06986 10.14C4.85236 10.3575 4.85236 10.7175 5.06986 10.935L7.28236 13.1475C7.33486 13.2 7.39486 13.2375 7.46236 13.2675C7.52986 13.2975 7.60486 13.3125 7.67986 13.3125C7.75486 13.3125 7.82236 13.2975 7.89736 13.2675C8.03236 13.2075 8.14486 13.1025 8.20486 12.96C8.23486 12.8925 8.24986 12.8175 8.24986 12.7425V5.25C8.24236 4.9425 7.98736 4.6875 7.67986 4.6875Z" fill="#0660FC"/>
<path d="M12.9298 7.065L10.7173 4.8525C10.6648 4.8 10.6048 4.7625 10.5373 4.7325C10.4023 4.6725 10.2448 4.6725 10.1098 4.7325C9.97482 4.7925 9.86232 4.8975 9.80232 5.04C9.77232 5.1075 9.75732 5.175 9.75732 5.25V12.75C9.75732 13.0575 10.0123 13.3125 10.3198 13.3125C10.6273 13.3125 10.8823 13.0575 10.8823 12.75V6.6075L12.1348 7.86C12.2473 7.9725 12.3898 8.025 12.5323 8.025C12.6748 8.025 12.8173 7.9725 12.9298 7.86C13.1473 7.6425 13.1473 7.2825 12.9298 7.065Z" fill="#0660FC"/>
</svg>
