<svg width="67" height="101" viewBox="0 0 67 101" fill="none" xmlns="http://www.w3.org/2000/svg">
<g opacity="0.21" clip-path="url(#clip0_562_22403)">
<path d="M41.0314 101C40.3409 101 39.6702 100.862 39.039 100.566C37.8357 100.034 36.9085 99.067 36.4351 97.8242L28.071 76.0855L6.31262 67.7214C5.01067 67.2283 3.98489 66.1828 3.472 64.8808C2.5054 62.3361 3.7679 59.4757 6.31262 58.5091L28.0513 50.1451L36.4351 28.4064C36.9282 27.1045 37.9738 26.0787 39.2757 25.5658C40.4988 25.0923 41.8402 25.1318 43.0435 25.6644C44.2468 26.197 45.174 27.1636 45.6474 28.4064L54.0115 50.1451L75.7501 58.5289C77.0521 59.022 78.0779 60.0675 78.5908 61.3695C79.5771 63.9142 78.2948 66.7746 75.7501 67.7412L54.0115 76.1052L45.6277 97.8439C45.1345 99.1459 44.089 100.172 42.787 100.685C42.2347 100.902 41.6232 101 41.0314 101ZM11.9347 63.1252L30.9116 70.424C32.2136 70.9171 33.2394 71.9627 33.7523 73.2646L41.0511 92.2416L48.3499 73.2646C48.8431 71.9627 49.8886 70.9369 51.1906 70.424L70.1675 63.1252L51.1906 55.8263C49.8886 55.3332 48.8628 54.2877 48.3499 52.9857L41.0511 34.0087L33.7523 52.9857C33.2591 54.2877 32.2136 55.3134 30.9116 55.8263L11.9347 63.1252Z" fill="white"/>
<path d="M17.3594 34.7188C16.0574 34.7188 14.8738 33.91 14.4201 32.6869L10.9877 23.7311L2.03184 20.2986C0.808789 19.8449 0 18.6613 0 17.3594C0 16.0574 0.808789 14.8738 2.03184 14.4201L10.9877 10.9877L14.4201 2.03184C14.8738 0.808789 16.0574 0 17.3594 0C18.6613 0 19.8449 0.808789 20.2986 2.03184L23.7311 10.9877L32.6869 14.4201C33.91 14.8936 34.7188 16.0574 34.7188 17.3594C34.7188 18.6613 33.91 19.8449 32.6869 20.2986L23.7311 23.7311L20.2986 32.6869C19.8449 33.91 18.6613 34.7188 17.3594 34.7188ZM11.9543 17.3594L14.5582 18.3654C15.3867 18.6811 16.0574 19.3518 16.373 20.1803L17.3791 22.7842L18.3852 20.1803C18.7008 19.3518 19.3715 18.6811 20.2 18.3654L22.8039 17.3594L20.2 16.3533C19.3715 16.0377 18.7008 15.367 18.3852 14.5385L17.3594 11.9543L16.3533 14.5582C16.0377 15.3867 15.367 16.0574 14.5385 16.373L11.9543 17.3594Z" fill="white"/>
<path d="M78.9063 50.5C77.6043 50.5 76.4207 49.6912 75.967 48.4682L71.2129 36.0996L58.8443 31.3455C57.6213 30.8721 56.8125 29.7082 56.8125 28.4063C56.8125 27.1043 57.6213 25.9207 58.8443 25.467L71.2129 20.7129L75.967 8.34434C76.4404 7.12129 77.6043 6.3125 78.9063 6.3125C80.2082 6.3125 81.3918 7.12129 81.8455 8.34434L86.5996 20.7129L98.9682 25.467C100.191 25.9404 101 27.1043 101 28.4063C101 29.7082 100.191 30.8918 98.9682 31.3455L86.5996 36.0996L81.8455 48.4682C81.3918 49.6912 80.2082 50.5 78.9063 50.5ZM68.7668 28.4063L74.7834 30.7143C75.6119 31.0299 76.2826 31.7006 76.5982 32.5291L78.9063 38.5457L81.2143 32.5291C81.5299 31.7006 82.2006 31.0299 83.0291 30.7143L89.0457 28.4063L83.0291 26.0982C82.2006 25.7826 81.5299 25.1119 81.2143 24.2834L78.9063 18.2668L76.5982 24.2834C76.2826 25.1119 75.6119 25.7826 74.7834 26.0982L68.7668 28.4063Z" fill="white"/>
</g>
<defs>
<clipPath id="clip0_562_22403">
<rect width="101" height="101" fill="white"/>
</clipPath>
</defs>
</svg>
