<svg width="10" height="10" viewBox="0 0 10 10" fill="none" xmlns="http://www.w3.org/2000/svg">
<g clip-path="url(#clip0_475_25998)">
<path opacity="0.3" d="M5.00016 9.16683C7.30135 9.16683 9.16683 7.30135 9.16683 5.00016C9.16683 2.69898 7.30135 0.833496 5.00016 0.833496C2.69898 0.833496 0.833496 2.69898 0.833496 5.00016C0.833496 7.30135 2.69898 9.16683 5.00016 9.16683Z" fill="#7E8299"/>
<path d="M6.77083 5.3125H5C4.91746 5.31142 4.8386 5.27815 4.78022 5.21978C4.72185 5.1614 4.68858 5.08254 4.6875 5V2.5C4.6875 2.41712 4.72042 2.33763 4.77903 2.27903C4.83763 2.22042 4.91712 2.1875 5 2.1875C5.08288 2.1875 5.16237 2.22042 5.22097 2.27903C5.27958 2.33763 5.3125 2.41712 5.3125 2.5V4.69583H6.77083C6.85371 4.69583 6.9332 4.72876 6.9918 4.78736C7.05041 4.84597 7.08333 4.92545 7.08333 5.00833C7.08333 5.09121 7.05041 5.1707 6.9918 5.2293C6.9332 5.28791 6.85371 5.32083 6.77083 5.32083V5.3125Z" fill="#7E8299"/>
</g>
<defs>
<clipPath id="clip0_475_25998">
<rect width="10" height="10" fill="white"/>
</clipPath>
</defs>
</svg>
