<svg width="28" height="24" viewBox="0 0 28 24" fill="none" xmlns="http://www.w3.org/2000/svg">
<rect width="24" height="24" rx="12" fill="url(#paint0_linear_135_25704)"/>
<path opacity="0.3" d="M14.2775 11.4502C16.6772 11.4502 18.6225 9.52126 18.6225 7.14183C18.6225 4.7624 16.6772 2.8335 14.2775 2.8335C11.8778 2.8335 9.9325 4.7624 9.9325 7.14183C9.9325 9.52126 11.8778 11.4502 14.2775 11.4502Z" fill="#0660FC"/>
<path d="M14.2775 21.167C17.8365 21.167 20.7216 19.2381 20.7216 16.8586C20.7216 14.4792 17.8365 12.5503 14.2775 12.5503C10.7184 12.5503 7.83329 14.4792 7.83329 16.8586C7.83329 19.2381 10.7184 21.167 14.2775 21.167Z" fill="#0660FC"/>
<g opacity="0.3">
<path d="M21.0241 4.66656C20.5198 4.66714 20.022 4.77986 19.5666 4.99656C19.9508 5.92895 20.0753 6.948 19.9268 7.94545C19.7783 8.94291 19.3624 9.88152 18.7233 10.6616C19.138 11.0392 19.6385 11.3099 20.1815 11.4502C20.7245 11.5905 21.2935 11.5962 21.8392 11.4668C22.3849 11.3374 22.8908 11.0768 23.3129 10.7076C23.7351 10.3384 24.0608 9.87174 24.2617 9.34814C24.4627 8.82455 24.5328 8.25983 24.4661 7.70299C24.3993 7.14614 24.1977 6.614 23.8787 6.15273C23.5597 5.69146 23.133 5.315 22.6355 5.05601C22.1381 4.79703 21.5849 4.66334 21.0241 4.66656Z" fill="#0660FC"/>
</g>
<path d="M21.0241 12.4585C20.5098 12.4581 19.9969 12.5103 19.4933 12.6143C20.2505 13.0433 20.886 13.658 21.3399 14.4005C21.7937 15.1431 22.051 15.989 22.0874 16.8585C22.0834 17.7405 21.8187 18.6015 21.3266 19.3335C24.0216 19.2327 26.1666 17.7385 26.1666 15.9052C26.1666 14.0718 23.8658 12.4585 21.0241 12.4585Z" fill="#0660FC"/>
<defs>
<linearGradient id="paint0_linear_135_25704" x1="15.3455" y1="12" x2="-3.65454" y2="10" gradientUnits="userSpaceOnUse">
<stop stop-color="#0660FC" stop-opacity="0"/>
<stop offset="1" stop-color="#0660FC" stop-opacity="0.08"/>
</linearGradient>
</defs>
</svg>
