<svg width="18" height="18" viewBox="0 0 18 18" fill="none" xmlns="http://www.w3.org/2000/svg">
<path d="M15.8025 3.9225C14.595 3.8025 13.3875 3.7125 12.1725 3.645V3.6375L12.0075 2.6625C11.895 1.9725 11.73 0.9375 9.97503 0.9375H8.01003C6.26253 0.9375 6.09753 1.9275 5.97753 2.655L5.82003 3.615C5.12253 3.66 4.42503 3.705 3.72753 3.7725L2.19753 3.9225C1.88253 3.9525 1.65753 4.23 1.68753 4.5375C1.71753 4.845 1.98753 5.07 2.30253 5.04L3.83253 4.89C7.76253 4.5 11.7225 4.65 15.6975 5.0475C15.72 5.0475 15.735 5.0475 15.7575 5.0475C16.0425 5.0475 16.29 4.83 16.32 4.5375C16.3425 4.23 16.1175 3.9525 15.8025 3.9225Z" fill="#F1416C"/>
<path opacity="0.3991" d="M14.4225 6.105C14.2425 5.9175 13.995 5.8125 13.74 5.8125H4.26C4.005 5.8125 3.75 5.9175 3.5775 6.105C3.405 6.2925 3.3075 6.5475 3.3225 6.81L3.7875 14.505C3.87 15.645 3.975 17.07 6.5925 17.07H11.4075C14.025 17.07 14.13 15.6525 14.2125 14.505L14.6775 6.8175C14.6925 6.5475 14.595 6.2925 14.4225 6.105Z" fill="#F1416C"/>
<path fill-rule="evenodd" clip-rule="evenodd" d="M7.18497 12.75C7.18497 12.4393 7.43681 12.1875 7.74747 12.1875H10.245C10.5556 12.1875 10.8075 12.4393 10.8075 12.75C10.8075 13.0607 10.5556 13.3125 10.245 13.3125H7.74747C7.43681 13.3125 7.18497 13.0607 7.18497 12.75Z" fill="#F1416C"/>
<path fill-rule="evenodd" clip-rule="evenodd" d="M6.5625 9.75C6.5625 9.43934 6.81434 9.1875 7.125 9.1875H10.875C11.1857 9.1875 11.4375 9.43934 11.4375 9.75C11.4375 10.0607 11.1857 10.3125 10.875 10.3125H7.125C6.81434 10.3125 6.5625 10.0607 6.5625 9.75Z" fill="#F1416C"/>
</svg>
