<svg width="22" height="22" viewBox="0 0 22 22" fill="none" xmlns="http://www.w3.org/2000/svg">
<path opacity="0.3" d="M8.27749 10.4502C10.6772 10.4502 12.6225 8.52126 12.6225 6.14183C12.6225 3.7624 10.6772 1.8335 8.27749 1.8335C5.87782 1.8335 3.9325 3.7624 3.9325 6.14183C3.9325 8.52126 5.87782 10.4502 8.27749 10.4502Z" fill="#0660FC"/>
<path d="M8.27754 20.167C11.8366 20.167 14.7217 18.2381 14.7217 15.8586C14.7217 13.4792 11.8366 11.5503 8.27754 11.5503C4.71853 11.5503 1.83337 13.4792 1.83337 15.8586C1.83337 18.2381 4.71853 20.167 8.27754 20.167Z" fill="#0660FC"/>
<g opacity="0.3">
<path d="M15.0242 3.66656C14.5199 3.66714 14.0221 3.77986 13.5667 3.99656C13.9509 4.92895 14.0754 5.948 13.9269 6.94545C13.7784 7.94291 13.3625 8.88152 12.7234 9.66156C13.1381 10.0392 13.6386 10.3099 14.1816 10.4502C14.7246 10.5905 15.2936 10.5962 15.8393 10.4668C16.385 10.3374 16.8909 10.0768 17.313 9.70759C17.7352 9.33838 18.0609 8.87174 18.2618 8.34814C18.4628 7.82455 18.5329 7.25983 18.4662 6.70299C18.3994 6.14614 18.1978 5.614 17.8788 5.15273C17.5598 4.69146 17.1331 4.315 16.6356 4.05601C16.1382 3.79703 15.585 3.66334 15.0242 3.66656Z" fill="#0660FC"/>
</g>
<path d="M15.0241 11.4585C14.5099 11.4581 13.9969 11.5103 13.4933 11.6143C14.2505 12.0433 14.886 12.658 15.3399 13.4005C15.7938 14.1431 16.051 14.989 16.0875 15.8585C16.0834 16.7405 15.8187 17.6015 15.3266 18.3335C18.0216 18.2327 20.1666 16.7385 20.1666 14.9052C20.1666 13.0718 17.8658 11.4585 15.0241 11.4585Z" fill="#0660FC"/>
</svg>
