<svg width="22" height="22" viewBox="0 0 22 22" fill="none" xmlns="http://www.w3.org/2000/svg">
<path opacity="0.2" d="M14.6856 1.80849L7.224 1.84886C4.20672 1.86518 1.77398 4.3244 1.7903 7.34167L1.83038 14.7482C1.8467 17.7655 4.30592 20.1982 7.32319 20.1819L14.7847 20.1416C17.802 20.1252 20.2348 17.666 20.2184 14.6487L20.1784 7.24218C20.162 4.22491 17.7028 1.79216 14.6856 1.80849Z" fill="#F1416C"/>
<path d="M11 14.4007C12.9238 14.4007 14.4833 12.8412 14.4833 10.9174C14.4833 8.99362 12.9238 7.43408 11 7.43408C9.0762 7.43408 7.51666 8.99362 7.51666 10.9174C7.51666 12.8412 9.0762 14.4007 11 14.4007Z" fill="#F1416C"/>
<path d="M16.9584 19.6805C16.5245 18.4466 15.7183 17.3778 14.651 16.6217C13.5837 15.8656 12.308 15.4595 11 15.4595C9.69204 15.4595 8.41632 15.8656 7.34902 16.6217C6.28172 17.3778 5.4755 18.4466 5.04169 19.6805C5.76063 20.0088 6.54306 20.1747 7.33335 20.1664H14.7859C15.5353 20.1522 16.2742 19.9869 16.9584 19.6805Z" fill="#F1416C"/>
</svg>
