<svg width="7" height="7" viewBox="0 0 7 7" fill="none" xmlns="http://www.w3.org/2000/svg">
<path d="M5.92993 3.20992C5.79493 3.14492 5.66493 3.07992 5.54493 3.00492C5.44493 2.94492 5.34493 2.87992 5.24993 2.80992C5.16993 2.75992 5.07993 2.68492 4.98993 2.60992C4.97993 2.60492 4.94993 2.57992 4.90993 2.53992C4.75493 2.41492 4.58993 2.24492 4.43493 2.05992C4.42493 2.04992 4.39493 2.01992 4.36993 1.97492C4.31993 1.91992 4.24493 1.82492 4.17993 1.71992C4.12493 1.64992 4.05993 1.54992 3.99993 1.44492C3.92493 1.31992 3.85993 1.19492 3.79993 1.06492C3.73493 0.924922 3.68493 0.794922 3.63993 0.669922L0.949928 3.35992C0.774928 3.53492 0.604928 3.86492 0.569928 4.10992L0.354928 5.59992C0.309928 5.91492 0.394928 6.20992 0.589928 6.40492C0.754928 6.56992 0.979928 6.65492 1.22993 6.65492C1.28493 6.65492 1.33993 6.64992 1.39493 6.64492L2.87993 6.43492C3.12493 6.39992 3.45493 6.23492 3.62993 6.05492L6.31993 3.36492C6.19493 3.32492 6.06993 3.26992 5.92993 3.20992Z" fill="white"/>
</svg>
