<svg width="102" height="102" viewBox="0 0 102 102" fill="none" xmlns="http://www.w3.org/2000/svg">
<circle cx="51" cy="51" r="51" fill="#FBFCFF"/>
<circle cx="51" cy="51" r="41" fill="#F3F8FF"/>
<path d="M51 28.5C45.105 28.5 40.3125 33.2925 40.3125 39.1875C40.3125 44.97 44.835 49.65 50.73 49.8525C50.91 49.83 51.09 49.83 51.225 49.8525C51.27 49.8525 51.2925 49.8525 51.3375 49.8525C51.36 49.8525 51.36 49.8525 51.3825 49.8525C57.1425 49.65 61.665 44.97 61.6875 39.1875C61.6875 33.2925 56.895 28.5 51 28.5Z" fill="#0660FC"/>
<path opacity="0.2" d="M62.4302 55.8599C56.1527 51.6749 45.9152 51.6749 39.5927 55.8599C36.7352 57.7499 35.1602 60.3374 35.1602 63.1049C35.1602 65.8724 36.7352 68.4374 39.5702 70.3274C42.7202 72.4424 46.8602 73.4999 51.0002 73.4999C55.1402 73.4999 59.2802 72.4424 62.4302 70.3274C65.2652 68.4149 66.8402 65.8499 66.8402 63.0599C66.8177 60.3149 65.2652 57.7274 62.4302 55.8599Z" fill="#0660FC"/>
<path d="M49.583 67.335C49.223 67.335 48.863 67.1775 48.593 66.93L45.758 64.095C45.218 63.555 45.218 62.655 45.758 62.115C46.298 61.575 47.198 61.575 47.738 62.115L49.583 63.96L54.263 59.28C54.803 58.74 55.703 58.74 56.243 59.28C56.783 59.82 56.783 60.72 56.243 61.26L50.573 66.93C50.303 67.2 49.943 67.335 49.583 67.335Z" fill="#0660FC"/>
</svg>
