<svg width="21" height="20" viewBox="0 0 21 20" fill="none" xmlns="http://www.w3.org/2000/svg">
<path opacity="0.2" d="M14.2403 0H5.86029C2.65152 0 0.050293 2.60123 0.050293 5.81V14.19C0.050293 17.3988 2.65152 20 5.86029 20H14.2403C17.4491 20 20.0503 17.3988 20.0503 14.19V5.81C20.0503 2.60123 17.4491 0 14.2403 0Z" fill="#7E8299"/>
<path d="M11.4603 10.0002L14.2903 7.17019C14.395 7.08054 14.48 6.97022 14.54 6.84616C14.6001 6.72209 14.6338 6.58696 14.6391 6.44924C14.6444 6.31152 14.6212 6.17419 14.571 6.04587C14.5207 5.91754 14.4444 5.80099 14.347 5.70354C14.2495 5.60608 14.133 5.52983 14.0046 5.47955C13.8763 5.42928 13.739 5.40607 13.6013 5.41139C13.4636 5.41671 13.3284 5.45044 13.2044 5.51046C13.0803 5.57049 12.97 5.65551 12.8803 5.76019L10.0503 8.59019L7.22032 5.76019C7.02902 5.59636 6.78295 5.51076 6.53127 5.52048C6.27959 5.5302 6.04086 5.63453 5.86276 5.81262C5.68467 5.99072 5.58033 6.22946 5.57061 6.48113C5.56089 6.73281 5.6465 6.97889 5.81032 7.17019L8.64032 10.0002L5.81032 12.8302C5.62407 13.0176 5.51953 13.271 5.51953 13.5352C5.51953 13.7994 5.62407 14.0528 5.81032 14.2402C5.99769 14.4264 6.25114 14.531 6.51532 14.531C6.77951 14.531 7.03296 14.4264 7.22032 14.2402L10.0503 11.4102L12.8803 14.2402C13.0677 14.4264 13.3211 14.531 13.5853 14.531C13.8495 14.531 14.103 14.4264 14.2903 14.2402C14.4766 14.0528 14.5811 13.7994 14.5811 13.5352C14.5811 13.271 14.4766 13.0176 14.2903 12.8302L11.4603 10.0002Z" fill="#7E8299"/>
</svg>
