<svg width="12" height="12" viewBox="0 0 12 12" fill="none" xmlns="http://www.w3.org/2000/svg">
<g opacity="0.3">
<path d="M8.81169 11.8332H0.75002C0.595311 11.8332 0.446938 11.7717 0.337541 11.6623C0.228145 11.5529 0.166687 11.4045 0.166687 11.2498V3.18817C0.166687 2.38677 0.48504 1.6182 1.05171 1.05153C1.61839 0.484857 2.38696 0.166504 3.18835 0.166504H8.81169C9.2085 0.166504 9.60142 0.244662 9.96803 0.396515C10.3346 0.548368 10.6677 0.770942 10.9483 1.05153C11.2289 1.33212 11.4515 1.66522 11.6033 2.03183C11.7552 2.39843 11.8334 2.79136 11.8334 3.18817V8.8115C11.8334 9.20831 11.7552 9.60124 11.6033 9.96785C11.4515 10.3345 11.2289 10.6676 10.9483 10.9481C10.6677 11.2287 10.3346 11.4513 9.96803 11.6032C9.60142 11.755 9.2085 11.8332 8.81169 11.8332Z" fill="#A1A5B7"/>
</g>
<path d="M5.55086 3.51489L5.98253 2.93155C6.06782 2.81336 6.17605 2.71356 6.30076 2.63811C6.42546 2.56267 6.56409 2.51312 6.70837 2.49243C6.85265 2.47174 6.99962 2.48034 7.1405 2.5177C7.28139 2.55506 7.4133 2.62042 7.52836 2.70989L8.50253 3.46239C8.73254 3.64921 8.88283 3.91655 8.92292 4.21014C8.963 4.50373 8.88987 4.80158 8.71836 5.04322L8.2867 5.62655C7.96886 5.69088 7.64081 5.68505 7.32545 5.60949C7.0101 5.53392 6.71504 5.39044 6.46086 5.18905C6.19992 4.98974 5.98399 4.73759 5.82718 4.4491C5.67037 4.1606 5.57621 3.84226 5.55086 3.51489ZM5.9767 5.84822C5.49114 5.4707 5.12293 4.9629 4.91503 4.38405L3.2817 6.58322C3.15514 6.76262 3.08598 6.97619 3.08336 7.19572V8.66572C3.07846 8.79451 3.10367 8.92266 3.15699 9.03999C3.21032 9.15733 3.29029 9.26059 3.39054 9.34159C3.49079 9.42258 3.60856 9.47906 3.73447 9.50655C3.86039 9.53403 3.99098 9.53175 4.11586 9.49989L5.49253 9.07989C5.70281 9.01768 5.88711 8.88867 6.01753 8.71239L7.64503 6.50739C7.04407 6.44889 6.47281 6.21796 6.00003 5.84239L5.9767 5.84822Z" fill="#A1A5B7"/>
</svg>
