<svg width="13" height="12" viewBox="0 0 13 12" fill="none" xmlns="http://www.w3.org/2000/svg">
<path d="M3.96258 3.92403C3.8565 3.81254 3.71326 3.75 3.56397 3.75C3.41469 3.75 3.27144 3.81254 3.16536 3.92403C3.11299 3.97877 3.0714 4.04403 3.04301 4.116C3.01462 4.18796 3 4.26521 3 4.34323C3 4.42125 3.01462 4.49849 3.04301 4.57046C3.0714 4.64243 3.11299 4.70768 3.16536 4.76243L6.35098 8.07625C6.4573 8.18758 6.60065 8.25 6.75 8.25C6.89935 8.25 7.0427 8.18758 7.14902 8.07625L10.3346 4.76243C10.387 4.70768 10.4286 4.64243 10.457 4.57046C10.4854 4.49849 10.5 4.42125 10.5 4.34323C10.5 4.26521 10.4854 4.18796 10.457 4.116C10.4286 4.04403 10.387 3.97877 10.3346 3.92403C10.2286 3.81254 10.0853 3.75 9.93603 3.75C9.78674 3.75 9.6435 3.81254 9.53742 3.92403L6.74878 6.6417L3.96258 3.92403Z" fill="#1C1C28"/>
</svg>
