<svg width="13" height="12" viewBox="0 0 13 12" fill="none" xmlns="http://www.w3.org/2000/svg">
<g id="Icon / Field / Chevron Down">
<path id="Vector" d="M3.96258 8.07597C3.8565 8.18746 3.71326 8.25 3.56397 8.25C3.41469 8.25 3.27144 8.18746 3.16536 8.07597C3.11299 8.02123 3.0714 7.95597 3.04301 7.884C3.01462 7.81204 3 7.73479 3 7.65677C3 7.57875 3.01462 7.50151 3.04301 7.42954C3.0714 7.35757 3.11299 7.29232 3.16536 7.23757L6.35098 3.92375C6.4573 3.81242 6.60065 3.75 6.75 3.75C6.89935 3.75 7.0427 3.81242 7.14902 3.92375L10.3346 7.23757C10.387 7.29232 10.4286 7.35757 10.457 7.42954C10.4854 7.50151 10.5 7.57875 10.5 7.65677C10.5 7.73479 10.4854 7.81204 10.457 7.884C10.4286 7.95597 10.387 8.02123 10.3346 8.07597C10.2286 8.18746 10.0853 8.25 9.93603 8.25C9.78674 8.25 9.6435 8.18746 9.53742 8.07597L6.74878 5.3583L3.96258 8.07597Z" fill="#1C1C28"/>
</g>
</svg>
